<svg width="66" height="57" viewBox="0 0 66 57" fill="none" xmlns="http://www.w3.org/2000/svg">
<path d="M10.8887 10.06C2.0336 9.75692 -3.36051 20.9117 2.35961 28.4997C-3.31822 36.0349 1.96488 47.2461 10.8887 46.9395C11.65 52.4023 15.5673 56.6933 20.313 56.6933C25.5996 56.6933 29.8835 51.4366 29.8835 44.9746V12.0214C29.8835 7.02902 27.3142 2.76625 23.7158 1.08158C17.9463 -1.60226 11.8755 2.95657 10.8887 10.06ZM27.0675 12.0249V27.6186H15.6678C14.6933 25.1022 10.9486 25.8071 10.9486 28.4997C10.9486 31.1924 14.6951 31.8902 15.6678 29.3808H27.0675V42.4106H22.9175C22.713 41.8778 22.3282 41.4335 21.8301 41.155C21.332 40.8765 20.752 40.7813 20.191 40.8861C19.63 40.9908 19.1235 41.2888 18.7594 41.7283C18.3953 42.1678 18.1968 42.721 18.1983 43.2917C18.1983 45.9879 21.9465 46.6822 22.9175 44.1728H27.0675V44.9781C27.0675 49.8876 24.0365 53.8808 20.313 53.8808C17.2591 53.8808 14.6827 51.1881 13.851 47.5139V36.3275H18.8732C19.0789 36.8596 19.4642 37.303 19.9624 37.5809C20.4607 37.8588 21.0404 37.9537 21.6012 37.8491C22.1621 37.7445 22.6686 37.447 23.0332 37.0082C23.3977 36.5694 23.5973 36.0168 23.5973 35.4464C23.5973 34.8759 23.3977 34.3233 23.0332 33.8845C22.6686 33.4457 22.1621 33.1482 21.6012 33.0436C21.0404 32.939 20.4607 33.0339 19.9624 33.3118C19.4642 33.5897 19.0789 34.0331 18.8732 34.5652H12.0923V43.979C7.13343 44.9852 2.81955 40.7999 2.81955 35.5997C2.81955 32.6392 4.24517 30.0047 6.30519 28.5015C4.62656 27.2375 3.46376 25.4072 3.03277 23.3506H6.60829V35.6173C4.0901 36.5918 4.79498 40.3365 7.48939 40.3365C10.1838 40.3365 10.8816 36.59 8.37049 35.6173V23.3506H20.5632C21.5395 25.867 25.2824 25.1639 25.2824 22.4695C25.282 21.9765 25.1323 21.4953 24.8529 21.0892C24.5736 20.6831 24.1777 20.3711 23.7175 20.1945V4.34695C25.7159 5.8924 27.0675 8.75246 27.0675 12.0249ZM21.9571 12.8143V20.1962C21.6401 20.3189 21.3522 20.5063 21.1119 20.7467C20.8716 20.987 20.6841 21.2749 20.5614 21.5919H16.4696V19.3697C18.9913 18.3917 18.2794 14.6506 15.5885 14.6506C12.8976 14.6506 12.1927 18.3953 14.7074 19.3697V21.5919H2.83365C2.69796 15.3325 8.54672 11.1825 13.6624 13.521C12.8641 7.28278 17.1533 1.81466 21.9553 3.39888L21.9571 12.8143Z" fill="#F35181"/>
<path d="M54.6433 46.9417C63.8825 47.1514 68.6968 35.8398 63.1723 28.5002C64.706 26.4524 65.5306 23.9605 65.5213 21.4021C65.5213 15.1145 60.677 9.90719 54.6433 10.0605C54.4529 8.67423 54.0468 7.32629 53.4397 6.06558C48.4597 -4.21513 35.6484 0.229152 35.6484 12.0254V44.9786C35.6484 51.7684 40.2443 56.6973 45.219 56.6973C49.947 56.6955 53.8767 52.4662 54.6433 46.9417ZM38.4644 44.9768V29.3813H49.8694C50.8457 31.8978 54.5886 31.1946 54.5886 28.5002C54.5886 25.8058 50.8475 25.1009 49.8694 27.6191H38.4644V14.5911H42.6144C43.5907 17.1076 47.3336 16.4044 47.3336 13.71C47.3336 11.0156 43.5872 10.3178 42.6144 12.8289H38.4644V12.0254C38.4644 7.11585 41.4954 3.12269 45.219 3.12269C48.2746 3.12269 50.8492 5.81534 51.681 9.49131V20.6743H46.6587C45.6824 18.1578 41.9395 18.8627 41.9395 21.5554C41.9395 24.248 45.6807 24.9582 46.6587 22.4365H53.4397V13.0192C58.4179 12.013 62.7071 16.2212 62.7071 21.4021C62.7071 24.3731 61.2762 27.0006 59.2215 28.5002C60.9006 29.7638 62.0635 31.5943 62.4939 33.6511H58.9254V21.3844C59.458 21.1788 59.9019 20.7932 60.1802 20.2946C60.4584 19.7961 60.5535 19.2159 60.4488 18.6546C60.3442 18.0933 60.0466 17.5863 59.6074 17.2214C59.1682 16.8565 58.6153 16.6568 58.0443 16.6568C57.4734 16.6568 56.9204 16.8565 56.4812 17.2214C56.0421 17.5863 55.7444 18.0933 55.6398 18.6546C55.5352 19.2159 55.6302 19.7961 55.9084 20.2946C56.1867 20.7932 56.6306 21.1788 57.1632 21.3844V33.6511H44.974C43.9978 31.133 40.2548 31.8396 40.2548 34.5322C40.2553 35.0249 40.4049 35.5059 40.6839 35.9119C40.9629 36.318 41.3582 36.6301 41.8179 36.8073V52.6583C39.8249 51.1093 38.4644 48.251 38.4644 44.9768ZM43.5748 36.8055C43.8916 36.683 44.1793 36.4957 44.4196 36.2557C44.66 36.0157 44.8476 35.7282 44.9705 35.4116H49.0588V37.632C46.5371 38.61 47.2508 42.3512 49.9399 42.3512C52.629 42.3512 53.3357 38.6065 50.821 37.632V35.4116H62.6983C62.834 41.6727 56.987 45.8086 51.8713 43.479C52.6802 49.7894 48.3205 55.1765 43.5784 53.6028L43.5748 36.8055Z" fill="#F35181"/>
<path d="M32.5141 37.455C37.4601 37.455 41.4697 33.4455 41.4697 28.4995C41.4697 23.5535 37.4601 19.5439 32.5141 19.5439C27.5681 19.5439 23.5586 23.5535 23.5586 28.4995C23.5586 33.4455 27.5681 37.455 32.5141 37.455Z" fill="#F35181"/>
</svg>