<svg width="251" height="251" viewBox="0 0 251 251" fill="none" xmlns="http://www.w3.org/2000/svg">
<path d="M54.4369 60.6334L0 30.748V85.536L54.4369 115.421V60.6334Z" fill="#F35181"/>
<path d="M54.4375 60.9842L108.874 30.7478L54.4375 0.5V60.9842Z" fill="#285EA4"/>
<path d="M28.2324 222.29L82.6694 192.043L28.2324 161.795V222.29Z" fill="#285EA4"/>
<path d="M54.4369 0.5L0 30.7478L54.4369 60.9842V0.5Z" fill="#FFC254"/>
<path d="M221.79 28.7324L167.342 58.9689L221.79 89.2167V28.7324Z" fill="#FFC254"/>
<path d="M54.4375 60.6334L108.874 30.748V85.536L54.4375 115.421V60.6334Z" fill="#F35181"/>
<path fill-rule="evenodd" clip-rule="evenodd" d="M145.17 196.074V197.082C145.17 211.077 150.662 224.514 160.465 234.503C170.268 244.492 183.598 250.236 197.591 250.5V196.074H145.17Z" fill="#00B18A"/>
<path fill-rule="evenodd" clip-rule="evenodd" d="M199.607 143.664H198.599C184.602 143.664 171.165 149.156 161.174 158.958C151.183 168.761 145.437 182.091 145.17 196.085H199.607V143.664Z" fill="#F35181"/>
<path fill-rule="evenodd" clip-rule="evenodd" d="M197.59 250.5V143.653C211.624 143.858 225.014 149.576 234.866 159.573C244.718 169.569 250.241 183.041 250.241 197.077C250.241 211.112 244.718 224.584 234.866 234.581C225.014 244.577 211.624 250.296 197.59 250.5Z" fill="#F98E4A"/>
</svg>
