<svg width="163" height="164" viewBox="0 0 163 164" fill="none" xmlns="http://www.w3.org/2000/svg">
<path d="M35.2795 39.9614L0 20.5933V56.1003L35.2795 75.4684V39.9614Z" fill="#F35181"/>
<path d="M35.2793 40.1889L70.5588 20.5932L35.2793 0.990234V40.1889Z" fill="#285EA4"/>
<path d="M18.2969 144.728L53.5764 125.125L18.2969 105.522V144.728Z" fill="#285EA4"/>
<path d="M35.2795 0.990234L0 20.5932L35.2795 40.1889V0.990234Z" fill="#FFC254"/>
<path d="M143.738 19.2866L108.451 38.8823L143.738 58.4852V19.2866Z" fill="#FFC254"/>
<path d="M35.2793 39.9614L70.5588 20.5933V56.1003L35.2793 75.4684V39.9614Z" fill="#F35181"/>
<path fill-rule="evenodd" clip-rule="evenodd" d="M94.082 127.738V128.391C94.0823 137.462 97.6415 146.17 103.994 152.643C110.347 159.117 118.987 162.839 128.055 163.01V127.738H94.082Z" fill="#00B18A"/>
<path fill-rule="evenodd" clip-rule="evenodd" d="M129.362 93.7725H128.708C119.637 93.7727 110.929 97.3317 104.454 103.684C97.9791 110.037 94.255 118.676 94.082 127.746H129.362V93.7725Z" fill="#F35181"/>
<path fill-rule="evenodd" clip-rule="evenodd" d="M128.055 163.01V93.7651C137.15 93.8976 145.828 97.6036 152.213 104.082C158.598 110.561 162.177 119.292 162.177 128.388C162.177 137.484 158.598 146.215 152.213 152.693C145.828 159.172 137.15 162.878 128.055 163.01Z" fill="#F98E4A"/>
</svg>
