<svg width="63" height="75" viewBox="0 0 63 75" fill="none" xmlns="http://www.w3.org/2000/svg">
<path d="M3.90545e-07 26.9603C4.67765e-07 32.2927 1.58127 37.5054 4.5439 41.9391C7.50654 46.3728 11.7174 49.8284 16.6441 51.8688C21.5707 53.9092 26.9918 54.4429 32.2217 53.4022C37.4516 52.3616 42.2554 49.7934 46.0257 46.0225C49.796 42.2516 52.3633 37.4473 53.4031 32.2172C54.4428 26.9871 53.9083 21.5661 51.8671 16.6399C49.8258 11.7136 46.3695 7.5033 41.9353 4.54141C37.5011 1.57953 32.2881 -0.000907104 26.9557 3.90597e-07C23.4154 3.39312e-07 19.9099 0.697391 16.6391 2.05233C13.3684 3.40727 10.3966 5.39322 7.89348 7.89677C5.39035 10.4003 3.4049 13.3724 2.05052 16.6434C0.696141 19.9143 -0.000602207 23.42 3.90545e-07 26.9603Z" fill="#F35181"/>
<path d="M9.80078 60.4537H40.0279L9.80078 30.2266V60.4537Z" fill="#0084BC"/>
<path d="M53.916 25.4141V44.9323H62.8997L53.916 25.4141Z" fill="#00B18A"/>
<path d="M42.478 60.4541H9.80078L25.3227 74.338L42.478 60.4541Z" fill="#F98E4A"/>
<path d="M9.80078 74.338V60.4541L25.3227 74.338H9.80078Z" fill="#285EA4"/>
<path d="M42.4781 74.338V60.4541L25.2861 74.338H42.4781Z" fill="#0084BC"/>
<path d="M53.9164 25.3271L18.7891 60.4545H53.9164V25.3271Z" fill="#FFC254"/>
</svg>
