<svg width="212" height="490" viewBox="0 0 212 251" fill="none" xmlns="http://www.w3.org/2000/svg">
<path d="M1.31337e-06 91.1524C-0.00305045 109.086 5.31232 126.618 15.2739 141.531C25.2354 156.443 39.3956 168.067 55.9636 174.931C72.5316 181.795 90.7632 183.592 108.352 180.094C125.942 176.596 142.099 167.961 154.78 155.28C167.461 142.599 176.096 126.442 179.594 108.852C183.092 91.2632 181.295 73.0316 174.431 56.4636C167.567 39.8956 155.943 25.7354 141.031 15.7739C126.118 5.81232 108.586 0.49695 90.6524 0.500001C66.6111 0.504092 43.5557 10.0563 26.556 27.056C9.55626 44.0557 0.0040924 67.1111 1.31337e-06 91.1524Z" fill="#F35181"/>
<path d="M32.959 203.793H134.613L32.959 102.154V203.793Z" fill="#F35181"/>
<path d="M181.32 85.9678V151.592H211.533L181.32 85.9678Z" fill="#00B18A"/>
<path d="M142.853 203.793H32.959L85.1593 250.469L142.853 203.793Z" fill="#F98E4A"/>
<path d="M32.959 250.469V203.793L85.1593 250.469H32.959Z" fill="#285EA4"/>
<path d="M142.852 250.469V203.793L85.0352 250.469H142.852Z" fill="#F35181"/>
<path d="M181.32 85.6592L63.2637 203.793H181.397L181.32 85.6592Z" fill="#FFC254"/>
</svg>
