<svg width="138" height="163" viewBox="0 0 138 163" fill="none" xmlns="http://www.w3.org/2000/svg">
<path d="M8.51168e-07 59.7402C-0.00197694 71.3627 3.44281 82.7247 9.89868 92.3893C16.3546 102.054 25.5315 109.587 36.2689 114.035C47.0063 118.484 58.8218 119.649 70.2211 117.382C81.6203 115.115 92.0913 109.518 100.31 101.3C108.528 93.0815 114.124 82.6105 116.391 71.2113C118.658 59.812 117.494 47.9965 113.045 37.2591C108.597 26.5217 101.064 17.3448 91.3991 10.8889C81.7345 4.43304 70.3725 0.988257 58.75 0.990235C43.1693 0.992887 28.2276 7.18345 17.2104 18.2006C6.19322 29.2178 0.0026522 44.1596 8.51168e-07 59.7402Z" fill="#F35181"/>
<path d="M21.3594 132.74H87.2394L21.3594 66.8701V132.74Z" fill="#F35181"/>
<path d="M117.51 56.3799V98.9099H137.09L117.51 56.3799Z" fill="#00B18A"/>
<path d="M92.5794 132.74H21.3594L55.1894 162.99L92.5794 132.74Z" fill="#F98E4A"/>
<path d="M21.3594 162.99V132.74L55.1894 162.99H21.3594Z" fill="#285EA4"/>
<path d="M92.5794 162.99V132.74L55.1094 162.99H92.5794Z" fill="#F35181"/>
<path d="M117.51 56.1807L41 132.741H117.56L117.51 56.1807Z" fill="#FFC254"/>
</svg>
