<svg width="44" height="48" viewBox="0 0 44 48" fill="none" xmlns="http://www.w3.org/2000/svg">
<path d="M38.4 4.8H36V0H31.2V4.8H12V0H7.2V4.8H4.8C3.52696 4.8 2.30606 5.30571 1.40589 6.20589C0.505713 7.10606 0 8.32696 0 9.6V43.2C0 44.473 0.505713 45.6939 1.40589 46.5941C2.30606 47.4943 3.52696 48 4.8 48H38.4C41.04 48 43.2 45.84 43.2 43.2V9.6C43.2 6.96 41.04 4.8 38.4 4.8ZM21.6 12C25.584 12 28.8 15.216 28.8 19.2C28.8 23.184 25.584 26.4 21.6 26.4C17.616 26.4 14.4 23.184 14.4 19.2C14.4 15.216 17.616 12 21.6 12ZM36 40.8H7.2V38.4C7.2 33.6 16.8 30.96 21.6 30.96C26.4 30.96 36 33.6 36 38.4V40.8Z" fill="#285EA4"/>
</svg>
