<svg width="67" height="41" viewBox="0 0 67 41" fill="none" xmlns="http://www.w3.org/2000/svg">
<path d="M26.29 26.7084V28.5346V28.9334V29.3309H21.2763H18.7925H18.3937H17.9963H2.48375V17.4596H17.9963V14.9746H0V31.8159H17.9963H18.3937H18.7925H28.7738V29.3309V28.9334V28.5346V26.7084H26.29Z" fill="#F98E4A"/>
<path d="M48.3627 14.9746H47.964H47.5665H37.584V17.4596V17.8571V18.2546V19.9021H40.069V18.2546V17.8571V17.4596H45.0827H47.5665H47.964H48.3627H63.8752V29.3309H48.3627V31.8159H66.3577V14.9746H48.3627Z" fill="#00B18A"/>
<path d="M29.5692 14.9746H29.1717H28.7742H18.793V17.4596V17.8571V18.2546V19.9021H21.2767V18.2546V17.8571V17.4596H26.2905H28.7742H29.1717H29.5692H36.7892V14.9746H29.5692Z" fill="#F35181"/>
<path d="M45.0821 26.709V28.5352V28.934V29.3315H40.0684H37.5834H37.1859H36.7884H29.5684V31.8165H36.7884H37.1859H37.5834H47.5659V29.3315V28.934V28.5352V26.709H45.0821Z" fill="#F35181"/>
<path d="M30.016 34.2549H27.5322V40.4999H30.016V34.2549Z" fill="#F35181"/>
<path d="M38.8265 34.2549H36.3428V40.4999H38.8265V34.2549Z" fill="#F35181"/>
<path d="M48.808 34.2549H46.3242V40.4999H48.808V34.2549Z" fill="#00B18A"/>
<path d="M57.6185 34.2549H55.1348V40.4999H57.6185V34.2549Z" fill="#00B18A"/>
<path d="M11.224 34.2549H8.74023V40.4999H11.224V34.2549Z" fill="#F98E4A"/>
<path d="M20.0336 34.2549H17.5498V40.4999H20.0336V34.2549Z" fill="#F98E4A"/>
<path d="M14.3867 0.5C13.2 0.5 12.04 0.851894 11.0533 1.51118C10.0666 2.17047 9.29757 3.10754 8.84344 4.2039C8.38932 5.30026 8.2705 6.50666 8.50201 7.67054C8.73352 8.83443 9.30497 9.90353 10.1441 10.7426C10.9832 11.5818 12.0523 12.1532 13.2162 12.3847C14.3801 12.6162 15.5865 12.4974 16.6828 12.0433C17.7792 11.5892 18.7162 10.8201 19.3755 9.83342C20.0348 8.84673 20.3867 7.68669 20.3867 6.5C20.3867 4.9087 19.7546 3.38258 18.6294 2.25736C17.5041 1.13214 15.978 0.5 14.3867 0.5V0.5ZM14.3867 10.105C13.6737 10.105 12.9767 9.89357 12.3839 9.49745C11.7911 9.10133 11.329 8.5383 11.0561 7.87957C10.7833 7.22085 10.7119 6.496 10.851 5.7967C10.9901 5.0974 11.3334 4.45505 11.8376 3.95088C12.3418 3.44671 12.9841 3.10337 13.6834 2.96427C14.3827 2.82517 15.1076 2.89656 15.7663 3.16941C16.425 3.44227 16.988 3.90433 17.3842 4.49717C17.7803 5.09001 17.9917 5.787 17.9917 6.5C17.9917 7.45611 17.6119 8.37305 16.9358 9.04912C16.2598 9.72519 15.3428 10.105 14.3867 10.105Z" fill="#F98E4A"/>
<path d="M33.1787 0.5C31.992 0.5 30.832 0.851894 29.8453 1.51118C28.8586 2.17047 28.0896 3.10754 27.6354 4.2039C27.1813 5.30026 27.0625 6.50666 27.294 7.67054C27.5255 8.83443 28.097 9.90353 28.9361 10.7426C29.7752 11.5818 30.8443 12.1532 32.0082 12.3847C33.1721 12.6162 34.3785 12.4974 35.4748 12.0433C36.5712 11.5892 37.5082 10.8201 38.1675 9.83342C38.8268 8.84673 39.1787 7.68669 39.1787 6.5C39.1787 4.9087 38.5466 3.38258 37.4214 2.25736C36.2961 1.13214 34.77 0.5 33.1787 0.5V0.5ZM33.1787 10.105C32.4657 10.105 31.7687 9.89357 31.1759 9.49745C30.583 9.10133 30.121 8.5383 29.8481 7.87957C29.5753 7.22085 29.5039 6.496 29.643 5.7967C29.7821 5.0974 30.1254 4.45505 30.6296 3.95088C31.1338 3.44671 31.7761 3.10337 32.4754 2.96427C33.1747 2.82517 33.8996 2.89656 34.5583 3.16941C35.217 3.44227 35.78 3.90433 36.1762 4.49717C36.5723 5.09001 36.7837 5.787 36.7837 6.5C36.7837 6.97342 36.6905 7.44219 36.5093 7.87957C36.3281 8.31695 36.0626 8.71437 35.7278 9.04912C35.3931 9.38387 34.9957 9.64942 34.5583 9.83059C34.1209 10.0118 33.6521 10.105 33.1787 10.105Z" fill="#F35181"/>
<path d="M51.9717 0.5C50.785 0.5 49.625 0.851894 48.6383 1.51118C47.6516 2.17047 46.8825 3.10754 46.4284 4.2039C45.9743 5.30026 45.8555 6.50666 46.087 7.67054C46.3185 8.83443 46.8899 9.90353 47.729 10.7426C48.5682 11.5818 49.6373 12.1532 50.8011 12.3847C51.965 12.6162 53.1714 12.4974 54.2678 12.0433C55.3641 11.5892 56.3012 10.8201 56.9605 9.83342C57.6198 8.84673 57.9717 7.68669 57.9717 6.5C57.9717 4.9087 57.3395 3.38258 56.2143 2.25736C55.0891 1.13214 53.563 0.5 51.9717 0.5V0.5ZM51.9717 10.105C51.2586 10.1052 50.5615 9.89403 49.9685 9.49806C49.3755 9.10208 48.9133 8.53915 48.6402 7.88044C48.3672 7.22173 48.2956 6.49685 48.4345 5.79747C48.5735 5.09808 48.9167 4.45562 49.4209 3.95132C49.925 3.44703 50.5673 3.10356 51.2667 2.96436C51.966 2.82516 52.6909 2.89648 53.3497 3.16929C54.0085 3.44211 54.5716 3.90417 54.9678 4.49704C55.364 5.08991 55.5754 5.78695 55.5754 6.5C55.5754 7.45589 55.1958 8.37265 54.52 9.04868C53.8442 9.72471 52.9276 10.1047 51.9717 10.105Z" fill="#00B18A"/>
</svg>
