<svg width="53" height="78" viewBox="0 0 53 78" fill="none" xmlns="http://www.w3.org/2000/svg">
<path d="M17.9483 19.7108C16.3363 18.0933 15.2398 16.0344 14.7972 13.7941C14.3546 11.5538 14.5858 9.23262 15.4615 7.12362C16.3372 5.01462 17.8183 3.21239 19.7175 1.94452C21.6168 0.676655 23.8492 0 26.1328 0C28.4164 0 30.6488 0.676655 32.5481 1.94452C34.4473 3.21239 35.9283 5.01462 36.8041 7.12362C37.6798 9.23262 37.911 11.5538 37.4684 13.7941C37.0258 16.0344 35.9293 18.0933 34.3174 19.7108C32.1455 21.8793 29.2019 23.0973 26.1328 23.0973C23.0637 23.0973 20.1201 21.8793 17.9483 19.7108Z" fill="#F35181"/>
<path d="M52.2752 69.3863H0L26.1424 42.8154L52.2752 69.3863Z" fill="#0084BC"/>
<path d="M10.2734 42.8154H41.9909L26.1322 59.0979L10.2734 42.8154Z" fill="#00B18A"/>
<path d="M32.5645 24.8145H19.7051V42.8156H32.5645V24.8145Z" fill="#F98E4A"/>
<path d="M10.2734 23.1006H41.9909L26.1322 38.5068L10.2734 23.1006Z" fill="#FFC254"/>
<path d="M45.419 69.3857H6.8457V77.9554H45.419V69.3857Z" fill="#FFC254"/>
</svg>
