<svg width="168" height="490" viewBox="0 0 168 250" fill="none" xmlns="http://www.w3.org/2000/svg">
<path d="M57.5707 63.2637C52.4045 58.0795 48.8902 51.4807 47.4717 44.3007C46.0533 37.1206 46.7941 29.6812 49.6008 22.9219C52.4075 16.1626 57.1541 10.3865 63.2412 6.32299C69.3284 2.25949 76.4832 0.0908203 83.802 0.0908203C91.1209 0.0908203 98.2756 2.25949 104.363 6.32299C110.45 10.3865 115.197 16.1626 118.003 22.9219C120.81 29.6812 121.551 37.1206 120.132 44.3007C118.714 51.4807 115.2 58.0795 110.033 63.2637C106.593 66.7161 102.505 69.4554 98.0034 71.3245C93.5021 73.1936 88.676 74.1558 83.802 74.1558C78.928 74.1558 74.102 73.1936 69.6006 71.3245C65.0992 69.4554 61.0111 66.7161 57.5707 63.2637Z" fill="#F35181"/>
<path d="M167.587 222.518H0L83.7859 137.328L167.587 222.518Z" fill="#F35181"/>
<path d="M32.959 137.328H134.613L83.786 189.559L32.959 137.328Z" fill="#00B18A"/>
<path d="M104.402 79.666H63.1875V137.36H104.402V79.666Z" fill="#F98E4A"/>
<path d="M32.959 74.1729H134.613L83.786 123.627L32.959 74.1729Z" fill="#FFC254"/>
<path d="M145.599 222.519H21.9727V249.984H145.599V222.519Z" fill="#FFC254"/>
</svg>
