<svg width="109" height="163" viewBox="0 0 109 163" fill="none" xmlns="http://www.w3.org/2000/svg">
<path d="M37.3106 41.6051C33.9624 38.2454 31.6849 33.9688 30.7656 29.3156C29.8463 24.6623 30.3265 19.841 32.1454 15.4604C33.9644 11.0798 37.0406 7.33648 40.9855 4.70301C44.9305 2.06954 49.5674 0.664062 54.3106 0.664062C59.0538 0.664062 63.6906 2.06954 67.6356 4.70301C71.5806 7.33648 74.6567 11.0798 76.4757 15.4604C78.2946 19.841 78.7748 24.6623 77.8555 29.3156C76.9362 33.9688 74.6587 38.2454 71.3106 41.6051C69.0809 43.8426 66.4314 45.6179 63.5142 46.8292C60.597 48.0405 57.4693 48.6641 54.3106 48.6641C51.1518 48.6641 48.0242 48.0405 45.1069 46.8292C42.1897 45.6179 39.5402 43.8426 37.3106 41.6051Z" fill="#F35181"/>
<path d="M108.61 144.815H0L54.3 89.6055L108.61 144.815Z" fill="#F35181"/>
<path d="M21.3594 89.6055H87.2394L54.2994 123.455L21.3594 89.6055Z" fill="#00B18A"/>
<path d="M67.6592 52.2354H40.9492V89.6253H67.6592V52.2354Z" fill="#F98E4A"/>
<path d="M21.3594 48.6748H87.2394L54.2994 80.7248L21.3594 48.6748Z" fill="#FFC254"/>
<path d="M94.3602 144.815H14.2402V162.615H94.3602V144.815Z" fill="#FFC254"/>
</svg>
