<svg width="270" height="490" viewBox="0 0 79 79" fill="none" xmlns="http://www.w3.org/2000/svg">
<path d="M17.1274 18.9014L0 9.49512V26.7223L17.1274 36.125V18.9014Z" fill="#F35181"/>
<path d="M17.127 19.0122L34.2543 9.49543L17.127 0V19.0122Z" fill="#285EA4"/>
<path d="M8.88184 69.7605L26.0092 60.2473L8.88184 50.7305V69.7605Z" fill="#285EA4"/>
<path d="M17.1274 0L0 9.51324L17.1274 19.03V0Z" fill="#FFC254"/>
<path d="M69.7814 8.86133L52.6504 18.3781L69.7814 27.8949V8.86133Z" fill="#FFC254"/>
<path d="M17.127 18.9014L34.2543 9.49512V26.7223L17.127 36.125V18.9014Z" fill="#0084BC"/>
<path fill-rule="evenodd" clip-rule="evenodd" d="M45.6738 61.5156V61.8327C45.674 66.2361 47.4019 70.4636 50.4861 73.6064C53.5702 76.7492 57.7644 78.5564 62.167 78.6394V61.5156H45.6738Z" fill="#00B18A"/>
<path fill-rule="evenodd" clip-rule="evenodd" d="M62.8158 45.0254H62.4987C58.095 45.0255 53.8672 46.7533 50.7238 49.8374C47.5804 52.9215 45.7725 57.1157 45.6885 61.5186H62.8158V45.0254Z" fill="#0084BC"/>
<path fill-rule="evenodd" clip-rule="evenodd" d="M62.167 78.6359V45.0225C66.5645 45.113 70.7513 46.9235 73.8293 50.0655C76.9073 53.2075 78.6312 57.4308 78.6312 61.8292C78.6312 66.2276 76.9073 70.4508 73.8293 73.5928C70.7513 76.7348 66.5645 78.5453 62.167 78.6359Z" fill="#F98E4A"/>
</svg>
