<svg width="67" height="65" viewBox="0 0 67 65" fill="none" xmlns="http://www.w3.org/2000/svg">
<path d="M64.6806 8.83984H12.6717C12.1695 8.83984 11.6879 9.03932 11.3329 9.39438C10.9778 9.74945 10.7783 10.231 10.7783 10.7332V62.7397C10.7774 62.989 10.8256 63.236 10.9204 63.4665C11.0151 63.6971 11.1544 63.9066 11.3303 64.0832C11.5062 64.2598 11.7152 64.3999 11.9454 64.4955C12.1756 64.5911 12.4224 64.6403 12.6717 64.6403H64.6806C64.9294 64.6407 65.1757 64.5919 65.4056 64.4969C65.6354 64.4018 65.8443 64.2624 66.0201 64.0865C66.196 63.9106 66.3355 63.7018 66.4305 63.4719C66.5255 63.2421 66.5743 62.9958 66.574 62.747V10.7332C66.574 10.231 66.3745 9.74945 66.0194 9.39438C65.6644 9.03932 65.1828 8.83984 64.6806 8.83984ZM60.5407 57.1353C60.5407 57.5282 60.3846 57.9051 60.1068 58.1829C59.8289 58.4607 59.4521 58.6168 59.0592 58.6168H18.2907C17.8988 58.6149 17.5236 58.458 17.247 58.1805C16.9703 57.9029 16.8147 57.5272 16.814 57.1353V16.3571C16.814 15.9635 16.9704 15.5861 17.2487 15.3078C17.527 15.0295 17.9044 14.8731 18.298 14.8731H59.0592C59.4523 14.8738 59.8291 15.0304 60.1069 15.3086C60.3847 15.5868 60.5407 15.9639 60.5407 16.3571V57.1353Z" fill="#F35181"/>
<path d="M53.9072 56.1609H16.8327V50.1276H30.2151V17.1541C30.2151 16.9518 30.2955 16.7578 30.4385 16.6148C30.5815 16.4718 30.7755 16.3914 30.9778 16.3914H36.0632C36.2655 16.3914 36.4595 16.4718 36.6025 16.6148C36.7455 16.7578 36.8259 16.9518 36.8259 17.1541V50.1276H39.7499V17.1541C39.7499 16.9518 39.8303 16.7578 39.9733 16.6148C40.1164 16.4718 40.3103 16.3914 40.5126 16.3914H45.5956C45.7979 16.3914 45.9919 16.4718 46.1349 16.6148C46.2779 16.7578 46.3583 16.9518 46.3583 17.1541V50.1276H48.3076C48.5026 50.1279 48.6957 50.0897 48.8759 50.0153C49.0561 49.9408 49.2198 49.8315 49.3577 49.6937C49.4955 49.5558 49.6048 49.3921 49.6793 49.2119C49.7537 49.0317 49.7919 48.8386 49.7916 48.6436V7.87758C49.7916 7.48401 49.6352 7.10656 49.3569 6.82827C49.0787 6.54997 48.7012 6.39363 48.3076 6.39363H7.51723C7.12366 6.39363 6.74621 6.54997 6.46792 6.82827C6.18962 7.10656 6.03328 7.48401 6.03328 7.87758V48.6436C6.03328 49.0372 6.18962 49.4146 6.46792 49.6929C6.74621 49.9712 7.12366 50.1276 7.51723 50.1276H10.7215V56.1609H1.89332C1.39118 56.1609 0.909606 55.9614 0.55454 55.6063C0.199474 55.2512 0 54.7697 0 54.2675L0 2.25367C0 1.75153 0.199474 1.26996 0.55454 0.914892C0.909606 0.559826 1.39118 0.360352 1.89332 0.360352L53.9072 0.360352C54.4093 0.360352 54.8909 0.559826 55.246 0.914892C55.601 1.26996 55.8005 1.75153 55.8005 2.25367V54.2675C55.8005 54.7697 55.601 55.2512 55.246 55.6063C54.8909 55.9614 54.4093 56.1609 53.9072 56.1609Z" fill="#00B18A"/>
</svg>
