<svg width="231" height="121" viewBox="0 0 231 121" fill="none" xmlns="http://www.w3.org/2000/svg">
<path d="M9.38 7.30137H2.492V26.9014H9.38C15.148 26.9014 19.32 22.7854 19.32 17.1014C19.32 11.4174 15.148 7.30137 9.38 7.30137ZM9.296 23.9054H5.684V10.3254H9.296C13.272 10.3254 16.044 13.1534 16.044 17.1014C16.044 21.0494 13.272 23.9054 9.296 23.9054ZM33.4178 11.7814L28.9098 22.3374L24.0938 11.7814H20.7338L27.3138 25.8094L26.9778 26.5374C25.8578 28.9454 25.2418 29.5334 23.2538 29.5334H21.9378V32.3334H23.4778C26.5578 32.3334 28.0698 30.9894 29.7778 27.1814L36.7218 11.7814H33.4178ZM47.2154 11.4454C45.0034 11.4454 43.1274 12.3694 42.0074 13.9094L41.3914 11.7814H39.2354V26.9014H42.3434V18.8094C42.3434 16.1494 44.0234 14.2454 46.4034 14.2454C48.6714 14.2454 49.8754 15.7014 49.8754 18.4454V26.9014H52.9834V17.8014C52.9834 14.0774 50.7714 11.4454 47.2154 11.4454ZM69.8563 11.7814L69.4923 13.6854C68.1203 12.2574 66.1883 11.4174 63.9483 11.4174C59.4403 11.4174 56.0803 14.8054 56.0803 19.3414C56.0803 23.8774 59.4403 27.2934 63.9483 27.2934C66.1603 27.2934 68.0643 26.4534 69.4363 25.0814L69.7443 26.9014H72.2363V11.7814H69.8563ZM64.2003 24.2974C61.3443 24.2974 59.2443 22.1694 59.2443 19.3414C59.2443 16.5134 61.3443 14.3854 64.2003 14.3854C67.0563 14.3854 69.1283 16.4854 69.1283 19.3414C69.1283 22.1974 67.0563 24.2974 64.2003 24.2974ZM93.5804 11.4454C91.5924 11.4454 89.7444 12.4814 88.6524 14.1054C87.7844 12.4534 86.1604 11.4454 84.1164 11.4454C82.2964 11.4454 80.5604 12.3414 79.4124 13.7414L78.8804 11.7814H76.6964V26.9014H79.8044V18.6414C79.8044 16.0654 81.3444 14.2454 83.3604 14.2454C85.2364 14.2454 86.3004 15.6174 86.3004 18.0534V26.9014H89.3244V18.6414C89.3244 16.0654 90.8644 14.2454 92.8804 14.2454C94.7564 14.2454 95.8204 15.6174 95.8204 18.0534V26.9014H98.9284V17.2974C98.9284 13.8814 96.7724 11.4454 93.5804 11.4454ZM103.109 9.45737H106.301V6.23737H103.109V9.45737ZM103.165 26.9014H106.273V11.7814H103.165V26.9014ZM117.489 27.2934C121.213 27.2934 124.209 24.9414 125.021 21.4134H121.885C121.073 23.2614 119.477 24.3254 117.489 24.3254C114.801 24.3254 112.729 22.1414 112.729 19.3414C112.729 16.5414 114.773 14.3854 117.489 14.3854C119.449 14.3854 121.129 15.4494 121.913 17.1854H124.993C124.153 13.7134 121.241 11.4174 117.489 11.4174C112.981 11.4174 109.565 14.8334 109.565 19.3414C109.565 23.8494 112.981 27.2934 117.489 27.2934ZM142.661 7.30137H135.437V26.9014H138.629V20.2654H142.661C146.497 20.2654 149.353 17.4934 149.353 13.7974C149.353 10.0734 146.469 7.30137 142.661 7.30137ZM142.521 17.2134H138.629V10.3534H142.521C144.621 10.3534 146.077 11.8094 146.077 13.7974C146.077 15.7574 144.621 17.2134 142.521 17.2134ZM159.636 11.6974C157.564 11.6974 156.08 12.4254 154.988 13.8534L154.484 11.7814H152.384V26.9014H155.492V18.8654C155.492 16.1214 156.752 14.6374 159.328 14.6374H160.98V11.6974H159.636ZM163.347 9.45737H166.539V6.23737H163.347V9.45737ZM163.403 26.9014H166.511V11.7814H163.403V26.9014ZM177.727 27.2934C181.451 27.2934 184.447 24.9414 185.259 21.4134H182.123C181.311 23.2614 179.715 24.3254 177.727 24.3254C175.039 24.3254 172.967 22.1414 172.967 19.3414C172.967 16.5414 175.011 14.3854 177.727 14.3854C179.687 14.3854 181.367 15.4494 182.151 17.1854H185.231C184.391 13.7134 181.479 11.4174 177.727 11.4174C173.219 11.4174 169.803 14.8334 169.803 19.3414C169.803 23.8494 173.219 27.2934 177.727 27.2934ZM188.285 9.45737H191.477V6.23737H188.285V9.45737ZM188.341 26.9014H191.449V11.7814H188.341V26.9014ZM203.84 11.4454C201.628 11.4454 199.752 12.3694 198.632 13.9094L198.016 11.7814H195.86V26.9014H198.968V18.8094C198.968 16.1494 200.648 14.2454 203.028 14.2454C205.296 14.2454 206.5 15.7014 206.5 18.4454V26.9014H209.608V17.8014C209.608 14.0774 207.396 11.4454 203.84 11.4454ZM226.173 11.7814L225.697 13.7414C224.325 12.3134 222.393 11.4174 220.181 11.4174C215.953 11.4174 212.705 14.7214 212.705 18.9494C212.705 23.2054 215.953 26.4814 220.181 26.4814C222.141 26.4814 223.877 25.8094 225.193 24.6614V25.3614C225.193 28.2174 223.261 29.9534 220.657 29.9534C218.753 29.9534 216.961 29.0294 216.373 27.3774H213.293C214.049 30.6814 216.793 32.6974 220.685 32.6974C225.361 32.6974 228.217 29.7574 228.217 24.9414V11.7814H226.173ZM220.517 23.5974C217.829 23.5974 215.869 21.6094 215.869 18.9494C215.869 16.3174 217.829 14.3294 220.517 14.3294C223.233 14.3294 225.165 16.2894 225.165 18.9494C225.165 21.6374 223.205 23.5974 220.517 23.5974Z" fill="#353535"/>
<path d="M158.398 65.3438H106.616C106.116 65.3438 105.636 65.5424 105.283 65.8959C104.929 66.2494 104.73 66.7289 104.73 67.2288V119.009C104.73 119.257 104.778 119.503 104.872 119.732C104.966 119.962 105.105 120.17 105.28 120.346C105.455 120.522 105.663 120.662 105.892 120.757C106.122 120.852 106.367 120.901 106.616 120.901H158.398C158.645 120.901 158.891 120.853 159.12 120.758C159.348 120.663 159.556 120.525 159.731 120.35C159.907 120.174 160.045 119.967 160.14 119.738C160.235 119.509 160.283 119.264 160.283 119.016V67.2288C160.283 66.7289 160.084 66.2494 159.731 65.8959C159.377 65.5424 158.898 65.3438 158.398 65.3438V65.3438ZM154.276 113.429C154.276 113.82 154.12 114.195 153.844 114.472C153.567 114.748 153.192 114.904 152.801 114.904H112.21C111.82 114.902 111.446 114.746 111.171 114.469C110.895 114.193 110.741 113.819 110.74 113.429V72.8282C110.74 72.4364 110.896 72.0605 111.173 71.7835C111.45 71.5064 111.826 71.3507 112.217 71.3507H152.801C153.192 71.3514 153.567 71.5073 153.844 71.7843C154.121 72.0613 154.276 72.4368 154.276 72.8282V113.429Z" fill="#F35181"/>
<path d="M147.672 112.459H110.759V106.452H124.083V73.6219C124.083 73.4205 124.163 73.2274 124.306 73.085C124.448 72.9425 124.641 72.8625 124.843 72.8625H129.906C130.107 72.8625 130.301 72.9425 130.443 73.085C130.585 73.2274 130.665 73.4205 130.665 73.6219V106.452H133.577V73.6219C133.577 73.4205 133.657 73.2274 133.799 73.085C133.941 72.9425 134.135 72.8625 134.336 72.8625H139.397C139.598 72.8625 139.791 72.9425 139.934 73.085C140.076 73.2274 140.156 73.4205 140.156 73.6219V106.452H142.097C142.291 106.452 142.483 106.414 142.663 106.34C142.842 106.266 143.005 106.157 143.142 106.02C143.28 105.882 143.389 105.719 143.463 105.54C143.537 105.361 143.575 105.168 143.574 104.974V64.3858C143.574 63.994 143.419 63.6182 143.142 63.3411C142.865 63.064 142.489 62.9083 142.097 62.9083H101.484C101.093 62.9083 100.717 63.064 100.44 63.3411C100.163 63.6182 100.007 63.994 100.007 64.3858V104.974C100.007 105.366 100.163 105.742 100.44 106.019C100.717 106.296 101.093 106.452 101.484 106.452H104.675V112.459H95.8851C95.3851 112.459 94.9056 112.26 94.5521 111.906C94.1986 111.553 94 111.073 94 110.574V58.7864C94 58.2865 94.1986 57.807 94.5521 57.4535C94.9056 57.1 95.3851 56.9014 95.8851 56.9014H147.672C148.172 56.9014 148.652 57.1 149.005 57.4535C149.359 57.807 149.557 58.2865 149.557 58.7864V110.574C149.557 111.073 149.359 111.553 149.005 111.906C148.652 112.26 148.172 112.459 147.672 112.459Z" fill="#00B18A"/>
</svg>
