<svg width="970" height="180" viewBox="0 0 970 180" fill="none" xmlns="http://www.w3.org/2000/svg">
<path d="M136.913 24.017C135.478 25.5041 134.201 26.9021 132.839 28.2059C131.3 29.693 129.457 29.7349 128.158 28.4154C126.86 27.0959 126.964 25.2737 128.451 23.7395C129.415 22.6727 130.436 21.6589 131.509 20.7025C132.462 19.8961 132.384 19.4563 131.436 18.6709C124.088 12.5439 115.225 8.51034 105.779 6.99428C104.428 6.77436 103.046 6.75865 101.705 6.47067C100.365 6.18268 100.181 6.75342 100.244 7.8949C100.32 9.39497 100.32 10.8979 100.244 12.398C100.16 14.2725 98.9038 15.5397 97.1863 15.5711C95.4689 15.6025 94.0761 14.2987 94.0028 12.3351C93.9452 10.7643 93.9294 9.19345 94.0028 7.62261C94.0603 6.57538 93.7514 6.33975 92.7042 6.42353C86.0607 6.95035 79.5765 8.72685 73.5922 11.6597C72.8958 12 72.2204 12.4399 71.4035 12.4346C70.7095 12.4856 70.0195 12.292 69.4533 11.8874C68.8871 11.4828 68.4804 10.8928 68.3037 10.2197C67.7801 8.5494 68.4608 7.27703 69.9688 6.48113C74.2229 4.20164 78.7781 2.53573 83.499 1.53297C104.7 -2.8654 123.425 2.15607 139.002 17.1786C149.417 27.211 155.072 39.8354 156.282 54.2924C157.816 72.5037 152.093 88.275 139.432 101.329C130.493 110.602 119.367 116.079 106.622 118.173C94.3728 120.257 81.7786 118.378 70.6705 112.812C68.4137 111.707 67.623 110.136 68.4503 108.356C69.3248 106.481 71.0684 106.062 73.4247 107.214C79.4048 110.146 85.8755 111.946 92.5104 112.524C93.7566 112.628 94.1127 112.361 94.0132 111.131C93.9137 109.9 93.9766 108.513 93.987 107.214C94.0132 104.753 95.1861 103.345 97.1706 103.376C99.1551 103.407 100.244 104.826 100.26 107.314C100.26 108.686 100.291 110.057 100.26 111.429C100.26 112.194 100.328 112.602 101.307 112.518C113.12 111.508 123.467 107.099 132.661 99.2029C131.185 97.8101 129.776 96.5848 128.472 95.2129C126.964 93.6735 126.901 91.846 128.2 90.537C129.499 89.228 131.342 89.2803 132.881 90.7779C134.232 92.0974 135.499 93.4954 136.897 94.9668C142.709 88.4893 146.82 80.6697 148.862 72.2105C149.517 69.484 149.962 66.7111 150.192 63.9165C150.286 62.8692 149.982 62.576 148.961 62.6283C147.391 62.7069 145.82 62.6964 144.249 62.6283C142.296 62.5498 140.987 61.1937 141.044 59.4134C141.102 57.6331 142.364 56.4549 144.238 56.3869C145.867 56.324 147.506 56.3869 149.134 56.3869C149.752 56.3869 150.244 56.4445 150.181 55.502C149.213 43.5845 144.799 33.1855 136.913 24.017Z" fill="#285EA4"/>
<path d="M97.4424 47.2971C98.9879 47.2228 100.529 47.5209 101.935 48.1663C103.076 48.6899 103.773 48.4752 104.626 47.606C109.339 42.8097 114.099 38.0709 118.863 33.3322C120.649 31.5572 122.838 31.5834 124.073 33.3322C125.042 34.7041 124.765 36.3064 123.22 37.8615C118.612 42.485 114.01 47.1086 109.36 51.685C108.444 52.5856 108.135 53.2191 108.684 54.6224C110.554 59.4187 110.093 64.0946 106.417 67.8908C102.621 71.8232 97.8141 72.64 92.7246 70.9068C91.1276 70.3832 90.2898 70.6555 89.2426 71.7865C87.2109 73.9752 85.3678 74.2475 83.886 72.7971C82.4041 71.3467 82.6502 69.4512 84.7866 67.4405C85.8338 66.4456 86.1271 65.7178 85.4987 64.1784C82.0586 55.722 87.9754 47.2814 97.4424 47.2971ZM97.0758 65.4089C100.924 65.4089 103.396 63.1155 103.396 59.5025C103.396 55.8896 100.998 53.6223 97.2905 53.5752C93.4158 53.5228 90.9129 55.7796 90.871 59.3769C90.8291 62.9741 93.2901 65.3879 97.0758 65.4089Z" fill="#285EA4"/>
<path d="M34.4486 62.6235H4.30936C3.72415 62.6684 3.13573 62.6474 2.55524 62.5606C0.984399 62.1941 0.0157084 61.1835 0 59.5394C0 57.8062 0.968681 56.759 2.64425 56.3977C3.2258 56.3225 3.81336 56.305 4.39836 56.3453H64.4832C65.0682 56.305 65.6557 56.3225 66.2373 56.3977C67.9128 56.7381 68.9025 57.7958 68.892 59.5394C68.892 61.1783 67.9129 62.1941 66.342 62.5606C65.7617 62.6491 65.1733 62.6719 64.5879 62.6287L34.4486 62.6235Z" fill="#285EA4"/>
<path d="M46.1868 37.5361C53.952 37.5361 61.7172 37.5361 69.4824 37.5361C70.9014 37.5361 72.0481 37.9446 72.7655 39.2169C73.0524 39.6963 73.193 40.2491 73.1697 40.8074C73.1464 41.3656 72.9604 41.9048 72.6346 42.3586C72.3086 42.8485 71.8576 43.2423 71.3282 43.4992C70.7988 43.7561 70.2103 43.8667 69.6238 43.8195C53.835 43.8195 38.0463 43.8195 22.2576 43.8195C20.1317 43.8195 18.7703 42.5157 18.7913 40.6778C18.8122 38.8399 20.1579 37.5833 22.3152 37.578C30.2689 37.5361 38.2069 37.5361 46.1868 37.5361Z" fill="#285EA4"/>
<path d="M45.8167 81.432H23.1076C22.5839 81.465 22.0583 81.4528 21.5367 81.3954C19.8559 81.0864 18.8715 80.0706 18.7877 78.3374C18.7549 77.5438 19.0359 76.7691 19.57 76.1811C20.1041 75.5931 20.8483 75.2391 21.6414 75.1957C22.8091 75.0963 23.9872 75.1643 25.1601 75.1643H69.0076C71.6257 75.1643 73.1285 76.2849 73.1599 78.2484C73.1913 80.212 71.6781 81.4215 69.0967 81.4268C66.1592 81.4268 63.2269 81.4268 60.2895 81.4268L45.8167 81.432Z" fill="#285EA4"/>
<path d="M57.583 25.0179C52.2386 25.0179 46.8908 25.0179 41.5394 25.0179C39.0575 25.0179 37.6437 23.8764 37.6175 21.9181C37.5914 19.9597 39.0156 18.7764 41.4714 18.7764C52.2927 18.7764 63.1141 18.7764 73.9355 18.7764C76.3127 18.7764 77.6008 19.8969 77.627 21.8709C77.6531 23.845 76.3179 25.0126 74.0088 25.0126C68.5161 25.0283 63.0338 25.0179 57.583 25.0179Z" fill="#285EA4"/>
<path d="M57.6541 100.233C52.24 100.233 46.831 100.233 41.4221 100.233C38.9663 100.233 37.5578 99.0236 37.5944 97.0391C37.6363 95.1384 39.0187 93.9707 41.3435 93.9707C52.1649 93.9707 62.9863 93.9707 73.8077 93.9707C76.2791 93.9707 77.6353 95.1331 77.5986 97.1595C77.562 99.1859 76.2477 100.223 73.8862 100.228C68.4825 100.244 63.0683 100.233 57.6541 100.233Z" fill="#285EA4"/>
<path d="M51.808 156.792V154.2H42.136V171H44.872V164.088H51.184V161.544H44.872V156.792H51.808ZM65.2362 158.04L64.9242 159.672C63.7482 158.448 62.0922 157.728 60.1722 157.728C56.3082 157.728 53.4282 160.632 53.4282 164.52C53.4282 168.408 56.3082 171.336 60.1722 171.336C62.0682 171.336 63.7002 170.616 64.8762 169.44L65.1402 171H67.2762V158.04H65.2362ZM60.3882 168.768C57.9402 168.768 56.1402 166.944 56.1402 164.52C56.1402 162.096 57.9402 160.272 60.3882 160.272C62.8362 160.272 64.6122 162.072 64.6122 164.52C64.6122 166.968 62.8362 168.768 60.3882 168.768ZM75.3951 171.336C78.5631 171.336 80.6511 169.704 80.6511 167.184C80.6511 163.992 77.9871 163.56 75.8031 163.2C74.2431 162.936 72.9231 162.72 72.9231 161.568C72.9231 160.632 73.8351 159.984 75.2991 159.984C76.8591 159.984 77.8191 160.656 77.8671 161.88H80.3871C80.3391 159.384 78.3711 157.728 75.3711 157.728C72.3471 157.728 70.3551 159.336 70.3551 161.664C70.3551 164.664 72.8991 165.144 75.0591 165.528C76.6431 165.792 78.0351 166.056 78.0351 167.304C78.0351 168.384 76.9311 168.984 75.4911 168.984C73.9311 168.984 72.7791 168.264 72.7071 166.896H70.1151C70.1871 169.584 72.2511 171.336 75.3951 171.336ZM89.1638 168.6C87.6038 168.6 86.7398 167.736 86.7398 166.176V160.344H90.5798V158.04H86.7158V155.016H86.2598L81.7478 159.816V160.344H84.0758V166.392C84.0758 169.248 85.8278 171 88.6598 171H90.6518V168.6H89.1638ZM105.419 164.568C105.419 160.8 102.779 157.728 98.7949 157.728C95.0029 157.728 92.1469 160.656 92.1469 164.52C92.1469 168.408 95.0029 171.336 98.7949 171.336C101.699 171.336 104.075 169.656 105.107 166.92H102.299C101.603 168.12 100.355 168.84 98.7949 168.84C96.6829 168.84 95.1709 167.544 94.8349 165.432H105.347C105.395 165.144 105.419 164.856 105.419 164.568ZM98.7949 160.152C100.787 160.152 102.251 161.304 102.731 163.272H94.9069C95.3389 161.352 96.8029 160.152 98.7949 160.152ZM114.464 157.968C112.688 157.968 111.416 158.592 110.48 159.816L110.048 158.04H108.248V171H110.912V164.112C110.912 161.76 111.992 160.488 114.2 160.488H115.616V157.968H114.464Z" fill="#285EA4"/>
<path d="M500.561 113.962C493.946 107.394 490.365 99.193 487.766 90.4603C487.487 89.522 487.247 89.4344 486.408 89.8754C481.86 92.2818 477.646 95.2722 473.872 98.7707C473.19 99.3963 473.269 99.709 473.904 100.266C475.74 101.953 477.672 103.533 479.69 104.998C480.519 105.592 480.897 106.337 480.528 107.313C480.093 108.46 478.795 108.686 477.597 107.829C474.295 105.472 471.245 102.78 468.496 99.7966C459.941 90.4978 454.827 79.5726 453.041 67.0741C452.891 66.0232 453.016 64.9285 452.525 63.9463V58.3164C453.264 57.4563 454.211 57.3249 455.3 57.3312C462.9 57.3687 470.504 57.3499 478.198 57.3499C478.067 56.8557 477.679 56.643 477.394 56.3803C472.997 52.3476 468.596 48.319 464.192 44.2947C461.221 41.561 460.776 37.5075 463.085 34.5142C465.703 31.1175 470.422 30.7609 473.7 33.7323C478.433 38.0361 483.155 42.3398 487.847 46.7062C488.673 47.4725 488.961 47.3317 489.489 46.4653C490.94 44.0789 492.479 41.7456 494.068 39.2715C492.652 39.1638 491.243 38.9717 489.849 38.696C480.653 36.5473 474.432 28.2337 474.764 18.5095C475.076 9.54225 482.214 1.61966 491.269 0.237189C501.484 -1.32669 510.939 4.98199 513.41 15.0533C513.57 15.7133 513.789 16.098 514.567 16.2231C515.947 16.4421 517.07 17.2522 518.074 18.1999C523.503 23.2293 528.952 28.2618 534.363 33.3225C534.954 33.8762 535.223 33.9262 535.767 33.2756C538.643 29.8372 541.553 26.4269 544.497 23.0448C544.991 22.4724 544.922 22.1877 544.366 21.7936C543.867 21.4173 543.389 21.0154 542.933 20.5895C538.867 16.9926 539.965 11.2594 545.085 9.42027C550.865 7.3497 556.658 5.33543 562.447 3.26173C564.111 2.66433 565.734 2.10133 567.555 2.58926C569.097 2.98826 570.434 3.95024 571.302 5.28576C572.171 6.62127 572.507 8.23352 572.246 9.80498C571.045 16.4733 569.838 23.1386 568.571 29.7913C567.633 34.6956 562.178 36.7036 558.25 33.6416C558.128 33.5446 558.012 33.4383 557.887 33.3444C557.183 32.8127 556.532 31.693 555.829 31.8212C555.125 31.9495 554.625 33.0473 554.033 33.7198C553.697 34.1489 553.334 34.5573 552.948 34.9427C552.207 35.5995 551.365 35.634 550.621 34.9865C549.877 34.3391 549.752 33.4476 550.361 32.6813C551.675 31.0362 553.039 29.4316 554.462 27.8834C555.181 27.1046 556.085 27.2234 556.877 27.8834C558.018 28.8217 559.125 29.8132 560.273 30.7515C562.281 32.3873 564.633 31.571 565.118 29.0281C566.369 22.4891 567.586 15.9437 568.768 9.39212C569.184 7.11825 567.204 5.34481 565.037 6.10172C558.65 8.31825 552.278 10.5807 545.92 12.8889C543.712 13.6896 543.302 16.1918 545.047 17.7807C546.142 18.7754 547.309 19.6949 548.416 20.677C549.451 21.5935 549.545 22.4786 548.663 23.5202C544.701 28.1889 540.73 32.8471 536.749 37.495C535.811 38.6022 534.873 38.5678 533.647 37.4387C527.752 31.9839 521.858 26.5249 515.966 21.0618C515.428 20.5613 514.927 20.0014 514.045 19.7575C513.795 21.2557 513.807 22.7601 513.42 24.2051C511.424 31.4782 506.837 36.2272 499.657 38.452C498.919 38.6526 498.287 39.1327 497.897 39.7907C495.635 43.3814 493.33 46.9439 491.034 50.5126C489.855 52.3455 488.992 52.4738 487.415 51.0287C482.073 46.1578 476.746 41.2858 471.433 36.4128C469.203 34.3766 466.047 35.1335 465.283 37.8828C464.852 39.4467 465.443 40.6978 466.6 41.7393C470.339 45.1548 474.085 48.5766 477.838 52.0046C479.537 53.5685 481.248 55.0948 482.921 56.6743C483.148 56.9075 483.422 57.09 483.725 57.2096C484.028 57.3293 484.353 57.3835 484.679 57.3687C487.806 57.328 490.919 57.3186 494.04 57.3687C494.396 57.407 494.754 57.3381 495.07 57.1709C495.386 57.0037 495.645 56.7458 495.813 56.4304C501.191 47.9917 506.588 39.5666 512.003 31.155C513.238 29.2314 514.114 29.122 515.787 30.6765C521.449 35.9248 527.112 41.1732 532.777 46.4216C535.02 48.4953 536.968 48.3639 538.97 46.0212C541.168 43.4418 543.367 40.8594 545.567 38.2738C545.951 37.8202 546.345 37.3855 546.968 37.2979C547.317 37.2334 547.677 37.2824 547.997 37.4378C548.316 37.5931 548.577 37.8466 548.741 38.1612C549.198 38.94 549.007 39.6594 548.454 40.3131C546.408 42.7173 544.36 45.1214 542.311 47.5256L541.4 48.5922C538.429 52.0327 534 52.3268 530.669 49.2522C526.399 45.3112 522.135 41.3629 517.877 37.4074C516.938 36.5347 515.953 35.6965 515.062 34.7738C514.47 34.1483 514.198 34.2046 513.735 34.9365C510.067 40.7228 506.351 46.481 502.651 52.2454C501.603 53.8781 500.561 55.5108 499.523 57.1591C499.958 57.5188 500.399 57.353 500.796 57.353C523.733 57.3655 546.67 57.3655 569.606 57.353C572.012 57.353 572.421 57.7503 572.39 60.1023C572.156 87.8705 551.747 112.448 524.476 117.791C510.689 120.491 497.522 118.669 484.976 112.326C484.873 112.273 484.772 112.214 484.663 112.157C483.256 111.424 482.832 110.535 483.393 109.493C483.931 108.498 484.882 108.329 486.224 109.023C488.255 110.091 490.35 111.031 492.498 111.838C495.091 112.777 497.709 113.668 500.443 114.128C500.552 114.219 500.668 114.272 500.79 114.147L500.561 113.962ZM489.799 84.3799C490.062 84.2986 490.287 84.2454 490.503 84.1641C505.055 78.6301 519.613 78.6134 534.175 84.1141C535.092 84.4612 535.192 84.1141 535.336 83.426C536.838 76.2934 537.665 69.0352 537.807 61.7475C537.807 61.0156 537.641 60.8467 536.925 60.8499C520.591 60.8686 504.258 60.8686 487.925 60.8499C487.156 60.8499 487.059 61.1001 487.075 61.7882C487.146 64.9848 487.322 68.1751 487.653 71.356C488.075 75.7405 488.792 80.0917 489.799 84.3799ZM512.462 83.5605C505.319 83.5277 498.236 84.8699 491.6 87.5139C490.797 87.8267 490.684 88.1395 490.922 88.9152C491.946 92.4642 493.227 95.9337 494.756 99.2962C496.986 104.05 499.623 108.539 503.727 111.964C507.277 114.922 511.258 116.342 515.869 114.935C519.472 113.843 522.171 111.438 524.473 108.573C529.243 102.63 531.951 95.7149 534.056 88.4992C534.279 87.7423 533.822 87.7423 533.431 87.5796C526.769 84.8893 519.647 83.5241 512.462 83.5605ZM554.224 97.0098C554.377 96.8221 554.499 96.672 554.625 96.525C563.382 86.5694 568.043 74.9435 568.812 61.7381C568.868 60.7685 568.393 60.8749 567.789 60.8749C559.404 60.8749 551.018 60.903 542.633 60.853C541.566 60.853 541.275 61.1314 541.263 62.1854C541.166 69.1653 540.414 76.1207 539.017 82.9599C538.826 83.8982 538.266 84.9805 538.532 85.7749C538.798 86.5694 540.096 86.7758 540.938 87.2324C545.785 89.8738 550.255 93.1573 554.224 96.9942V97.0098ZM469.8 60.8655C465.512 60.8655 461.224 60.8843 456.932 60.8467C456.194 60.8467 456.016 61.0407 456.072 61.7632C456.261 64.6825 456.636 67.5867 457.195 70.4583C459.161 80.0813 463.617 89.0199 470.119 96.3811C470.544 96.8659 470.773 96.9285 471.264 96.4562C475.574 92.3255 480.497 88.8861 485.858 86.2597C486.371 86.0064 486.508 85.7468 486.377 85.1775C484.622 77.5846 483.69 69.8247 483.596 62.0322C483.596 61.1595 483.384 60.8467 482.433 60.8624C478.226 60.8968 474.013 60.8655 469.8 60.8655ZM510.461 19.6074C510.467 16.4229 509.529 13.3082 507.765 10.6567C506.002 8.00531 503.491 5.93624 500.552 4.71105C497.613 3.48587 494.376 3.15956 491.252 3.77339C488.127 4.38721 485.254 5.91362 482.997 8.15965C480.74 10.4057 479.199 13.2705 478.569 16.3921C477.939 19.5137 478.249 22.7518 479.46 25.6973C480.67 28.6427 482.726 31.1632 485.369 32.9402C488.011 34.7172 491.121 35.671 494.306 35.6809C496.423 35.6895 498.521 35.2803 500.48 34.4767C502.439 33.673 504.221 32.4908 505.722 30.9976C507.223 29.5045 508.415 27.7298 509.229 25.7753C510.043 23.8207 510.464 21.7247 510.467 19.6074H510.461ZM524.038 114.169C524.167 114.212 524.207 114.241 524.242 114.234C534.579 112.026 543.552 107.234 551.253 100.009C551.797 99.4963 551.522 99.2868 551.15 98.9365C547.477 95.4421 543.339 92.471 538.854 90.1068C537.456 89.3718 537.469 89.3843 536.978 90.9138C534.322 99.5464 530.794 107.697 524.045 114.169H524.038Z" fill="#285EA4"/>
<path d="M497.477 23.5836C497.477 22.3168 496.758 21.5693 495.65 21.1502C494.111 20.6105 492.611 19.9635 491.162 19.2141C489.213 18.1413 488.15 16.5493 488.278 14.2817C488.413 11.939 489.529 10.2156 491.675 9.24598C492.301 8.96135 492.532 8.67047 492.535 7.99488C492.517 7.53864 492.681 7.094 492.991 6.75877C493.301 6.42355 493.732 6.2252 494.188 6.20737C494.644 6.18954 495.089 6.35367 495.424 6.66367C495.76 6.97367 495.958 7.40414 495.976 7.86038C495.976 8.74553 496.385 8.97699 497.08 9.1584C497.717 9.3521 498.309 9.67111 498.822 10.0967C499.682 10.7536 499.895 11.7482 499.363 12.552C499.24 12.7513 499.076 12.9226 498.883 13.0549C498.69 13.1873 498.471 13.2777 498.241 13.3204C498.01 13.3631 497.773 13.3572 497.546 13.3029C497.318 13.2487 497.104 13.1474 496.917 13.0055C496.052 12.3912 494.99 12.1213 493.936 12.2486C492.823 12.3956 492.075 12.9524 491.838 14.1096C491.6 15.2669 492.2 15.8737 493.136 16.2991C494.305 16.8151 495.475 17.3375 496.667 17.8035C499.372 18.8607 500.921 20.8061 500.996 23.3115C501.051 24.6613 500.699 25.9965 499.987 27.1446C499.275 28.2926 498.235 29.2007 497.002 29.7515C496.307 30.0455 495.973 30.3083 495.998 31.1402C496.016 31.3762 495.986 31.6134 495.91 31.8374C495.833 32.0614 495.712 32.2674 495.553 32.443C495.395 32.6186 495.202 32.7601 494.987 32.8588C494.772 32.9574 494.539 33.0112 494.302 33.0169C493.308 33.0482 492.557 32.3069 492.545 31.1246C492.545 30.4803 492.335 30.2707 491.719 30.1863C490.604 29.9814 489.55 29.5305 488.632 28.8664C487.715 28.2408 487.474 27.3025 487.981 26.4423C488.093 26.2339 488.248 26.0517 488.436 25.9081C488.624 25.7645 488.84 25.6627 489.071 25.6097C489.301 25.5567 489.54 25.5536 489.772 25.6006C490.004 25.6477 490.223 25.7438 490.415 25.8825C491.669 26.6896 493.173 27.0172 494.65 26.8052C495.439 26.7207 496.168 26.3425 496.692 25.7458C497.215 25.1491 497.496 24.3773 497.477 23.5836Z" fill="#285EA4"/>
<path d="M428.677 171L425.965 154.2H423.205L418.069 165.624L412.957 154.2H410.245L407.485 171H410.293L412.261 158.832L417.733 170.76H418.429L423.901 158.832L425.845 171H428.677ZM437.39 171.336C441.35 171.336 444.302 168.432 444.302 164.52C444.302 160.632 441.35 157.728 437.39 157.728C433.406 157.728 430.454 160.608 430.454 164.52C430.454 168.432 433.406 171.336 437.39 171.336ZM437.39 168.792C434.918 168.792 433.166 167.016 433.166 164.52C433.166 162.048 434.918 160.272 437.39 160.272C439.838 160.272 441.59 162.048 441.59 164.52C441.59 167.016 439.838 168.792 437.39 168.792ZM453.38 157.968C451.604 157.968 450.332 158.592 449.396 159.816L448.964 158.04H447.164V171H449.828V164.112C449.828 161.76 450.908 160.488 453.116 160.488H454.532V157.968H453.38ZM468.569 164.568C468.569 160.8 465.929 157.728 461.945 157.728C458.153 157.728 455.297 160.656 455.297 164.52C455.297 168.408 458.153 171.336 461.945 171.336C464.849 171.336 467.225 169.656 468.257 166.92H465.449C464.753 168.12 463.505 168.84 461.945 168.84C459.833 168.84 458.321 167.544 457.985 165.432H468.497C468.545 165.144 468.569 164.856 468.569 164.568ZM461.945 160.152C463.937 160.152 465.401 161.304 465.881 163.272H458.057C458.489 161.352 459.953 160.152 461.945 160.152ZM480.421 168.408V163.704H486.805V161.184H480.421V156.792H487.429V154.2H477.685V171H487.693V168.408H480.421ZM496.378 171.336C499.57 171.336 502.138 169.32 502.834 166.296H500.146C499.45 167.88 498.082 168.792 496.378 168.792C494.074 168.792 492.298 166.92 492.298 164.52C492.298 162.12 494.05 160.272 496.378 160.272C498.058 160.272 499.498 161.184 500.17 162.672H502.81C502.09 159.696 499.594 157.728 496.378 157.728C492.514 157.728 489.586 160.656 489.586 164.52C489.586 168.384 492.514 171.336 496.378 171.336ZM511.452 171.336C515.412 171.336 518.364 168.432 518.364 164.52C518.364 160.632 515.412 157.728 511.452 157.728C507.468 157.728 504.516 160.608 504.516 164.52C504.516 168.432 507.468 171.336 511.452 171.336ZM511.452 168.792C508.98 168.792 507.228 167.016 507.228 164.52C507.228 162.048 508.98 160.272 511.452 160.272C513.9 160.272 515.652 162.048 515.652 164.52C515.652 167.016 513.9 168.792 511.452 168.792ZM528.066 157.752C526.17 157.752 524.562 158.544 523.602 159.864L523.074 158.04H521.226V171H523.89V164.064C523.89 161.784 525.33 160.152 527.37 160.152C529.314 160.152 530.346 161.4 530.346 163.752V171H533.01V163.2C533.01 160.008 531.114 157.752 528.066 157.752ZM542.601 171.336C546.561 171.336 549.513 168.432 549.513 164.52C549.513 160.632 546.561 157.728 542.601 157.728C538.617 157.728 535.665 160.608 535.665 164.52C535.665 168.432 538.617 171.336 542.601 171.336ZM542.601 168.792C540.129 168.792 538.377 167.016 538.377 164.52C538.377 162.048 540.129 160.272 542.601 160.272C545.049 160.272 546.801 162.048 546.801 164.52C546.801 167.016 545.049 168.792 542.601 168.792ZM566.847 157.752C565.143 157.752 563.559 158.64 562.623 160.032C561.879 158.616 560.487 157.752 558.735 157.752C557.175 157.752 555.687 158.52 554.703 159.72L554.247 158.04H552.375V171H555.039V163.92C555.039 161.712 556.359 160.152 558.087 160.152C559.695 160.152 560.607 161.328 560.607 163.416V171H563.199V163.92C563.199 161.712 564.519 160.152 566.247 160.152C567.855 160.152 568.767 161.328 568.767 163.416V171H571.431V162.768C571.431 159.84 569.583 157.752 566.847 157.752ZM575.014 156.048H577.75V153.288H575.014V156.048ZM575.062 171H577.726V158.04H575.062V171ZM587.339 171.336C590.531 171.336 593.099 169.32 593.795 166.296H591.107C590.411 167.88 589.043 168.792 587.339 168.792C585.035 168.792 583.259 166.92 583.259 164.52C583.259 162.12 585.011 160.272 587.339 160.272C589.019 160.272 590.459 161.184 591.131 162.672H593.771C593.051 159.696 590.555 157.728 587.339 157.728C583.475 157.728 580.547 160.656 580.547 164.52C580.547 168.384 583.475 171.336 587.339 171.336ZM607.285 158.04L606.973 159.672C605.797 158.448 604.141 157.728 602.221 157.728C598.357 157.728 595.477 160.632 595.477 164.52C595.477 168.408 598.357 171.336 602.221 171.336C604.117 171.336 605.749 170.616 606.925 169.44L607.189 171H609.325V158.04H607.285ZM602.437 168.768C599.989 168.768 598.189 166.944 598.189 164.52C598.189 162.096 599.989 160.272 602.437 160.272C604.885 160.272 606.661 162.072 606.661 164.52C606.661 166.968 604.885 168.768 602.437 168.768ZM613.148 171H615.812V153.408H613.148V171Z" fill="#285EA4"/>
<path d="M919.948 0C934.687 8.7336 950.493 15.5259 966.973 20.2083C969.639 20.9639 969.97 21.4115 969.964 24.19C969.95 33.1331 970.104 42.0819 969.874 51.0191C969.397 69.6957 962.849 85.9832 950.11 99.7102C943.716 106.578 936.381 112.164 927.932 116.262C925.572 117.407 923.159 118.442 920.526 118.82C920.482 118.82 920.453 118.939 920.419 119H917.628C916.091 118.448 914.53 117.951 913.022 117.332C906.337 114.594 900.402 110.63 894.929 105.979C887.082 99.312 880.761 91.424 876.186 82.1671C872.674 75.0566 870.339 67.4228 869.274 59.5639C868.735 55.3787 868.486 51.1611 868.53 46.9414C868.53 39.2782 868.53 31.612 868.53 23.943C868.53 21.4987 868.949 20.9087 871.312 20.2548C887.583 15.7294 903.188 9.0846 917.727 0.491184C917.948 0.360395 918.259 0.334237 918.323 0.00871887L919.948 0ZM964.997 40.4776C964.997 35.2751 964.962 30.6655 965.023 26.0589C965.023 25.0939 964.733 24.7539 963.837 24.4952C948.629 20.0579 934.001 13.8335 920.259 5.95232C919.468 5.49892 918.93 5.55414 918.175 5.9901C910.98 10.1333 903.533 13.822 895.877 17.0345C888.856 19.9614 881.675 22.4901 874.369 24.6086C873.875 24.7539 873.454 24.8178 873.465 25.5386C873.652 35.6006 873.064 45.6771 873.89 55.7275C874.609 64.3001 876.978 72.653 880.865 80.3273C885.155 88.8983 891.09 96.1702 898.365 102.343C903.486 106.703 909.086 110.31 915.315 112.923C917.785 113.957 920.198 114.295 922.7 113.109C923.778 112.597 924.909 112.187 925.976 111.655C939.054 105.052 949.244 95.4087 956.411 82.6321C961.088 74.2994 963.73 65.3128 964.613 55.7943C965.105 50.4901 964.965 45.1859 965.006 40.4776H964.997Z" fill="#285EA4"/>
<path d="M911.273 83.0274C908.89 83.0565 906.934 82.1555 905.306 80.5279C900.473 75.7207 895.613 70.9368 890.856 66.0598C886.156 61.2381 888.266 53.7308 894.713 52.234C897.703 51.5394 900.281 52.4956 902.435 54.6434C905.12 57.3232 907.826 59.9854 910.468 62.7087C911.084 63.3452 911.378 63.29 911.971 62.6913C919.915 54.7006 927.879 46.7274 935.864 38.7716C938.817 35.8216 942.506 35.1298 945.796 36.8766C950.844 39.5563 951.696 45.8864 947.539 50.1124C943.383 54.3383 939.111 58.5555 934.897 62.7727C929.084 68.5855 923.28 74.3925 917.484 80.1937C915.743 81.9346 913.749 83.0565 911.273 83.0274ZM911.073 78.0604C912.253 78.0953 913.107 77.4791 913.895 76.6886C923.854 66.7099 933.82 56.739 943.793 46.7758C944.047 46.5377 944.285 46.2834 944.505 46.0143C944.831 45.6146 945.052 45.1397 945.148 44.6327C945.244 44.1257 945.211 43.6029 945.053 43.1118C944.895 42.6206 944.617 42.1769 944.243 41.8208C943.87 41.4648 943.413 41.2079 942.915 41.0734C941.448 40.6346 940.39 41.3088 939.404 42.2912C930.784 50.9232 922.162 59.5456 913.537 68.1582C911.825 69.8672 910.631 69.8614 908.887 68.1437C905.545 64.8043 902.202 61.459 898.854 58.1311C897.383 56.6779 895.506 56.6198 894.204 57.9306C892.902 59.2414 892.969 61.087 894.367 62.4937C899.172 67.3377 903.989 72.1604 908.817 76.9618C909.407 77.595 910.211 77.9866 911.073 78.0604Z" fill="#285EA4"/>
<path d="M878.389 35.1757C878.389 33.7458 878.375 32.3129 878.389 30.883C878.412 29.1653 878.938 28.4125 880.549 27.8748C884.865 26.4391 889.157 24.9422 893.407 23.3176C895.592 22.4834 897.496 23.8611 897.147 25.9333C896.941 27.1656 896.025 27.7091 894.967 28.0899C891.448 29.3484 887.937 30.6272 884.4 31.8421C883.667 32.0949 883.385 32.3972 883.408 33.2081C883.478 35.4111 883.452 37.6171 883.423 39.8231C883.409 40.8926 882.993 41.7878 881.97 42.2674C881.552 42.4803 881.08 42.5638 880.614 42.5074C880.148 42.451 879.709 42.2571 879.354 41.9505C878.578 41.3518 878.398 40.4973 878.383 39.5789C878.375 38.117 878.392 36.6464 878.389 35.1757Z" fill="#285EA4"/>
<path d="M947.74 80.3713C949.774 80.3916 950.861 82.49 949.684 84.3036C948.568 86.0184 947.359 87.6751 946.077 89.2794C942.72 93.517 938.811 97.1994 934.574 100.553C933.24 101.608 931.778 101.544 930.856 100.411C929.935 99.2775 930.109 97.8388 931.38 96.7169C932.859 95.409 934.408 94.1825 935.87 92.8601C939.425 89.6263 942.573 85.9723 945.246 81.9785C946.115 80.6881 946.664 80.3625 947.74 80.3713Z" fill="#285EA4"/>
<path d="M926.742 100.427C927.382 100.449 927.99 100.715 928.441 101.17C928.892 101.625 929.152 102.234 929.169 102.875C929.138 103.572 928.842 104.231 928.341 104.717C927.84 105.203 927.173 105.48 926.475 105.49C926.147 105.481 925.824 105.406 925.526 105.27C925.227 105.134 924.959 104.94 924.737 104.699C924.515 104.457 924.343 104.174 924.232 103.865C924.121 103.556 924.074 103.228 924.092 102.901C924.123 102.224 924.417 101.586 924.913 101.124C925.408 100.662 926.065 100.412 926.742 100.427Z" fill="#285EA4"/>
<path d="M893.893 171.264C897.301 171.264 900.013 169.488 900.013 166.128C900.013 162.504 896.941 161.76 894.325 161.112C892.333 160.632 890.605 160.224 890.605 158.664C890.605 157.296 891.973 156.528 893.653 156.528C895.405 156.528 896.797 157.44 896.797 159.12H899.533C899.533 155.952 897.373 153.96 893.725 153.96C890.149 153.96 887.845 155.76 887.845 158.784C887.845 162.24 890.797 162.96 893.365 163.584C895.381 164.064 897.181 164.472 897.181 166.152C897.181 167.688 895.669 168.648 893.869 168.648C891.901 168.648 890.365 167.592 890.365 165.72H887.557C887.557 169.152 890.125 171.264 893.893 171.264ZM913.824 158.04L913.512 159.672C912.336 158.448 910.68 157.728 908.76 157.728C904.896 157.728 902.016 160.632 902.016 164.52C902.016 168.408 904.896 171.336 908.76 171.336C910.656 171.336 912.288 170.616 913.464 169.44L913.728 171H915.864V158.04H913.824ZM908.976 168.768C906.528 168.768 904.728 166.944 904.728 164.52C904.728 162.096 906.528 160.272 908.976 160.272C911.424 160.272 913.2 162.072 913.2 164.52C913.2 166.968 911.424 168.768 908.976 168.768ZM927.031 158.184H923.287V157.128C923.287 155.688 923.911 155.088 925.351 155.088H927.007V152.976H924.847C922.015 152.976 920.695 154.44 920.695 157.08V158.184H918.271V160.392H920.695V171.024H923.359V160.392H927.031V158.184ZM941.257 164.568C941.257 160.8 938.617 157.728 934.633 157.728C930.841 157.728 927.985 160.656 927.985 164.52C927.985 168.408 930.841 171.336 934.633 171.336C937.537 171.336 939.913 169.656 940.945 166.92H938.137C937.441 168.12 936.193 168.84 934.633 168.84C932.521 168.84 931.009 167.544 930.673 165.432H941.185C941.233 165.144 941.257 164.856 941.257 164.568ZM934.633 160.152C936.625 160.152 938.089 161.304 938.569 163.272H930.745C931.177 161.352 932.641 160.152 934.633 160.152ZM950.301 157.968C948.525 157.968 947.253 158.592 946.317 159.816L945.885 158.04H944.085V171H946.749V164.112C946.749 161.76 947.829 160.488 950.037 160.488H951.453V157.968H950.301Z" fill="#285EA4"/>
</svg>
