<svg width="420" height="121" viewBox="0 0 420 121" fill="none" xmlns="http://www.w3.org/2000/svg">
<path d="M11.7495 27.2654C16.4535 27.2654 20.1775 24.2974 21.2135 19.6774H17.9375C17.0415 22.4494 14.7455 24.1574 11.7495 24.1574C7.8295 24.1574 4.9455 21.2174 4.9455 17.1294C4.9455 13.0414 7.8295 10.0734 11.7495 10.0734C14.6335 10.0734 16.9295 11.6694 17.8815 14.2734H21.1295C20.0935 9.84937 16.3695 6.96537 11.7495 6.96537C5.9535 6.96537 1.6695 11.2494 1.6695 17.1294C1.6695 22.9814 5.9535 27.2654 11.7495 27.2654ZM36.9891 11.7814L36.6251 13.6854C35.2531 12.2574 33.3211 11.4174 31.0811 11.4174C26.5731 11.4174 23.2131 14.8054 23.2131 19.3414C23.2131 23.8774 26.5731 27.2934 31.0811 27.2934C33.2931 27.2934 35.1971 26.4534 36.5691 25.0814L36.8771 26.9014H39.3691V11.7814H36.9891ZM31.3331 24.2974C28.4771 24.2974 26.3771 22.1694 26.3771 19.3414C26.3771 16.5134 28.4771 14.3854 31.3331 14.3854C34.1891 14.3854 36.2611 16.4854 36.2611 19.3414C36.2611 22.1974 34.1891 24.2974 31.3331 24.2974ZM60.7132 11.4454C58.7252 11.4454 56.8772 12.4814 55.7852 14.1054C54.9172 12.4534 53.2932 11.4454 51.2492 11.4454C49.4292 11.4454 47.6932 12.3414 46.5452 13.7414L46.0132 11.7814H43.8292V26.9014H46.9372V18.6414C46.9372 16.0654 48.4772 14.2454 50.4932 14.2454C52.3692 14.2454 53.4332 15.6174 53.4332 18.0534V26.9014H56.4572V18.6414C56.4572 16.0654 57.9972 14.2454 60.0132 14.2454C61.8892 14.2454 62.9532 15.6174 62.9532 18.0534V26.9014H66.0612V17.2974C66.0612 13.8814 63.9052 11.4454 60.7132 11.4454ZM78.4179 11.4174C76.2339 11.4174 74.3299 12.2574 72.9579 13.6574L72.3699 11.7814H70.2979V32.3334H73.4059V25.4734C74.7219 26.6214 76.4579 27.2934 78.4179 27.2934C82.9259 27.2934 86.2579 23.8774 86.2579 19.3414C86.2579 14.8054 82.9259 11.4174 78.4179 11.4174ZM78.1659 24.3254C75.3099 24.3254 73.2099 22.1974 73.2099 19.3414C73.2099 16.5134 75.3099 14.3854 78.1659 14.3854C81.0219 14.3854 83.0939 16.5134 83.0939 19.3414C83.0939 22.1974 81.0219 24.3254 78.1659 24.3254ZM102.259 11.7814L101.895 13.6854C100.523 12.2574 98.5906 11.4174 96.3506 11.4174C91.8426 11.4174 88.4826 14.8054 88.4826 19.3414C88.4826 23.8774 91.8426 27.2934 96.3506 27.2934C98.5626 27.2934 100.467 26.4534 101.839 25.0814L102.147 26.9014H104.639V11.7814H102.259ZM96.6026 24.2974C93.7466 24.2974 91.6466 22.1694 91.6466 19.3414C91.6466 16.5134 93.7466 14.3854 96.6026 14.3854C99.4586 14.3854 101.531 16.4854 101.531 19.3414C101.531 22.1974 99.4586 24.2974 96.6026 24.2974ZM109.043 9.45737H112.235V6.23737H109.043V9.45737ZM109.099 26.9014H112.207V11.7814H109.099V26.9014ZM124.598 11.4454C122.386 11.4454 120.51 12.3694 119.39 13.9094L118.774 11.7814H116.618V26.9014H119.726V18.8094C119.726 16.1494 121.406 14.2454 123.786 14.2454C126.054 14.2454 127.258 15.7014 127.258 18.4454V26.9014H130.366V17.8014C130.366 14.0774 128.154 11.4454 124.598 11.4454ZM153.976 7.30137L148.348 22.3094L142.58 7.30137H139.024L146.836 26.9014H149.86L157.476 7.30137H153.976ZM171.274 11.7814L170.91 13.6854C169.538 12.2574 167.606 11.4174 165.366 11.4174C160.858 11.4174 157.498 14.8054 157.498 19.3414C157.498 23.8774 160.858 27.2934 165.366 27.2934C167.578 27.2934 169.482 26.4534 170.854 25.0814L171.162 26.9014H173.654V11.7814H171.274ZM165.618 24.2974C162.762 24.2974 160.662 22.1694 160.662 19.3414C160.662 16.5134 162.762 14.3854 165.618 14.3854C168.474 14.3854 170.546 16.4854 170.546 19.3414C170.546 22.1974 168.474 24.2974 165.618 24.2974ZM178.114 26.9014H181.222V6.37737H178.114V26.9014ZM192.27 27.2934C196.442 27.2934 199.13 24.6054 199.13 20.5174V11.7814H196.022V20.0974C196.022 22.7014 194.622 24.3254 192.27 24.3254C189.918 24.3254 188.49 22.7294 188.49 20.0974V11.7814H185.382V20.5174C185.382 24.6054 188.098 27.2934 192.27 27.2934ZM217.689 19.3974C217.689 15.0014 214.609 11.4174 209.961 11.4174C205.537 11.4174 202.205 14.8334 202.205 19.3414C202.205 23.8774 205.537 27.2934 209.961 27.2934C213.349 27.2934 216.121 25.3334 217.325 22.1414H214.049C213.237 23.5414 211.781 24.3814 209.961 24.3814C207.497 24.3814 205.733 22.8694 205.341 20.4054H217.605C217.661 20.0694 217.689 19.7334 217.689 19.3974ZM209.961 14.2454C212.285 14.2454 213.993 15.5894 214.553 17.8854H205.425C205.929 15.6454 207.637 14.2454 209.961 14.2454ZM251.676 26.9014L248.512 7.30137H245.292L239.3 20.6294L233.336 7.30137H230.172L226.952 26.9014H230.228L232.524 12.7054L238.908 26.6214H239.72L246.104 12.7054L248.372 26.9014H251.676ZM267.524 11.7814L267.16 13.6854C265.788 12.2574 263.856 11.4174 261.616 11.4174C257.108 11.4174 253.748 14.8054 253.748 19.3414C253.748 23.8774 257.108 27.2934 261.616 27.2934C263.828 27.2934 265.732 26.4534 267.104 25.0814L267.412 26.9014H269.904V11.7814H267.524ZM261.868 24.2974C259.012 24.2974 256.912 22.1694 256.912 19.3414C256.912 16.5134 259.012 14.3854 261.868 14.3854C264.724 14.3854 266.796 16.4854 266.796 19.3414C266.796 22.1974 264.724 24.2974 261.868 24.2974ZM282.344 11.4454C280.132 11.4454 278.256 12.3694 277.136 13.9094L276.52 11.7814H274.364V26.9014H277.472V18.8094C277.472 16.1494 279.152 14.2454 281.532 14.2454C283.8 14.2454 285.004 15.7014 285.004 18.4454V26.9014H288.112V17.8014C288.112 14.0774 285.9 11.4454 282.344 11.4454ZM304.985 11.7814L304.621 13.6854C303.249 12.2574 301.317 11.4174 299.077 11.4174C294.569 11.4174 291.209 14.8054 291.209 19.3414C291.209 23.8774 294.569 27.2934 299.077 27.2934C301.289 27.2934 303.193 26.4534 304.565 25.0814L304.873 26.9014H307.365V11.7814H304.985ZM299.329 24.2974C296.473 24.2974 294.373 22.1694 294.373 19.3414C294.373 16.5134 296.473 14.3854 299.329 14.3854C302.185 14.3854 304.257 16.4854 304.257 19.3414C304.257 22.1974 302.185 24.2974 299.329 24.2974ZM324.173 11.7814L323.697 13.7414C322.325 12.3134 320.393 11.4174 318.181 11.4174C313.953 11.4174 310.705 14.7214 310.705 18.9494C310.705 23.2054 313.953 26.4814 318.181 26.4814C320.141 26.4814 321.877 25.8094 323.193 24.6614V25.3614C323.193 28.2174 321.261 29.9534 318.657 29.9534C316.753 29.9534 314.961 29.0294 314.373 27.3774H311.293C312.049 30.6814 314.793 32.6974 318.685 32.6974C323.361 32.6974 326.217 29.7574 326.217 24.9414V11.7814H324.173ZM318.517 23.5974C315.829 23.5974 313.869 21.6094 313.869 18.9494C313.869 16.3174 315.829 14.3294 318.517 14.3294C321.233 14.3294 323.165 16.2894 323.165 18.9494C323.165 21.6374 321.205 23.5974 318.517 23.5974ZM345.029 19.3974C345.029 15.0014 341.949 11.4174 337.301 11.4174C332.877 11.4174 329.545 14.8334 329.545 19.3414C329.545 23.8774 332.877 27.2934 337.301 27.2934C340.689 27.2934 343.461 25.3334 344.665 22.1414H341.389C340.577 23.5414 339.121 24.3814 337.301 24.3814C334.837 24.3814 333.073 22.8694 332.681 20.4054H344.945C345.001 20.0694 345.029 19.7334 345.029 19.3974ZM337.301 14.2454C339.625 14.2454 341.333 15.5894 341.893 17.8854H332.765C333.269 15.6454 334.977 14.2454 337.301 14.2454ZM365.213 11.4454C363.225 11.4454 361.377 12.4814 360.285 14.1054C359.417 12.4534 357.793 11.4454 355.749 11.4454C353.929 11.4454 352.193 12.3414 351.045 13.7414L350.513 11.7814H348.329V26.9014H351.437V18.6414C351.437 16.0654 352.977 14.2454 354.993 14.2454C356.869 14.2454 357.933 15.6174 357.933 18.0534V26.9014H360.957V18.6414C360.957 16.0654 362.497 14.2454 364.513 14.2454C366.389 14.2454 367.453 15.6174 367.453 18.0534V26.9014H370.561V17.2974C370.561 13.8814 368.405 11.4454 365.213 11.4454ZM389.162 19.3974C389.162 15.0014 386.082 11.4174 381.434 11.4174C377.01 11.4174 373.678 14.8334 373.678 19.3414C373.678 23.8774 377.01 27.2934 381.434 27.2934C384.822 27.2934 387.594 25.3334 388.798 22.1414H385.522C384.71 23.5414 383.254 24.3814 381.434 24.3814C378.97 24.3814 377.206 22.8694 376.814 20.4054H389.078C389.134 20.0694 389.162 19.7334 389.162 19.3974ZM381.434 14.2454C383.758 14.2454 385.466 15.5894 386.026 17.8854H376.898C377.402 15.6454 379.11 14.2454 381.434 14.2454ZM400.442 11.4454C398.23 11.4454 396.354 12.3694 395.234 13.9094L394.618 11.7814H392.462V26.9014H395.57V18.8094C395.57 16.1494 397.25 14.2454 399.63 14.2454C401.898 14.2454 403.102 15.7014 403.102 18.4454V26.9014H406.21V17.8014C406.21 14.0774 403.998 11.4454 400.442 11.4454ZM417.01 24.1014C415.19 24.1014 414.182 23.0934 414.182 21.2734V14.4694H418.662V11.7814H414.154V8.25337H413.622L408.358 13.8534V14.4694H411.074V21.5254C411.074 24.8574 413.118 26.9014 416.422 26.9014H418.746V24.1014H417.01Z" fill="#353535"/>
<path d="M225.189 72.9014H234.551C235.117 72.9019 235.663 73.1126 236.083 73.4927C236.503 73.8728 236.766 74.3951 236.823 74.9585L238.217 88.9014H233.618L232.475 77.4728H225.189V84.3299C225.189 84.9361 224.948 85.5175 224.519 85.9462C224.09 86.3748 223.509 86.6157 222.903 86.6157C222.297 86.6157 221.715 86.3748 221.287 85.9462C220.858 85.5175 220.617 84.9361 220.617 84.3299V77.4728H202.331V84.3299C202.331 84.9361 202.091 85.5175 201.662 85.9462C201.233 86.3748 200.652 86.6157 200.046 86.6157C199.44 86.6157 198.858 86.3748 198.43 85.9462C198.001 85.5175 197.76 84.9361 197.76 84.3299V77.4728H190.469L186.811 114.044H211.474V118.616H184.283C183.964 118.615 183.649 118.548 183.357 118.418C183.065 118.289 182.804 118.099 182.59 117.862C182.376 117.626 182.214 117.346 182.114 117.043C182.015 116.74 181.98 116.419 182.011 116.101L186.126 74.9585C186.182 74.3951 186.446 73.8728 186.866 73.4927C187.286 73.1126 187.831 72.9019 188.398 72.9014H197.76V71.3059C197.76 63.3791 203.867 56.9014 211.474 56.9014C219.081 56.9014 225.189 63.3791 225.189 71.3059V72.9059V72.9014ZM220.617 72.9014V71.3059C220.617 65.8477 216.494 61.4728 211.474 61.4728C206.455 61.4728 202.331 65.8477 202.331 71.3059V72.9059H220.617V72.9014ZM235.003 107.461L229.76 102.223V118.616C229.76 119.222 229.519 119.803 229.091 120.232C228.662 120.661 228.081 120.901 227.474 120.901C226.868 120.901 226.287 120.661 225.858 120.232C225.429 119.803 225.189 119.222 225.189 118.616V102.223L219.95 107.461C219.739 107.68 219.487 107.854 219.208 107.974C218.929 108.093 218.629 108.156 218.326 108.159C218.022 108.162 217.721 108.104 217.44 107.989C217.159 107.874 216.904 107.704 216.689 107.49C216.475 107.275 216.305 107.02 216.19 106.739C216.075 106.458 216.017 106.157 216.02 105.854C216.023 105.55 216.086 105.25 216.206 104.971C216.325 104.692 216.499 104.44 216.718 104.229L225.861 95.0865C226.289 94.658 226.871 94.4173 227.477 94.4173C228.083 94.4173 228.664 94.658 229.093 95.0865L238.235 104.229C238.454 104.44 238.628 104.692 238.748 104.971C238.867 105.25 238.931 105.55 238.933 105.854C238.936 106.157 238.878 106.458 238.763 106.739C238.648 107.02 238.478 107.275 238.264 107.49C238.049 107.704 237.794 107.874 237.513 107.989C237.232 108.104 236.931 108.162 236.628 108.159C236.324 108.156 236.024 108.093 235.745 107.974C235.467 107.854 235.214 107.68 235.003 107.461Z" fill="#00B18A"/>
</svg>
