<svg width="80" height="65" viewBox="0 0 80 65" fill="none" xmlns="http://www.w3.org/2000/svg">
<path d="M36.6662 17.7451C32.022 17.7447 27.482 19.1215 23.6203 21.7014C19.7587 24.2812 16.7488 27.9483 14.9713 32.2388C13.1939 36.5293 12.7287 41.2505 13.6347 45.8054C14.5406 50.3602 16.777 54.5442 20.0609 57.828C23.3449 61.1119 27.5289 63.3482 32.0839 64.2541C36.6388 65.16 41.3602 64.6949 45.6508 62.9175C49.9414 61.1401 53.6085 58.1303 56.1884 54.2687C58.7684 50.4071 60.1452 45.8672 60.1448 41.2231C60.1448 34.9964 57.6712 29.0247 53.2681 24.6217C48.865 20.2187 42.8931 17.7451 36.6662 17.7451ZM36.6662 59.1967C33.1113 59.1967 29.6362 58.1426 26.6804 56.1676C23.7246 54.1926 21.4208 51.3856 20.0604 48.1013C18.7 44.8171 18.3441 41.2032 19.0376 37.7167C19.7311 34.2301 21.443 31.0276 23.9567 28.5139C26.4704 26.0003 29.673 24.2885 33.1597 23.5949C36.6463 22.9014 40.2602 23.2574 43.5446 24.6177C46.8289 25.9781 49.636 28.2818 51.611 31.2376C53.586 34.1933 54.6402 37.6683 54.6402 41.2231C54.6402 43.5835 54.1753 45.9207 53.272 48.1013C52.3687 50.282 51.0448 52.2634 49.3757 53.9324C47.7067 55.6014 45.7253 56.9253 43.5446 57.8285C41.3638 58.7318 39.0266 59.1967 36.6662 59.1967Z" fill="#F35181"/>
<path d="M46.5681 19.9355C46.8245 21.3352 46.9544 22.755 46.9561 24.1779C46.9561 24.932 46.9181 25.678 46.8481 26.4161C49.1795 28.0201 51.0993 30.1518 52.4511 32.6379C53.8029 35.124 54.5486 37.8941 54.6275 40.7229C54.7063 43.5516 54.1161 46.359 52.9049 48.9165C51.6937 51.4741 49.8957 53.7095 47.6572 55.4408C45.4187 57.1721 42.8031 58.3505 40.0232 58.8799C37.2432 59.4093 34.3776 59.2749 31.6594 58.4875C28.9412 57.7002 26.4474 56.2821 24.3809 54.3488C22.3144 52.4155 20.7335 50.0216 19.7671 47.3619C17.622 47.0218 15.5349 46.3835 13.5664 45.4657C14.295 49.4269 16.0304 53.134 18.6057 56.2306C21.1811 59.3273 24.5098 61.7094 28.2718 63.1479C32.0338 64.5865 36.1026 65.0331 40.0871 64.4448C44.0716 63.8565 47.8377 62.2531 51.0234 59.7887C54.2092 57.3244 56.7074 54.082 58.2779 50.3732C59.8483 46.6644 60.4383 42.614 59.991 38.6113C59.5438 34.6086 58.0743 30.7883 55.7239 27.5177C53.3735 24.247 50.2212 21.6359 46.5701 19.9355H46.5681Z" fill="#00B18A"/>
<path d="M18.6916 41.223C18.6913 38.455 19.3304 35.7244 20.5592 33.2441C21.788 30.7638 23.5731 28.6008 25.7755 26.924C27.9778 25.2472 30.5378 24.1018 33.2556 23.5772C35.9735 23.0525 38.7759 23.1628 41.4441 23.8995C41.4164 21.9007 41.0547 19.9206 40.374 18.041C37.2064 17.5351 33.9687 17.6834 30.8606 18.4769C27.7525 19.2704 24.84 20.6922 22.3025 22.6545C19.7651 24.6169 17.6566 27.0783 16.107 29.887C14.5575 32.6956 13.5998 35.7918 13.293 38.9848C14.9397 40.1203 16.7652 40.9715 18.6936 41.503C18.6976 41.409 18.6916 41.317 18.6916 41.223Z" fill="#00B18A"/>
<path d="M18.6979 41.5006C16.7696 40.9691 14.9442 40.1179 13.2975 38.9824C13.2295 39.7205 13.1895 40.4666 13.1895 41.2206C13.1909 42.6436 13.3214 44.0636 13.5795 45.463C15.5479 46.3808 17.6349 47.019 19.78 47.3591C19.0952 45.4803 18.7295 43.5001 18.6979 41.5006Z" fill="url(#paint0_linear_853_167)"/>
<path d="M41.4438 23.8995C41.4438 23.9935 41.4438 24.0855 41.4438 24.1795C41.4417 28.6735 39.7552 33.0035 36.7173 36.3152C33.6794 39.6269 29.5105 41.6798 25.0333 42.0689C20.556 42.458 16.0956 41.155 12.5319 38.417C8.96818 35.6789 6.56008 31.7048 5.78269 27.2785C5.0053 22.8522 5.91507 18.2954 8.33252 14.5069C10.75 10.7185 14.4995 7.9736 18.8414 6.81383C23.1833 5.65407 27.8022 6.16365 31.7868 8.24204C35.7714 10.3204 38.8323 13.8167 40.3657 18.041C42.5109 18.381 44.598 19.0193 46.5664 19.9372C45.4917 14.0903 42.2387 8.86885 37.4641 5.32688C32.6895 1.78492 26.7489 0.186222 20.8415 0.853497C14.9341 1.52077 9.49982 4.40433 5.63566 8.92208C1.77151 13.4398 -0.234738 19.2553 0.0219045 25.1946C0.278547 31.1339 2.77897 36.7547 7.01842 40.9223C11.2579 45.0899 16.9206 47.4939 22.8636 47.6492C28.8065 47.8044 34.5871 45.6993 39.0383 41.7587C43.4896 37.8181 46.2801 32.3355 46.8464 26.4177C45.1991 25.2821 43.3729 24.4308 41.4438 23.8995Z" fill="#F35181"/>
<path d="M78.9345 40.8194C78.7602 39.3437 78.3805 37.8996 77.8064 36.529C77.4781 35.7437 77.0889 34.9853 76.6423 34.2608C74.5713 30.9164 71.3459 28.4473 67.5767 27.3212C63.8075 26.1951 59.7563 26.4901 56.19 28.1503C56.8726 29.2117 57.4743 30.3229 57.9902 31.4745C60.1504 30.5194 62.5399 30.2062 64.8733 30.5723C67.2068 30.9383 69.3855 31.9682 71.1495 33.5389C72.9135 35.1096 74.1882 37.1548 74.8213 39.4303C75.4544 41.7058 75.4192 44.1154 74.72 46.3714C74.0208 48.6275 72.687 50.6346 70.8779 52.1532C69.0689 53.6718 66.861 54.6377 64.5179 54.9355C62.1748 55.2333 59.7954 54.8505 57.664 53.8328C55.5325 52.8151 53.739 51.2054 52.4976 49.1961C49.6973 44.6797 50.4193 38.8892 53.5197 34.9408C52.9804 33.6925 52.3555 32.4828 51.6495 31.3205C49.7149 33.2418 48.3008 35.6236 47.5403 38.2418C46.7798 40.8601 46.6978 43.6288 47.3021 46.2875C47.9063 48.9461 49.177 51.4074 50.9945 53.4398C52.812 55.4721 55.1167 57.0088 57.6916 57.9051C60.2666 58.8015 63.0273 59.0281 65.714 58.5637C68.4007 58.0993 70.9251 56.9591 73.0498 55.2504C75.1744 53.5417 76.8295 51.3206 77.8593 48.7961C78.8891 46.2716 79.2598 43.5266 78.9365 40.8194H78.9345Z" fill="url(#paint1_linear_853_167)"/>
<g style="mix-blend-mode:screen">
<path d="M78.9345 40.8194C78.7602 39.3437 78.3805 37.8996 77.8064 36.529C77.4781 35.7437 77.0889 34.9853 76.6423 34.2608C74.5713 30.9164 71.3459 28.4473 67.5767 27.3212C63.8075 26.1951 59.7563 26.4901 56.19 28.1503C56.8726 29.2117 57.4743 30.3229 57.9902 31.4745C60.1504 30.5194 62.5399 30.2062 64.8733 30.5723C67.2068 30.9383 69.3855 31.9682 71.1495 33.5389C72.9135 35.1096 74.1882 37.1548 74.8213 39.4303C75.4544 41.7058 75.4192 44.1154 74.72 46.3714C74.0208 48.6275 72.687 50.6346 70.8779 52.1532C69.0689 53.6718 66.861 54.6377 64.5179 54.9355C62.1748 55.2333 59.7954 54.8505 57.664 53.8328C55.5325 52.8151 53.739 51.2054 52.4976 49.1961C49.6973 44.6797 50.4193 38.8892 53.5197 34.9408C52.9804 33.6925 52.3555 32.4828 51.6495 31.3205C49.7149 33.2418 48.3008 35.6236 47.5403 38.2418C46.7798 40.8601 46.6978 43.6288 47.3021 46.2875C47.9063 48.9461 49.177 51.4074 50.9945 53.4398C52.812 55.4721 55.1167 57.0088 57.6916 57.9051C60.2666 58.8015 63.0273 59.0281 65.714 58.5637C68.4007 58.0993 70.9251 56.9591 73.0498 55.2504C75.1744 53.5417 76.8295 51.3206 77.8593 48.7961C78.8891 46.2716 79.2598 43.5266 78.9365 40.8194H78.9345Z" fill="url(#paint2_linear_853_167)"/>
</g>
<path d="M78.9345 40.8194C78.7602 39.3437 78.3805 37.8996 77.8064 36.529C77.4781 35.7437 77.0889 34.9853 76.6423 34.2608C74.5713 30.9164 71.3459 28.4473 67.5767 27.3212C63.8075 26.1951 59.7563 26.4901 56.19 28.1503C56.8726 29.2117 57.4743 30.3229 57.9902 31.4745C60.1504 30.5194 62.5399 30.2062 64.8733 30.5723C67.2068 30.9383 69.3855 31.9682 71.1495 33.5389C72.9135 35.1096 74.1882 37.1548 74.8213 39.4303C75.4544 41.7058 75.4192 44.1154 74.72 46.3714C74.0208 48.6275 72.687 50.6346 70.8779 52.1532C69.0689 53.6718 66.861 54.6377 64.5179 54.9355C62.1748 55.2333 59.7954 54.8505 57.664 53.8328C55.5325 52.8151 53.739 51.2054 52.4976 49.1961C49.6973 44.6797 50.4193 38.8892 53.5197 34.9408C52.9804 33.6925 52.3555 32.4828 51.6495 31.3205C49.7149 33.2418 48.3008 35.6236 47.5403 38.2418C46.7798 40.8601 46.6978 43.6288 47.3021 46.2875C47.9063 48.9461 49.177 51.4074 50.9945 53.4398C52.812 55.4721 55.1167 57.0088 57.6916 57.9051C60.2666 58.8015 63.0273 59.0281 65.714 58.5637C68.4007 58.0993 70.9251 56.9591 73.0498 55.2504C75.1744 53.5417 76.8295 51.3206 77.8593 48.7961C78.8891 46.2716 79.2598 43.5266 78.9365 40.8194H78.9345Z" fill="#F98E4A"/>
<defs>
<linearGradient id="paint0_linear_853_167" x1="14.7516" y1="46.255" x2="38.2356" y2="5.57955" gradientUnits="userSpaceOnUse">
<stop stop-color="#3A166C" stop-opacity="0.9"/>
<stop offset="0.09" stop-color="#2E145D" stop-opacity="0.9"/>
<stop offset="0.27" stop-color="#1A1044" stop-opacity="0.9"/>
<stop offset="0.47" stop-color="#0B0D32" stop-opacity="0.9"/>
<stop offset="0.7" stop-color="#030C27" stop-opacity="0.9"/>
<stop offset="1" stop-color="#000B24" stop-opacity="0.9"/>
</linearGradient>
<linearGradient id="paint1_linear_853_167" x1="136.495" y1="42.1203" x2="-115.809" y2="50.6861" gradientUnits="userSpaceOnUse">
<stop stop-color="#3A166C"/>
<stop offset="0.18" stop-color="#3E1B6F"/>
<stop offset="0.39" stop-color="#482A78"/>
<stop offset="0.62" stop-color="#594286"/>
<stop offset="0.85" stop-color="#70639A"/>
<stop offset="1" stop-color="#817BA8"/>
</linearGradient>
<linearGradient id="paint2_linear_853_167" x1="136.495" y1="42.1203" x2="-115.809" y2="50.6861" gradientUnits="userSpaceOnUse">
<stop stop-color="white"/>
<stop offset="0.41" stop-color="#3A166C" stop-opacity="0"/>
</linearGradient>
</defs>
</svg>
