<svg width="183" height="150" viewBox="0 0 183 150" fill="none" xmlns="http://www.w3.org/2000/svg">
<path d="M180.204 36.7174L182.356 46.3043C182.682 47.7587 182.682 49.2 182.408 50.5565C182.655 51.5198 182.678 52.5267 182.476 53.5002C182.273 54.4738 181.851 55.3882 181.241 56.1736C180.632 56.959 179.85 57.5945 178.957 58.0316C178.064 58.4688 177.083 58.6959 176.089 58.6957H161.382L151.71 45.8022V45.7891C150.163 43.7185 148.153 42.0381 145.84 40.882C143.528 39.7259 140.978 39.1261 138.393 39.1304H136.958V28.1087C136.958 23.4 133.123 19.5652 128.415 19.5652H119.415C114.706 19.5652 110.871 23.4 110.871 28.1087V39.0652H71.7407V28.1087C71.7407 23.4 67.9059 19.5652 63.1972 19.5652H54.1972C49.4885 19.5652 45.6537 23.4 45.6537 28.1087V39.1304H44.219C38.9494 39.1304 34.0255 41.6152 30.8494 45.8478L21.2233 58.6957H6.52331C5.52898 58.6959 4.54776 58.4688 3.65467 58.0316C2.76158 57.5945 1.98026 56.959 1.37046 56.1736C0.760653 55.3882 0.338506 54.4738 0.13629 53.5002C-0.0659252 52.5267 -0.0428544 51.5198 0.203739 50.5565C-0.081771 49.1516 -0.0639822 47.7019 0.255914 46.3043L2.34287 36.7174C4.66777 26.3065 10.4686 16.9978 18.7903 10.3239C27.1119 3.64994 37.4582 0.00880329 48.1255 0H134.486C145.148 0.00103795 155.491 3.64062 163.804 10.317C172.117 16.9934 177.902 26.3068 180.204 36.7174Z" fill="#F98E4A"/>
<path d="M146.478 49.6956L170.348 81.5217C178.307 92.1079 182.611 104.994 182.609 118.239V139.826C182.609 145.435 178.043 150 172.435 150H10.1739C4.56522 150 0 145.435 0 139.826V118.239C0 105 4.30435 92.0869 12.2609 81.5217L36.0652 49.7608C38.0217 47.1521 41.0217 45.6521 44.2174 45.6521H50.1522C51.2609 45.6521 52.1739 44.7391 52.1739 43.6304V28.1087C52.1739 27 53.087 26.0869 54.1957 26.0869H63.1957C64.3044 26.0869 65.2174 27 65.2174 28.1087V43.6304C65.2174 44.7391 66.1304 45.6521 67.2391 45.6521H115.37C116.478 45.6521 117.391 44.7391 117.391 43.6304V28.1087C117.391 27 118.304 26.0869 119.413 26.0869H128.413C129.522 26.0869 130.435 27 130.435 28.1087V43.6304C130.435 44.7391 131.348 45.6521 132.457 45.6521H138.391C141.587 45.6521 144.587 47.1521 146.478 49.6956ZM76.2913 78.2608C77.4 78.2608 78.3196 77.3478 78.2543 76.226V67.2521C78.2526 66.7141 78.0386 66.1985 77.6588 65.8175C77.279 65.4365 76.7641 65.2208 76.2261 65.2174H67.2457C66.137 65.2174 65.2174 66.1304 65.2174 67.2521V76.226C65.2174 77.3413 66.1304 78.2608 67.3174 78.2608H76.2913ZM95.8565 78.2608C96.1213 78.2628 96.3837 78.211 96.6278 78.1086C96.872 78.0062 97.0928 77.8554 97.2769 77.6651C97.4611 77.4749 97.6047 77.2493 97.6991 77.0019C97.7935 76.7545 97.8367 76.4906 97.8261 76.226V67.2521C97.8227 66.7135 97.6072 66.198 97.2263 65.8171C96.8455 65.4363 96.3299 65.2208 95.7913 65.2174H86.8174C86.2783 65.2191 85.7617 65.434 85.3805 65.8152C84.9993 66.1965 84.7843 66.713 84.7826 67.2521V76.226C84.7826 77.3413 85.6957 78.2608 86.8826 78.2608H95.8565ZM106.441 78.2608H115.422C115.686 78.2628 115.949 78.211 116.193 78.1086C116.437 78.0062 116.658 77.8554 116.842 77.6651C117.026 77.4749 117.17 77.2493 117.264 77.0019C117.359 76.7545 117.402 76.4906 117.391 76.226V67.2521C117.388 66.7135 117.172 66.198 116.792 65.8171C116.411 65.4363 115.895 65.2208 115.357 65.2174H106.376C105.267 65.2174 104.348 66.1304 104.348 67.2521V76.226C104.348 77.3413 105.261 78.2608 106.448 78.2608H106.441ZM76.2913 97.826C77.4 97.826 78.3196 96.913 78.2543 95.7913V86.8174C78.2526 86.2794 78.0386 85.7638 77.6588 85.3827C77.279 85.0017 76.7641 84.786 76.2261 84.7826H67.2457C66.137 84.7826 65.2174 85.6956 65.2174 86.8174V95.7913C65.2174 96.9065 66.1304 97.826 67.3174 97.826H76.2913ZM86.8761 97.826H95.8565C96.1213 97.828 96.3837 97.7763 96.6278 97.6739C96.872 97.5715 97.0928 97.4206 97.2769 97.2303C97.4611 97.0401 97.6047 96.8145 97.6991 96.5671C97.7935 96.3197 97.8367 96.0558 97.8261 95.7913V86.8174C97.8227 86.2788 97.6072 85.7632 97.2263 85.3823C96.8455 85.0015 96.3299 84.786 95.7913 84.7826H86.8174C86.2783 84.7843 85.7617 84.9992 85.3805 85.3804C84.9993 85.7617 84.7843 86.2782 84.7826 86.8174V95.7913C84.7826 96.9065 85.6957 97.826 86.8826 97.826H86.8761ZM115.422 97.826C115.686 97.828 115.949 97.7763 116.193 97.6739C116.437 97.5715 116.658 97.4206 116.842 97.2303C117.026 97.0401 117.17 96.8145 117.264 96.5671C117.359 96.3197 117.402 96.0558 117.391 95.7913V86.8174C117.388 86.2788 117.172 85.7632 116.792 85.3823C116.411 85.0015 115.895 84.786 115.357 84.7826H106.376C105.267 84.7826 104.348 85.6956 104.348 86.8174V95.7913C104.348 96.9065 105.261 97.826 106.448 97.826H115.422ZM67.3109 117.391H76.2913C77.4 117.391 78.3196 116.478 78.2543 115.356V106.383C78.2526 105.845 78.0386 105.329 77.6588 104.948C77.279 104.567 76.7641 104.351 76.2261 104.348H67.2457C66.137 104.348 65.2174 105.261 65.2174 106.383V115.356C65.2174 116.472 66.1304 117.391 67.3174 117.391H67.3109ZM95.8565 117.391C96.1213 117.393 96.3837 117.341 96.6278 117.239C96.872 117.137 97.0928 116.986 97.2769 116.796C97.4611 116.605 97.6047 116.38 97.6991 116.132C97.7935 115.885 97.8367 115.621 97.8261 115.356V106.383C97.8227 105.844 97.6072 105.328 97.2263 104.948C96.8455 104.567 96.3299 104.351 95.7913 104.348H86.8174C86.2783 104.35 85.7617 104.564 85.3805 104.946C84.9993 105.327 84.7843 105.843 84.7826 106.383V115.356C84.7826 116.472 85.6957 117.391 86.8826 117.391H95.8565ZM106.441 117.391H115.422C115.686 117.393 115.949 117.341 116.193 117.239C116.437 117.137 116.658 116.986 116.842 116.796C117.026 116.605 117.17 116.38 117.264 116.132C117.359 115.885 117.402 115.621 117.391 115.356V106.383C117.388 105.844 117.172 105.328 116.792 104.948C116.411 104.567 115.895 104.351 115.357 104.348H106.376C105.267 104.348 104.348 105.261 104.348 106.383V115.356C104.348 116.472 105.261 117.391 106.448 117.391H106.441Z" fill="#F98E4A"/>
</svg>