<svg width="51" height="68" viewBox="0 0 51 68" fill="none" xmlns="http://www.w3.org/2000/svg">
<path d="M22.1762 67.3585L0.00683594 54.1563V45.1875L22.1762 58.3913V67.3585Z" fill="#00B18A"/>
<path d="M44.3452 54.1563L22.1758 67.3585V58.3913L44.3452 45.1875V54.1563Z" fill="#93338C"/>
<path d="M22.1694 19.2607L0 32.4629V41.4301L22.1694 28.2279V19.2607Z" fill="#285EA4"/>
<path d="M44.34 32.4629L22.1689 19.2607V28.2279L44.34 41.4301V32.4629Z" fill="#0084BC"/>
<path d="M22.1762 54.6538L0.00683594 41.4516V32.4844L22.1762 45.6866V54.6538Z" fill="#00B18A"/>
<path d="M44.3452 41.4516L22.1758 54.6538V45.6866L44.3452 32.4844V41.4516Z" fill="#93338C"/>
<path d="M30.2041 20.665H33.9062V16.9629H30.2041V20.665Z" fill="#93338C"/>
<path d="M36.4144 18.7363H42.2139V12.9369H36.4144V18.7363Z" fill="#00B18A"/>
<path d="M44.3939 15.9844H50.1934V10.1849H44.3939V15.9844Z" fill="#FFC254"/>
<path d="M37.995 8.42773L46.4229 8.42773V-0.000167847L37.995 -0.000167847V8.42773Z" fill="#93338C"/>
<path d="M28.5004 10.7168H35.6133V3.60393L28.5004 3.60393V10.7168Z" fill="#FFC254"/>
</svg>
