<svg width="172" height="230" viewBox="0 0 172 230" fill="none" xmlns="http://www.w3.org/2000/svg">
<path d="M75.6209 230L0.0214844 184.921V154.296L75.6209 199.381V230Z" fill="#00B18A"/>
<path d="M151.22 184.921L75.6211 230V199.381L151.22 154.296V184.921Z" fill="#93338C"/>
<path d="M75.5994 65.7676L0 110.847V141.466L75.5994 96.3867V65.7676Z" fill="#285EA4"/>
<path d="M151.203 110.847L75.5977 65.7676V96.3867L151.203 141.466V110.847Z" fill="#0084BC"/>
<path d="M75.6209 186.618L0.0214844 141.538V110.919L75.6209 155.999V186.618Z" fill="#00B18A"/>
<path d="M151.22 141.538L75.6211 186.618V155.999L151.22 110.919V141.538Z" fill="#93338C"/>
<path d="M102.996 70.5615H115.621V57.9202H102.996V70.5615Z" fill="#93338C"/>
<path d="M124.177 63.9756H143.953V44.173H124.177V63.9756Z" fill="#00B18A"/>
<path d="M151.387 54.5801H171.164V34.7775H151.387V54.5801Z" fill="#FFC254"/>
<path d="M129.565 28.7773L158.305 28.7773V-0.000286102L129.565 -0.000286102V28.7773Z" fill="#93338C"/>
<path d="M97.1899 36.5918H121.445V12.3044L97.1899 12.3044V36.5918Z" fill="#FFC254"/>
</svg>
