<svg width="260" height="60" viewBox="0 0 260 60" fill="none" xmlns="http://www.w3.org/2000/svg">
<path d="M71.6821 52.8508C71.6821 54.6719 70.3437 55.9917 68.497 55.9917H66.3984V49.7217H68.497C70.346 49.7217 71.6821 51.0414 71.6821 52.8508ZM70.8777 52.8508C70.8895 52.5322 70.8353 52.2145 70.7186 51.9178C70.6019 51.621 70.4252 51.3516 70.1995 51.1263C69.9738 50.9011 69.704 50.7248 69.407 50.6087C69.11 50.4926 68.7923 50.4391 68.4736 50.4515H67.2029V55.2548H68.4853C68.8033 55.2653 69.12 55.2102 69.4158 55.0929C69.7115 54.9757 69.98 54.7988 70.2044 54.5733C70.4289 54.3477 70.6044 54.0784 70.7203 53.7821C70.8361 53.4858 70.8897 53.1688 70.8777 52.8508V52.8508Z" fill="#353535"/>
<path d="M79.377 51.1583V56.0012H78.7451L78.6658 55.2667C78.3248 55.6487 77.8758 55.9181 77.3782 56.0392C76.8807 56.1602 76.3581 56.1273 75.8796 55.9448C75.4012 55.7623 74.9894 55.4387 74.699 55.017C74.4085 54.5953 74.2529 54.0953 74.2529 53.5832C74.2529 53.0712 74.4085 52.5712 74.699 52.1495C74.9894 51.7277 75.4012 51.4042 75.8796 51.2217C76.3581 51.0392 76.8807 51.0063 77.3782 51.1273C77.8758 51.2484 78.3248 51.5178 78.6658 51.8997L78.7591 51.1583H79.377ZM78.5983 53.5786C78.5964 53.2265 78.4902 52.8828 78.2931 52.5909C78.0961 52.2991 77.8169 52.0722 77.491 51.939C77.165 51.8057 76.8069 51.772 76.4619 51.8422C76.1168 51.9124 75.8002 52.0832 75.5522 52.3332C75.3042 52.5832 75.1359 52.901 75.0684 53.2467C75.0009 53.5923 75.0374 53.9501 75.1732 54.275C75.309 54.5999 75.5381 54.8772 75.8315 55.072C76.1248 55.2668 76.4693 55.3703 76.8215 55.3693C77.0578 55.3759 77.2929 55.3339 77.5123 55.246C77.7318 55.1582 77.9309 55.0263 78.0974 54.8584C78.2639 54.6906 78.3942 54.4905 78.4804 54.2704C78.5665 54.0503 78.6066 53.8148 78.5983 53.5786V53.5786Z" fill="#353535"/>
<path d="M85.1603 55.2966V55.9961H84.5307C83.4908 55.9961 82.8495 55.3525 82.8495 54.3033V51.8456H81.9961V51.7104L83.4931 50.1318H83.612V51.1578H85.13V51.8573H83.612V54.2939C83.612 54.9468 83.9711 55.3082 84.6309 55.3082L85.1603 55.2966Z" fill="#353535"/>
<path d="M92.6486 51.1583V56.0012H92.0189L91.9374 55.2667C91.5963 55.6487 91.1472 55.9181 90.6497 56.0392C90.1521 56.1602 89.6295 56.1273 89.1511 55.9448C88.6727 55.7623 88.2609 55.4387 87.9704 55.017C87.68 54.5953 87.5244 54.0953 87.5244 53.5832C87.5244 53.0712 87.68 52.5712 87.9704 52.1495C88.2609 51.7277 88.6727 51.4042 89.1511 51.2217C89.6295 51.0392 90.1521 51.0063 90.6497 51.1273C91.1472 51.2484 91.5963 51.5178 91.9374 51.8997L92.033 51.1583H92.6486ZM91.8697 53.5786C91.8679 53.2264 91.7617 52.8826 91.5645 52.5907C91.3673 52.2988 91.088 52.072 90.7619 51.9388C90.4359 51.8056 90.0776 51.772 89.7325 51.8424C89.3874 51.9127 89.0708 52.0838 88.8229 52.334C88.575 52.5842 88.4068 52.9023 88.3396 53.2481C88.2724 53.5939 88.3093 53.9518 88.4454 54.2766C88.5816 54.6015 88.811 54.8787 89.1046 55.0731C89.3983 55.2676 89.7431 55.3707 90.0953 55.3693C90.3315 55.3759 90.5665 55.3339 90.7859 55.246C91.0052 55.1581 91.2041 55.0262 91.3704 54.8583C91.5367 54.6905 91.6669 54.4903 91.7528 54.2702C91.8386 54.0501 91.8784 53.8147 91.8697 53.5786V53.5786Z" fill="#353535"/>
<path d="M103.812 50.4608H101.9V56.001H101.114V50.4608H99.2021V49.7217H103.812V50.4608Z" fill="#353535"/>
<path d="M105.109 53.5784C105.102 53.0697 105.247 52.5704 105.524 52.144C105.802 51.7176 106.2 51.3834 106.668 51.1839C107.136 50.9844 107.653 50.9286 108.152 51.0236C108.652 51.1186 109.113 51.3601 109.475 51.7173C109.837 52.0746 110.085 52.5315 110.187 53.03C110.288 53.5285 110.24 54.046 110.047 54.5167C109.854 54.9874 109.525 55.3901 109.102 55.6735C108.68 55.9569 108.183 56.1082 107.674 56.1083C107.337 56.1201 107.001 56.063 106.687 55.9405C106.372 55.818 106.087 55.6327 105.846 55.3958C105.606 55.159 105.417 54.8757 105.29 54.5632C105.163 54.2507 105.102 53.9156 105.109 53.5784ZM107.674 55.3691C108.028 55.3696 108.375 55.265 108.669 55.0685C108.964 54.872 109.194 54.5925 109.33 54.2653C109.466 53.9381 109.502 53.578 109.433 53.2305C109.364 52.8829 109.194 52.5636 108.943 52.313C108.693 52.0623 108.374 51.8915 108.026 51.8222C107.679 51.7529 107.319 51.7883 106.991 51.9237C106.664 52.0592 106.384 52.2887 106.187 52.5832C105.991 52.8778 105.885 53.2241 105.885 53.5784C105.877 53.8155 105.918 54.0518 106.005 54.2726C106.092 54.4934 106.223 54.6939 106.391 54.8619C106.559 55.0298 106.759 55.1614 106.98 55.2487C107.2 55.3359 107.437 55.3769 107.674 55.3691V55.3691Z" fill="#353535"/>
<path d="M120.121 56.0991C118.256 56.0991 116.903 54.7444 116.903 52.8627C116.903 50.981 118.256 49.6239 120.121 49.6239C120.796 49.6002 121.458 49.8072 121.999 50.2108C122.54 50.6144 122.927 51.1904 123.096 51.8437H122.292C122.132 51.4026 121.834 51.0243 121.444 50.7638C121.053 50.5033 120.59 50.3744 120.121 50.3957C118.722 50.3957 117.705 51.4193 117.705 52.8627C117.705 54.306 118.717 55.3296 120.121 55.3296C120.606 55.3485 121.084 55.2078 121.482 54.9289C121.88 54.6501 122.175 54.2487 122.322 53.786H123.127C122.971 54.4597 122.586 55.0585 122.038 55.4802C121.49 55.902 120.812 56.1207 120.121 56.0991V56.0991Z" fill="#353535"/>
<path d="M125.567 53.5784C125.56 53.0697 125.705 52.5704 125.982 52.144C126.26 51.7176 126.658 51.3834 127.126 51.1839C127.594 50.9844 128.111 50.9286 128.61 51.0236C129.11 51.1186 129.571 51.3601 129.933 51.7173C130.295 52.0746 130.543 52.5315 130.645 53.03C130.746 53.5285 130.698 54.046 130.505 54.5167C130.312 54.9874 129.983 55.3901 129.56 55.6735C129.138 55.9569 128.641 56.1082 128.132 56.1083C127.795 56.1201 127.459 56.063 127.145 55.9405C126.83 55.818 126.545 55.6327 126.304 55.3958C126.064 55.159 125.875 54.8757 125.748 54.5632C125.621 54.2507 125.56 53.9156 125.567 53.5784ZM128.132 55.3691C128.486 55.3696 128.833 55.265 129.127 55.0685C129.422 54.872 129.652 54.5925 129.788 54.2653C129.924 53.9381 129.96 53.578 129.891 53.2305C129.822 52.8829 129.652 52.5636 129.401 52.313C129.151 52.0623 128.832 51.8915 128.484 51.8222C128.137 51.7529 127.777 51.7883 127.449 51.9237C127.122 52.0592 126.842 52.2887 126.645 52.5832C126.449 52.8778 126.343 53.2241 126.343 53.5784C126.335 53.8155 126.376 54.0518 126.463 54.2726C126.55 54.4934 126.681 54.6939 126.849 54.8619C127.017 55.0298 127.217 55.1614 127.438 55.2487C127.658 55.3359 127.895 55.3769 128.132 55.3691V55.3691Z" fill="#353535"/>
<path d="M140.653 52.9019V56.0008H139.893V53.1398C139.893 52.2701 139.49 51.7408 138.797 51.7408C138.104 51.7408 137.505 52.4216 137.505 53.31V55.9938H136.759V53.1398C136.759 52.2677 136.356 51.7408 135.654 51.7408C134.952 51.7408 134.364 52.4216 134.362 53.31V55.9938H133.6V51.1578H134.15L134.276 51.8224C134.457 51.5829 134.692 51.3887 134.961 51.2548C135.23 51.1209 135.526 51.051 135.826 51.0506C136.137 51.0409 136.443 51.1228 136.707 51.2862C136.972 51.4496 137.182 51.6872 137.312 51.9693C137.484 51.6911 137.725 51.4611 138.01 51.3005C138.295 51.1399 138.616 51.0539 138.944 51.0506C139.986 51.0506 140.653 51.82 140.653 52.9019Z" fill="#353535"/>
<path d="M146.449 51.0501C147.106 51.0701 147.73 51.3453 148.188 51.8173C148.646 52.2894 148.902 52.9212 148.902 53.5789C148.902 54.2366 148.646 54.8684 148.188 55.3404C147.73 55.8125 147.106 56.0877 146.449 56.1076C146.112 56.1123 145.777 56.0477 145.466 55.9178C145.154 55.7878 144.873 55.5953 144.639 55.3521V57.7282H143.877V51.1574H144.402L144.555 51.8965C144.79 51.6256 145.081 51.4094 145.408 51.2632C145.735 51.1169 146.091 51.0442 146.449 51.0501V51.0501ZM148.17 53.5777C148.168 53.2256 148.062 52.8819 147.865 52.5901C147.667 52.2983 147.388 52.0714 147.062 51.9381C146.736 51.8048 146.378 51.7712 146.033 51.8413C145.688 51.9115 145.372 52.0824 145.124 52.3323C144.876 52.5823 144.707 52.9002 144.64 53.2458C144.572 53.5914 144.609 53.9493 144.745 54.2741C144.88 54.599 145.11 54.8764 145.403 55.0712C145.696 55.2659 146.041 55.3694 146.393 55.3685C146.629 55.375 146.864 55.333 147.084 55.2452C147.303 55.1573 147.502 55.0254 147.669 54.8576C147.835 54.6898 147.966 54.4896 148.052 54.2695C148.138 54.0494 148.178 53.8139 148.17 53.5777V53.5777Z" fill="#353535"/>
<path d="M156.355 53.8745H152.225C152.265 54.2933 152.464 54.6808 152.781 54.9575C153.098 55.2342 153.509 55.3789 153.93 55.3621C154.233 55.3727 154.534 55.3003 154.8 55.1529C155.066 55.0054 155.286 54.7884 155.438 54.525H156.243C156.066 54.9379 155.781 55.2953 155.417 55.5594C155.054 55.8235 154.626 55.9846 154.179 56.0255C153.732 56.0665 153.281 55.9858 152.876 55.792C152.471 55.5982 152.126 55.2985 151.877 54.9246C151.628 54.5508 151.485 54.1166 151.462 53.668C151.44 53.2194 151.539 52.773 151.749 52.3761C151.959 51.9793 152.273 51.6466 152.657 51.4133C153.041 51.18 153.48 51.0547 153.93 51.0508C155.401 51.0508 156.371 52.184 156.371 53.5993C156.37 53.6913 156.365 53.7831 156.355 53.8745V53.8745ZM153.93 51.7759C153.526 51.7617 153.131 51.8963 152.82 52.1543C152.509 52.4123 152.304 52.7756 152.244 53.175H155.606C155.549 52.7759 155.346 52.4121 155.036 52.1538C154.727 51.8955 154.333 51.7609 153.93 51.7759Z" fill="#353535"/>
<path d="M161.758 55.2966V55.9961H161.13C160.09 55.9961 159.447 55.3525 159.447 54.3033V51.8456H158.607V51.7104L160.102 50.1318H160.221V51.1578H161.741V51.8573H160.221V54.2939C160.221 54.9468 160.58 55.3082 161.24 55.3082L161.758 55.2966Z" fill="#353535"/>
<path d="M164.49 49.4443H165.316V50.3187H164.49V49.4443ZM164.523 51.1581H165.285V56.0011H164.523V51.1581Z" fill="#353535"/>
<path d="M171.104 55.2966V55.9961H170.477C169.435 55.9961 168.794 55.3525 168.794 54.3033V51.8456H167.936V51.7104L169.432 50.1318H169.551V51.1578H171.069V51.8573H169.568V54.2939C169.568 54.9468 169.927 55.3082 170.587 55.3082L171.104 55.2966Z" fill="#353535"/>
<path d="M173.839 49.4443H174.664V50.3187H173.839V49.4443ZM173.869 51.1581H174.632V56.0011H173.869V51.1581Z" fill="#353535"/>
<path d="M182.114 51.1582L180.062 56.0012H179.362L177.264 51.1582H178.061L179.705 55.0102L181.316 51.1582H182.114Z" fill="#353535"/>
<path d="M189.132 53.8745H185.005C185.045 54.2935 185.243 54.6814 185.561 54.9582C185.878 55.2349 186.289 55.3795 186.709 55.3621C187.013 55.3725 187.313 55.3001 187.579 55.1526C187.844 55.0051 188.064 54.7882 188.216 54.525H189.02C188.843 54.938 188.558 55.2954 188.194 55.5596C187.831 55.8237 187.403 55.9847 186.956 56.0256C186.508 56.0664 186.058 55.9856 185.653 55.7916C185.248 55.5977 184.902 55.2978 184.654 54.9237C184.405 54.5496 184.262 54.1152 184.239 53.6665C184.217 53.2178 184.317 52.7714 184.527 52.3746C184.738 51.9778 185.052 51.6453 185.436 51.4122C185.82 51.1792 186.26 51.0543 186.709 51.0508C188.178 51.0508 189.148 52.184 189.148 53.5993C189.148 53.6913 189.142 53.7831 189.132 53.8745V53.8745ZM186.709 51.7759C186.305 51.7616 185.91 51.8962 185.599 52.1541C185.288 52.4121 185.082 52.7754 185.021 53.175H188.386C188.326 52.777 188.122 52.4147 187.813 52.1569C187.504 51.899 187.112 51.7635 186.709 51.7759Z" fill="#353535"/>
<path d="M199.711 54.497H196.693L196.08 56.001H195.243L197.808 49.7217H198.545L201.184 56.001H200.345L199.711 54.497ZM196.987 53.7835H199.412L198.188 50.8129L196.987 53.7835Z" fill="#353535"/>
<path d="M208.384 49.4281V56.0012H207.806L207.703 55.3017C207.466 55.5583 207.177 55.7617 206.856 55.8988C206.534 56.0358 206.187 56.1033 205.838 56.0968C205.181 56.0769 204.557 55.8017 204.099 55.3296C203.641 54.8576 203.385 54.2258 203.385 53.5681C203.385 52.9104 203.641 52.2786 204.099 51.8065C204.557 51.3345 205.181 51.0593 205.838 51.0393C206.17 51.0338 206.499 51.0945 206.807 51.2178C207.115 51.3412 207.395 51.5246 207.631 51.7575V49.4258L208.384 49.4281ZM207.671 53.5786C207.669 53.2267 207.563 52.8833 207.366 52.5917C207.169 52.3 206.891 52.0731 206.565 51.9396C206.239 51.8062 205.882 51.7721 205.537 51.8417C205.192 51.9113 204.875 52.0814 204.627 52.3307C204.379 52.58 204.21 52.8972 204.142 53.2423C204.073 53.5875 204.109 53.9451 204.244 54.2701C204.378 54.5952 204.606 54.873 204.899 55.0686C205.191 55.2642 205.535 55.3689 205.887 55.3693C206.123 55.3755 206.359 55.3333 206.578 55.2454C206.798 55.1575 206.997 55.0256 207.164 54.858C207.331 54.6904 207.462 54.4905 207.549 54.2705C207.636 54.0505 207.678 53.8151 207.671 53.5786V53.5786Z" fill="#353535"/>
<path d="M215.87 51.1582L213.829 56.0012H213.13L211.031 51.1582H211.826L213.47 55.0102L215.081 51.1582H215.87Z" fill="#353535"/>
<path d="M223.169 51.1583V56.0012H222.537L222.458 55.2667C222.117 55.6487 221.668 55.9181 221.17 56.0392C220.673 56.1602 220.15 56.1273 219.672 55.9448C219.193 55.7623 218.781 55.4387 218.491 55.017C218.2 54.5953 218.045 54.0953 218.045 53.5832C218.045 53.0712 218.2 52.5712 218.491 52.1495C218.781 51.7277 219.193 51.4042 219.672 51.2217C220.15 51.0392 220.673 51.0063 221.17 51.1273C221.668 51.2484 222.117 51.5178 222.458 51.8997L222.553 51.1583H223.169ZM222.39 53.5786C222.388 53.2265 222.282 52.8828 222.085 52.5909C221.888 52.2991 221.609 52.0722 221.283 51.939C220.957 51.8057 220.599 51.772 220.254 51.8422C219.909 51.9124 219.592 52.0832 219.344 52.3332C219.096 52.5832 218.928 52.901 218.86 53.2467C218.793 53.5923 218.829 53.9501 218.965 54.275C219.101 54.5999 219.33 54.8772 219.623 55.072C219.917 55.2668 220.261 55.3703 220.613 55.3693C220.85 55.3759 221.085 55.3339 221.304 55.246C221.524 55.1582 221.723 55.0263 221.889 54.8584C222.056 54.6906 222.186 54.4905 222.272 54.2704C222.359 54.0503 222.399 53.8148 222.39 53.5786V53.5786Z" fill="#353535"/>
<path d="M230.745 53.1005V56.0012H229.983V53.2801C229.983 52.2984 229.516 51.7481 228.679 51.7481C227.842 51.7481 227.213 52.4477 227.213 53.3594V56.0012H226.462V51.1582H227.005L227.152 51.916C227.347 51.639 227.607 51.4148 227.91 51.2637C228.213 51.1127 228.549 51.0396 228.887 51.051C230.027 51.051 230.745 51.9184 230.745 53.1005Z" fill="#353535"/>
<path d="M236.438 55.2966V55.9961H235.811C234.771 55.9961 234.127 55.3525 234.127 54.3033V51.8456H233.276V51.7104L234.771 50.1318H234.89V51.1578H236.41V51.8573H234.89V54.2939C234.89 54.9468 235.249 55.3082 235.909 55.3082L236.438 55.2966Z" fill="#353535"/>
<path d="M243.949 51.1583V56.0012H243.317L243.238 55.2667C242.897 55.6487 242.448 55.9181 241.95 56.0392C241.453 56.1602 240.93 56.1273 240.452 55.9448C239.973 55.7623 239.562 55.4387 239.271 55.017C238.981 54.5953 238.825 54.0953 238.825 53.5832C238.825 53.0712 238.981 52.5712 239.271 52.1495C239.562 51.7277 239.973 51.4042 240.452 51.2217C240.93 51.0392 241.453 51.0063 241.95 51.1273C242.448 51.2484 242.897 51.5178 243.238 51.8997L243.334 51.1583H243.949ZM243.17 53.5786C243.169 53.2265 243.062 52.8828 242.865 52.5909C242.668 52.2991 242.389 52.0722 242.063 51.939C241.737 51.8057 241.379 51.772 241.034 51.8422C240.689 51.9124 240.373 52.0832 240.124 52.3332C239.876 52.5832 239.708 52.901 239.641 53.2467C239.573 53.5923 239.61 53.9501 239.745 54.275C239.881 54.5999 240.11 54.8772 240.404 55.072C240.697 55.2668 241.042 55.3703 241.394 55.3693C241.629 55.3746 241.863 55.3316 242.082 55.2432C242.3 55.1547 242.498 55.0226 242.663 54.855C242.829 54.6873 242.958 54.4876 243.044 54.2681C243.13 54.0487 243.17 53.814 243.161 53.5786H243.17Z" fill="#353535"/>
<path d="M251.733 51.1574V55.3241C251.733 56.8841 250.833 57.8354 249.36 57.8354C248.171 57.8354 247.329 57.2175 247.065 56.1892H247.828C248.042 56.7955 248.653 57.1382 249.36 57.1382C250.327 57.1382 250.992 56.4947 250.992 55.4221V55.126C250.762 55.3592 250.487 55.5433 250.183 55.6671C249.88 55.791 249.555 55.852 249.227 55.8464C248.604 55.827 248.013 55.5658 247.579 55.1182C247.145 54.6706 246.902 54.0717 246.902 53.4483C246.902 52.8249 247.145 52.226 247.579 51.7783C248.013 51.3307 248.604 51.0695 249.227 51.0501C249.585 51.0444 249.94 51.1187 250.265 51.2675C250.591 51.4164 250.879 51.636 251.109 51.9105L251.23 51.1574H251.733ZM250.98 53.4518C250.984 53.1183 250.888 52.7914 250.705 52.5126C250.521 52.2339 250.26 52.0159 249.952 51.8863C249.645 51.7568 249.306 51.7216 248.979 51.7851C248.651 51.8487 248.35 52.0082 248.114 52.2434C247.877 52.4785 247.716 52.7787 247.651 53.1057C247.585 53.4328 247.619 53.7718 247.747 54.0799C247.874 54.3879 248.091 54.6509 248.369 54.8355C248.646 55.0202 248.973 55.118 249.306 55.1166C249.527 55.124 249.747 55.0861 249.953 55.0052C250.159 54.9243 250.346 54.8021 250.503 54.6461C250.66 54.4901 250.783 54.3037 250.865 54.0983C250.947 53.8929 250.987 53.6729 250.98 53.4518V53.4518Z" fill="#353535"/>
<path d="M259.527 53.8745H255.397C255.438 54.2931 255.637 54.6803 255.954 54.9568C256.271 55.2334 256.681 55.3784 257.102 55.3621C257.405 55.3727 257.706 55.3003 257.972 55.1529C258.238 55.0054 258.458 54.7884 258.61 54.525H259.415C259.238 54.9379 258.952 55.2953 258.589 55.5594C258.226 55.8235 257.798 55.9846 257.351 56.0255C256.903 56.0665 256.453 55.9858 256.048 55.792C255.643 55.5982 255.298 55.2985 255.049 54.9246C254.8 54.5508 254.656 54.1166 254.634 53.668C254.612 53.2194 254.711 52.773 254.921 52.3761C255.131 51.9793 255.445 51.6466 255.829 51.4133C256.213 51.18 256.652 51.0547 257.102 51.0508C258.573 51.0508 259.543 52.184 259.543 53.5993C259.542 53.6913 259.537 53.7831 259.527 53.8745V53.8745ZM257.102 51.7759C256.698 51.7617 256.303 51.8963 255.992 52.1543C255.681 52.4123 255.476 52.7756 255.416 53.175H258.778C258.721 52.7759 258.518 52.4121 258.208 52.1538C257.899 51.8955 257.504 51.7609 257.102 51.7759Z" fill="#353535"/>
<path d="M89.4479 29.9133C89.4479 37.8155 83.6349 43.5469 75.6278 43.5469H66.0234V16.3008H75.6278C83.6466 16.3008 89.4479 22.0228 89.4479 29.9133ZM84.8754 29.9133C84.8754 24.4175 81.0094 20.4722 75.5019 20.4722H70.4934V39.3778H75.5019C81.0094 39.3778 84.8754 35.3999 84.8754 29.9133V29.9133Z" fill="#353535"/>
<path d="M115.439 22.5177V43.5381H111.955L111.533 40.9732C109.63 42.8992 106.974 44.0535 103.911 44.0535C97.6498 44.0535 92.9678 39.3201 92.9678 33.0221C92.9678 26.7241 97.6498 22.0117 103.911 22.0117C107.009 22.0117 109.691 23.1776 111.605 25.1409L112.109 22.5107L115.439 22.5177ZM111.109 33.0314C111.109 29.0675 108.213 26.1342 104.251 26.1342C100.289 26.1342 97.3654 29.0955 97.3654 33.0314C97.3654 36.9674 100.289 39.9263 104.251 39.9263C108.213 39.9263 111.109 36.9953 111.109 33.0314Z" fill="#353535"/>
<path d="M133.604 39.6228V43.5471H130.395C125.793 43.5471 122.95 40.707 122.95 36.0623V26.2294H119.191V25.3947L126.501 17.623H127.236V22.5197H133.49V26.2201H127.271V35.7125C127.271 38.2191 128.67 39.6135 131.209 39.6135L133.604 39.6228Z" fill="#353535"/>
<path d="M158.953 22.5177V43.5381H155.47L155.048 40.9732C153.145 42.8992 150.489 44.0535 147.425 44.0535C141.164 44.0535 136.482 39.3201 136.482 33.0221C136.482 26.7241 141.164 22.0117 147.425 22.0117C150.524 22.0117 153.205 23.1776 155.12 25.1409L155.623 22.5107L158.953 22.5177ZM154.623 33.0314C154.623 29.0675 151.727 26.1342 147.766 26.1342C143.804 26.1342 140.887 29.0931 140.887 33.0314C140.887 36.9697 143.809 39.9263 147.77 39.9263C151.732 39.9263 154.623 36.9953 154.623 33.0314Z" fill="#353535"/>
<path d="M188.852 22.0508C193.283 22.0508 196.274 25.4201 196.274 30.1815V43.5469H191.951V31.2424C191.951 27.8591 190.48 25.9261 187.864 25.9261C185.08 25.9261 182.934 28.4747 182.934 32.0538V43.5469H178.714V31.2424C178.714 27.8591 177.254 25.9261 174.62 25.9261C171.821 25.9261 169.669 28.4747 169.669 32.0538V43.5469H165.349V22.5381H168.41L169.154 25.2546C169.934 24.2679 170.926 23.4687 172.056 22.9159C173.186 22.363 174.425 22.0706 175.683 22.0601C178.53 22.0601 180.789 23.4591 181.978 25.7396C182.735 24.6131 183.755 23.6888 184.951 23.0475C186.147 22.4061 187.481 22.0671 188.838 22.0601L188.852 22.0508Z" fill="#353535"/>
<path d="M202.295 14.8154H206.758V19.2737H202.295V14.8154ZM202.367 22.5287H206.688V43.5468H202.367V22.5287Z" fill="#353535"/>
<path d="M224.196 22.0508C229.111 22.0508 232.179 25.7139 232.179 30.8927V43.5469H227.861V31.7694C227.861 27.9524 226.201 25.9261 223.039 25.9261C219.737 25.9261 217.394 28.5819 217.394 32.294V43.5469H213.073V22.5381H216.083L216.923 25.4714C218.515 23.3519 221.12 22.0601 224.198 22.0601L224.196 22.0508Z" fill="#353535"/>
<path d="M258.917 14.9951V43.5493H255.652L255.095 41.164C253.099 43.0653 250.437 44.1091 247.68 44.0716C241.324 44.0716 236.754 39.3383 236.754 33.038C236.754 26.7377 241.324 22.0183 247.68 22.0183C250.206 21.9849 252.66 22.8511 254.606 24.4619V14.9951H258.917ZM248.014 39.9445C251.978 39.9445 254.897 36.9552 254.897 33.0473C254.897 29.1393 251.975 26.1524 248.014 26.1524C244.052 26.1524 241.152 29.067 241.152 33.031C241.152 36.9949 244.045 39.9282 248.009 39.9282L248.014 39.9445Z" fill="#353535"/>
<path d="M0 14.9999L25.98 29.9999L51.96 14.9999L25.98 0L0 14.9999Z" fill="#93338C"/>
<path d="M0 44.9999L25.98 59.9999L51.96 44.9999L25.98 30L0 44.9999Z" fill="#FFC254"/>
<path d="M25.9811 20.8362C29.677 20.8362 32.6731 17.8401 32.6731 14.1442C32.6731 10.4483 29.677 7.45215 25.9811 7.45215C22.2852 7.45215 19.2891 10.4483 19.2891 14.1442C19.2891 17.8401 22.2852 20.8362 25.9811 20.8362Z" fill="#F35181"/>
<path d="M25.9805 29.9999L51.9605 44.9999V15L25.9805 29.9999Z" fill="#F98E4A"/>
<path d="M25.98 29.9999L0 44.9999V15L25.98 29.9999Z" fill="#285EA4"/>
<path d="M9.48047 20.4746V39.5247L25.9797 29.9997L9.48047 20.4746Z" fill="#F35181"/>
<path d="M40.2268 51.773L14.2468 36.7754L0 44.9994L25.98 59.9993L40.2268 51.773Z" fill="#00B18A"/>
<path d="M25.9805 60.0001V43.5498L40.2273 51.7738L25.9805 60.0001Z" fill="#F35181"/>
<path d="M25.9805 29.9999V0L51.9605 14.9999L25.9805 29.9999Z" fill="#F35181"/>
<path d="M32.6748 14.1436C32.6748 12.3681 31.9695 10.6654 30.7141 9.40995C29.4587 8.15452 27.7559 7.44922 25.9805 7.44922V20.8356C26.8595 20.8359 27.7299 20.663 28.5421 20.3269C29.3543 19.9907 30.0923 19.4978 30.714 18.8764C31.3356 18.2549 31.8288 17.5171 32.1652 16.705C32.5017 15.893 32.6748 15.0226 32.6748 14.1436V14.1436Z" fill="#93338C"/>
</svg>
