<svg width="67" height="69" viewBox="0 0 67 69" fill="none" xmlns="http://www.w3.org/2000/svg">
<path d="M32.3777 46.8686C30.3905 46.865 28.4332 46.3838 26.6709 45.4656C24.9086 44.5473 23.3927 43.219 22.2512 41.5924L20.6077 39.2571H2.67622C1.95995 39.2762 1.27943 39.5742 0.779572 40.0876C0.279711 40.6009 0 41.2892 0 42.0057C0 42.7222 0.279711 43.4104 0.779572 43.9238C1.27943 44.4372 1.95995 44.7351 2.67622 44.7542H17.7546C19.8184 47.7015 22.7232 49.9577 26.0895 51.2279C29.4558 52.4982 33.127 52.7235 36.6233 51.8744C40.1197 51.0253 43.2786 49.1412 45.6872 46.4684C48.0959 43.7956 49.6423 40.4584 50.1244 36.8929C50.6065 33.3273 50.0018 29.6993 48.3894 26.4828C46.7769 23.2664 44.2317 20.6111 41.0864 18.864C37.9411 17.1169 34.3419 16.3592 30.7591 16.69C27.1764 17.0207 23.7767 18.4245 21.0044 20.7179C22.2301 22.3523 22.946 24.3122 23.0621 26.3518C24.4232 24.7922 26.1538 23.599 28.0955 22.8817C30.0372 22.1643 32.1279 21.9457 34.176 22.2459C36.2241 22.5461 38.1641 23.3554 39.8183 24.5997C41.4725 25.8441 42.788 27.4836 43.6443 29.3682C44.5005 31.2528 44.8701 33.3221 44.7193 35.3866C44.5684 37.451 43.9019 39.4447 42.7808 41.1847C41.6596 42.9248 40.1198 44.3557 38.3022 45.3464C36.4847 46.337 34.4477 46.8557 32.3777 46.855V46.8686Z" fill="#285EA4"/>
<path d="M17.1256 17.5482C19.3453 15.5666 21.9347 14.0434 24.7451 13.0662C27.5555 12.0889 30.5314 11.6769 33.5016 11.8537C44.7557 12.5025 53.9383 21.5132 54.7825 32.7634C55.1666 37.72 53.9105 42.6655 51.2077 46.8382C48.5049 51.0108 44.5053 54.1793 39.8249 55.8555C35.1445 57.5317 30.0428 57.6228 25.3056 56.1148C20.5683 54.6067 16.4581 51.5831 13.6081 47.5095H6.65127C7.18486 48.2668 7.47919 49.1667 7.49626 50.0929C7.51333 51.0192 7.25235 51.9293 6.74702 52.7057L5.00977 55.4142C6.3483 57.1647 7.85355 58.7812 9.50436 60.241L12.3281 58.6776C13.0547 58.2738 13.8759 58.0714 14.7069 58.0915C15.5378 58.1115 16.3484 58.3532 17.0546 58.7916C17.7608 59.23 18.337 59.8491 18.7237 60.585C19.1103 61.3208 19.2933 62.1465 19.2537 62.9768L19.0954 66.1895C20.1103 66.6051 21.1525 66.9751 22.2221 67.2994C23.2917 67.6238 24.3587 67.8961 25.423 68.1163L27.0763 65.357C27.5037 64.6434 28.1143 64.057 28.8446 63.6588C29.5749 63.2605 30.3985 63.0648 31.2299 63.0919C32.0613 63.119 32.8703 63.368 33.5732 63.813C34.276 64.258 34.847 64.8828 35.2271 65.6228L36.7045 68.4974C38.8914 68.2042 41.0446 67.6989 43.1337 66.9887L43.1845 63.7683C43.1958 62.9353 43.4299 62.1206 43.8625 61.4086C44.2951 60.6967 44.9103 60.1136 45.6443 59.7197C46.3784 59.3259 47.2045 59.1357 48.0368 59.169C48.8692 59.2022 49.6775 59.4576 50.3778 59.9088L53.0824 61.6675C54.834 60.3259 56.4505 58.8166 57.9092 57.1612L56.3458 54.3374C55.942 53.6109 55.7396 52.7897 55.7597 51.9587C55.7797 51.1277 56.0214 50.3172 56.4598 49.611C56.8982 48.9048 57.5174 48.3285 58.2532 47.9419C58.989 47.5553 59.8148 47.3723 60.645 47.4118L63.8596 47.5701C64.2752 46.5553 64.6452 45.513 64.9696 44.4435C65.294 43.3739 65.5656 42.3062 65.7845 41.2406L63.0193 39.5854C62.3058 39.1577 61.7196 38.5471 61.3215 37.8166C60.9234 37.0862 60.7279 36.2626 60.7552 35.4312C60.7825 34.5998 61.0316 33.7908 61.4768 33.0881C61.922 32.3853 62.547 31.8144 63.2871 31.4345L66.1616 29.9591C65.8687 27.7715 65.3634 25.6176 64.653 23.528L61.4326 23.4771C60.6008 23.4634 59.7878 23.2276 59.0778 22.794C58.3678 22.3605 57.7865 21.7451 57.3943 21.0114C57.0021 20.2778 56.8131 19.4527 56.8469 18.6214C56.8808 17.7902 57.1362 16.9832 57.5867 16.2838L59.3357 13.5793C57.9935 11.8281 56.4843 10.2116 54.8294 8.75247L52.0037 10.3158C51.2772 10.7196 50.4559 10.922 49.625 10.902C48.794 10.8819 47.9835 10.6402 47.2772 10.2018C46.571 9.76343 45.9948 9.14429 45.6082 8.40848C45.2215 7.67266 45.0385 6.8469 45.0781 6.01662L45.2383 2.80201C44.2248 2.38643 43.1858 2.01644 42.1214 1.69204C41.0571 1.36765 39.9868 1.10123 38.9107 0.892787L37.2536 3.64426C36.826 4.3578 36.2153 4.94399 35.4849 5.3421C34.7544 5.7402 33.9308 5.93573 33.0994 5.90842C32.268 5.88111 31.459 5.63196 30.7563 5.18678C30.0535 4.7416 29.4826 4.1166 29.1027 3.37654L27.6313 0.501953C25.4443 0.795118 23.2911 1.30037 21.202 2.01057L21.1493 5.233C21.1356 6.06458 20.8998 6.87737 20.4664 7.58719C20.033 8.29701 19.4177 8.87804 18.6842 9.27009C17.9507 9.66215 17.1257 9.85097 16.2947 9.81699C15.4637 9.78302 14.6569 9.52748 13.9579 9.07686L11.2514 7.32983C9.50027 8.67202 7.88374 10.1812 6.42459 11.8361L7.98792 14.6619C8.44656 15.4774 8.64562 16.4134 8.55854 17.345C9.91816 16.7658 11.3858 16.4837 12.8632 16.5174C14.3406 16.5511 15.7938 16.8999 17.1256 17.5404V17.5482Z" fill="#93338C"/>
<path d="M14.0993 34.2906C18.1388 33.4827 20.7586 29.553 19.9507 25.5135C19.1428 21.474 15.2131 18.8542 11.1736 19.6621C7.13406 20.4701 4.51432 24.3997 5.32223 28.4392C6.13014 32.4788 10.0598 35.0985 14.0993 34.2906Z" fill="#0084BC"/>
</svg>
