<svg width="27" height="28" viewBox="0 0 27 28" fill="none" xmlns="http://www.w3.org/2000/svg">
<path d="M19.1415 10.91L13.5416 7.59674C13.3977 7.51152 13.2336 7.46663 13.0664 7.4668C12.8992 7.46696 12.7351 7.51217 12.5914 7.59767L6.99147 10.911C6.85184 10.9933 6.73613 11.1107 6.65576 11.2515C6.57539 11.3922 6.53314 11.5515 6.5332 11.7136V18.1536C6.5332 18.484 6.70774 18.7892 6.99147 18.9563L12.5914 22.2696C12.7349 22.3557 12.8991 22.4012 13.0665 22.4012C13.2338 22.4012 13.3981 22.3557 13.5416 22.2696L19.1415 18.9563C19.2811 18.8739 19.3968 18.7565 19.4772 18.6158C19.5576 18.475 19.5998 18.3157 19.5998 18.1536V11.7136C19.5998 11.5514 19.5576 11.392 19.4772 11.2511C19.3968 11.1102 19.2811 10.9926 19.1415 10.91V10.91ZM17.7331 17.6216L13.0665 20.3824L8.39986 17.6216V12.2456L13.0665 9.48485L17.7331 12.2456V17.6216V17.6216Z" fill="#E6E6E6"/>
<path d="M3.73331 17.9049V9.3986L9.51993 5.97889L8.57074 4.3717L2.32492 8.06301C2.18528 8.14558 2.06958 8.26312 1.98922 8.40403C1.90886 8.54495 1.86661 8.70438 1.86665 8.8666V17.9049C1.32231 18.0968 0.850673 18.4524 0.516465 18.923C0.182256 19.3936 0.00184994 19.956 0 20.5332C0 22.0769 1.25626 23.3332 2.79998 23.3332C4.3437 23.3332 5.59996 22.0769 5.59996 20.5332C5.59811 19.956 5.4177 19.3936 5.08349 18.923C4.74929 18.4524 4.27765 18.0968 3.73331 17.9049V17.9049ZM2.79998 21.4665C2.55967 21.4558 2.33276 21.3527 2.16651 21.1789C2.00026 21.005 1.90747 20.7737 1.90747 20.5332C1.90747 20.2926 2.00026 20.0613 2.16651 19.8875C2.33276 19.7136 2.55967 19.6106 2.79998 19.5999C3.04029 19.6106 3.2672 19.7136 3.43345 19.8875C3.5997 20.0613 3.69249 20.2926 3.69249 20.5332C3.69249 20.7737 3.5997 21.005 3.43345 21.1789C3.2672 21.3527 3.04029 21.4558 2.79998 21.4665V21.4665ZM23.3332 17.7332C21.7894 17.7332 20.5332 18.9895 20.5332 20.5332C20.5332 20.8626 20.6004 21.1744 20.7058 21.4684L13.0666 25.9819L7.08955 22.4502L6.14035 24.0574L12.5915 27.8691C12.7352 27.9546 12.8992 27.9998 13.0664 28C13.2336 28.0002 13.3978 27.9553 13.5416 27.8701L21.9042 22.9281C22.3242 23.1792 22.8096 23.3332 23.3332 23.3332C24.8769 23.3332 26.1331 22.0769 26.1331 20.5332C26.1331 18.9895 24.8769 17.7332 23.3332 17.7332V17.7332ZM23.3332 21.4665C23.0928 21.4558 22.8659 21.3527 22.6997 21.1789C22.5334 21.005 22.4407 20.7737 22.4407 20.5332C22.4407 20.2926 22.5334 20.0613 22.6997 19.8875C22.8659 19.7136 23.0928 19.6106 23.3332 19.5999C23.5735 19.6106 23.8004 19.7136 23.9666 19.8875C24.1329 20.0613 24.2257 20.2926 24.2257 20.5332C24.2257 20.7737 24.1329 21.005 23.9666 21.1789C23.8004 21.3527 23.5735 21.4558 23.3332 21.4665V21.4665ZM13.0666 5.59996C13.7488 5.59996 14.3658 5.34516 14.852 4.93916L22.3998 9.39953V15.8665H24.2665V8.8666C24.2665 8.70438 24.2243 8.54495 24.1439 8.40403C24.0636 8.26312 23.9479 8.14558 23.8082 8.06301L15.8124 3.33851C15.846 3.16398 15.8665 2.98478 15.8665 2.79998C15.8665 1.25626 14.6103 0 13.0666 0C11.5228 0 10.2666 1.25626 10.2666 2.79998C10.2666 4.3437 11.5228 5.59996 13.0666 5.59996ZM13.0666 1.86665C13.2514 1.86647 13.4322 1.92113 13.586 2.02372C13.7397 2.1263 13.8596 2.2722 13.9305 2.44296C14.0013 2.61371 14.0199 2.80163 13.9839 2.98295C13.9478 3.16426 13.8588 3.33082 13.7281 3.46153C13.5974 3.59225 13.4309 3.68125 13.2495 3.71727C13.0682 3.75328 12.8803 3.7347 12.7095 3.66388C12.5388 3.59305 12.3929 3.47316 12.2903 3.31938C12.1877 3.1656 12.1331 2.98484 12.1332 2.79998C12.1332 2.28478 12.5523 1.86665 13.0666 1.86665Z" fill="#E6E6E6"/>
</svg>