<svg width="61" height="65" viewBox="0 0 61 65" fill="none" xmlns="http://www.w3.org/2000/svg">
<path d="M46.1218 16.6924H56.12C56.7247 16.6929 57.3076 16.9037 57.7559 17.2837C58.2042 17.6638 58.4858 18.1861 58.5463 18.7495L60.0353 32.6924H55.1241L53.9036 21.2638H46.1218V28.121C46.1218 28.7272 45.8647 29.3085 45.4069 29.7372C44.9491 30.1659 44.3283 30.4067 43.6809 30.4067C43.0335 30.4067 42.4126 30.1659 41.9549 29.7372C41.4971 29.3085 41.2399 28.7272 41.2399 28.121V21.2638H21.7123V28.121C21.7123 28.7272 21.4551 29.3085 20.9974 29.7372C20.5396 30.1659 19.9187 30.4067 19.2714 30.4067C18.624 30.4067 18.0031 30.1659 17.5453 29.7372C17.0876 29.3085 16.8304 28.7272 16.8304 28.121V21.2638H9.04376L5.13824 57.8352H31.4761V62.4067H2.43854C2.09761 62.4064 1.76053 62.3392 1.44902 62.2094C1.1375 62.0797 0.858466 61.8903 0.629886 61.6534C0.401306 61.4166 0.228251 61.1375 0.12187 60.8342C0.0154892 60.5309 -0.0218578 60.21 0.0122357 59.8924L4.40595 18.7495C4.46642 18.1861 4.74807 17.6638 5.19633 17.2837C5.6446 16.9037 6.22755 16.6929 6.83226 16.6924H16.8304V15.097C16.8304 7.1701 23.3526 0.692383 31.4761 0.692383C39.5996 0.692383 46.1218 7.1701 46.1218 15.097V16.697V16.6924ZM41.2399 16.6924V15.097C41.2399 9.63867 36.8365 5.26381 31.4761 5.26381C26.1158 5.26381 21.7123 9.63867 21.7123 15.097V16.697H41.2399V16.6924ZM56.6033 51.2524L51.0037 46.0135V62.4067C51.0037 63.0129 50.7466 63.5943 50.2888 64.0229C49.831 64.4516 49.2102 64.6924 48.5628 64.6924C47.9154 64.6924 47.2945 64.4516 46.8368 64.0229C46.379 63.5943 46.1218 63.0129 46.1218 62.4067V46.0135L40.5272 51.2524C40.302 51.4707 40.0327 51.6448 39.7349 51.7646C39.437 51.8844 39.1167 51.9475 38.7926 51.9501C38.4685 51.9527 38.1471 51.8949 37.8471 51.78C37.5471 51.6651 37.2746 51.4953 37.0454 51.2807C36.8162 51.0661 36.635 50.8109 36.5122 50.53C36.3895 50.2491 36.3278 49.9481 36.3306 49.6446C36.3334 49.3411 36.4007 49.0412 36.5286 48.7623C36.6566 48.4835 36.8425 48.2312 37.0757 48.0204L46.8395 38.8775C47.2972 38.449 47.918 38.2083 48.5652 38.2083C49.2125 38.2083 49.8332 38.449 50.291 38.8775L60.0548 48.0204C60.2879 48.2312 60.4739 48.4835 60.6018 48.7623C60.7298 49.0412 60.7971 49.3411 60.7999 49.6446C60.8027 49.9481 60.741 50.2491 60.6182 50.53C60.4955 50.8109 60.3142 51.0661 60.0851 51.2807C59.8559 51.4953 59.5833 51.6651 59.2833 51.78C58.9834 51.8949 58.6619 51.9527 58.3378 51.9501C58.0137 51.9475 57.6934 51.8844 57.3956 51.7646C57.0978 51.6448 56.8285 51.4707 56.6033 51.2524Z" fill="#00B18A"/>
</svg>
