<svg width="61" height="65" viewBox="0 0 61 65" fill="none" xmlns="http://www.w3.org/2000/svg">
<path d="M46.1218 16.8936H56.12C56.7247 16.8941 57.3076 17.1048 57.7559 17.4849C58.2042 17.865 58.4858 18.3873 58.5463 18.9507L60.0353 32.8936H55.1241L53.9036 21.465H46.1218V28.3221C46.1218 28.9283 45.8647 29.5097 45.4069 29.9384C44.9491 30.367 44.3283 30.6078 43.6809 30.6078C43.0335 30.6078 42.4126 30.367 41.9549 29.9384C41.4971 29.5097 41.2399 28.9283 41.2399 28.3221V21.465H21.7123V28.3221C21.7123 28.9283 21.4551 29.5097 20.9974 29.9384C20.5396 30.367 19.9187 30.6078 19.2714 30.6078C18.624 30.6078 18.0031 30.367 17.5453 29.9384C17.0876 29.5097 16.8304 28.9283 16.8304 28.3221V21.465H9.04376L5.13824 58.0364H31.4761V62.6078H2.43854C2.09761 62.6075 1.76053 62.5403 1.44902 62.4106C1.1375 62.2809 0.858466 62.0915 0.629886 61.8546C0.401306 61.6177 0.228251 61.3386 0.12187 61.0353C0.0154892 60.732 -0.0218578 60.4112 0.0122357 60.0936L4.40595 18.9507C4.46642 18.3873 4.74807 17.865 5.19633 17.4849C5.6446 17.1048 6.22755 16.8941 6.83226 16.8936H16.8304V15.2981C16.8304 7.37127 23.3526 0.893555 31.4761 0.893555C39.5996 0.893555 46.1218 7.37127 46.1218 15.2981V16.8981V16.8936ZM41.2399 16.8936V15.2981C41.2399 9.83984 36.8365 5.46498 31.4761 5.46498C26.1158 5.46498 21.7123 9.83984 21.7123 15.2981V16.8981H41.2399V16.8936ZM56.6033 51.4536L51.0037 46.2147V62.6078C51.0037 63.2141 50.7466 63.7954 50.2888 64.2241C49.831 64.6527 49.2102 64.8936 48.5628 64.8936C47.9154 64.8936 47.2945 64.6527 46.8368 64.2241C46.379 63.7954 46.1218 63.2141 46.1218 62.6078V46.2147L40.5272 51.4536C40.302 51.6719 40.0327 51.846 39.7349 51.9658C39.437 52.0856 39.1167 52.1486 38.7926 52.1513C38.4685 52.1539 38.1471 52.0961 37.8471 51.9812C37.5471 51.8662 37.2746 51.6965 37.0454 51.4819C36.8162 51.2673 36.635 51.0121 36.5122 50.7312C36.3895 50.4503 36.3278 50.1493 36.3306 49.8458C36.3334 49.5423 36.4007 49.2424 36.5286 48.9635C36.6566 48.6846 36.8425 48.4324 37.0757 48.2216L46.8395 39.0787C47.2972 38.6502 47.918 38.4095 48.5652 38.4095C49.2125 38.4095 49.8332 38.6502 50.291 39.0787L60.0548 48.2216C60.2879 48.4324 60.4739 48.6846 60.6018 48.9635C60.7298 49.2424 60.7971 49.5423 60.7999 49.8458C60.8027 50.1493 60.741 50.4503 60.6182 50.7312C60.4955 51.0121 60.3142 51.2673 60.0851 51.4819C59.8559 51.6965 59.5833 51.8662 59.2833 51.9812C58.9834 52.0961 58.6619 52.1539 58.3378 52.1513C58.0137 52.1486 57.6934 52.0856 57.3956 51.9658C57.0978 51.846 56.8285 51.6719 56.6033 51.4536Z" fill="#F35181"/>
</svg>
