<svg width="29" height="28" viewBox="0 0 29 28" fill="none" xmlns="http://www.w3.org/2000/svg">
<path d="M25.8414 22.552C25.2321 22.5544 24.6419 22.7644 24.168 23.1473L22.2331 22.0315V20.5828C22.835 20.37 23.3423 19.9513 23.6653 19.4006C23.9883 18.85 24.1062 18.2029 23.9983 17.5737C23.8903 16.9446 23.5634 16.3738 23.0753 15.9623C22.5873 15.5509 21.9694 15.3252 21.3311 15.3252C20.6927 15.3252 20.0749 15.5509 19.5868 15.9623C19.0987 16.3738 18.7718 16.9446 18.6639 17.5737C18.5559 18.2029 18.6739 18.85 18.9969 19.4006C19.3199 19.9513 19.8271 20.37 20.429 20.5828V22.0315L18.4941 23.1491C18.0205 22.7655 17.4302 22.5549 16.8208 22.552C16.2553 22.5481 15.7027 22.7204 15.2396 23.0447C14.7764 23.3691 14.4257 23.8295 14.236 24.3622C14.0463 24.8949 14.0271 25.4734 14.1809 26.0175C14.3348 26.5616 14.6542 27.0443 15.0948 27.3988C15.5354 27.7532 16.0753 27.9617 16.6398 27.9955C17.2042 28.0292 17.7651 27.8865 18.2448 27.5871C18.7245 27.2877 19.0991 26.8465 19.3167 26.3246C19.5343 25.8027 19.5842 25.226 19.4593 24.6745L21.3311 23.5929L23.2028 24.6736C23.0822 25.2205 23.1342 25.7913 23.3519 26.3073C23.5695 26.8233 23.9419 27.259 24.4178 27.5543C24.8936 27.8495 25.4494 27.9898 26.0084 27.9557C26.5673 27.9216 27.1019 27.7148 27.5384 27.3639C27.9748 27.0129 28.2915 26.5352 28.4448 25.9966C28.5981 25.4579 28.5803 24.885 28.3941 24.3569C28.2078 23.8288 27.8622 23.3715 27.405 23.0482C26.9477 22.7249 26.4014 22.5515 25.8414 22.552ZM16.8208 26.1602C16.6424 26.1602 16.468 26.1073 16.3196 26.0082C16.1713 25.9091 16.0557 25.7682 15.9874 25.6033C15.9191 25.4385 15.9012 25.2571 15.9361 25.0822C15.9709 24.9072 16.0568 24.7464 16.1829 24.6203C16.3091 24.4941 16.4698 24.4082 16.6448 24.3734C16.8198 24.3386 17.0011 24.3565 17.166 24.4248C17.3308 24.493 17.4717 24.6086 17.5708 24.757C17.6699 24.9053 17.7228 25.0797 17.7228 25.2581C17.7228 25.4974 17.6278 25.7268 17.4586 25.896C17.2895 26.0652 17.06 26.1602 16.8208 26.1602ZM21.3311 17.1396C21.5095 17.1396 21.6839 17.1925 21.8322 17.2916C21.9806 17.3908 22.0962 17.5316 22.1645 17.6965C22.2327 17.8613 22.2506 18.0427 22.2158 18.2177C22.181 18.3926 22.0951 18.5534 21.9689 18.6795C21.8428 18.8057 21.682 18.8916 21.5071 18.9264C21.3321 18.9612 21.1507 18.9433 20.9859 18.8751C20.821 18.8068 20.6802 18.6912 20.581 18.5428C20.4819 18.3945 20.429 18.2201 20.429 18.0417C20.429 17.8024 20.524 17.573 20.6932 17.4038C20.8624 17.2347 21.0918 17.1396 21.3311 17.1396ZM25.8414 26.1602C25.6629 26.1602 25.4885 26.1073 25.3402 26.0082C25.1919 25.9091 25.0762 25.7682 25.008 25.6033C24.9397 25.4385 24.9218 25.2571 24.9566 25.0822C24.9914 24.9072 25.0774 24.7464 25.2035 24.6203C25.3297 24.4941 25.4904 24.4082 25.6654 24.3734C25.8404 24.3386 26.0217 24.3565 26.1866 24.4248C26.3514 24.493 26.4923 24.6086 26.5914 24.757C26.6905 24.9053 26.7434 25.0797 26.7434 25.2581C26.7434 25.4974 26.6484 25.7268 26.4792 25.896C26.31 26.0652 26.0806 26.1602 25.8414 26.1602Z" fill="#353535"/>
<path d="M5.9965 18.9432C6.99289 18.9432 7.80062 18.1355 7.80062 17.1391C7.80062 16.1427 6.99289 15.335 5.9965 15.335C5.00011 15.335 4.19238 16.1427 4.19238 17.1391C4.19238 18.1355 5.00011 18.9432 5.9965 18.9432Z" fill="#353535"/>
<path d="M12.3104 17.1393C11.5967 17.1393 10.8991 16.9277 10.3058 16.5312C9.71239 16.1347 9.24991 15.5712 8.97681 14.9119C8.70371 14.2526 8.63226 13.5271 8.77148 12.8272C8.91071 12.1272 9.25436 11.4843 9.75898 10.9797C10.2636 10.4751 10.9065 10.1314 11.6065 9.99218C12.3064 9.85296 13.0319 9.92441 13.6912 10.1975C14.3505 10.4706 14.914 10.9331 15.3105 11.5265C15.707 12.1198 15.9186 12.8174 15.9186 13.5311C15.9158 14.4872 15.5347 15.4033 14.8586 16.0793C14.1826 16.7554 13.2665 17.1365 12.3104 17.1393ZM12.3104 11.727C11.9536 11.727 11.6048 11.8328 11.3081 12.031C11.0114 12.2293 10.7801 12.511 10.6436 12.8407C10.507 13.1703 10.4713 13.5331 10.5409 13.8831C10.6105 14.233 10.7824 14.5545 11.0347 14.8068C11.287 15.0591 11.6085 15.2309 11.9584 15.3005C12.3084 15.3701 12.6711 15.3344 13.0008 15.1979C13.3304 15.0613 13.6122 14.8301 13.8105 14.5334C14.0087 14.2367 14.1145 13.8879 14.1145 13.5311C14.1131 13.053 13.9225 12.595 13.5845 12.257C13.2465 11.9189 12.7884 11.7284 12.3104 11.727Z" fill="#353535"/>
<path d="M18.6254 11.7274C19.6218 11.7274 20.4295 10.9196 20.4295 9.92326C20.4295 8.92687 19.6218 8.11914 18.6254 8.11914C17.629 8.11914 16.8213 8.92687 16.8213 9.92326C16.8213 10.9196 17.629 11.7274 18.6254 11.7274Z" fill="#353535"/>
<path d="M11.4267 24.6003L2.3881 19.3287V7.73451L12.3107 1.94691L22.6808 7.99611L23.5901 6.43735L12.7654 0.122947C12.6274 0.0424286 12.4705 0 12.3107 0C12.151 0 11.9941 0.0424286 11.8561 0.122947L1.03141 6.43735C0.895215 6.51683 0.782235 6.63061 0.70373 6.76736C0.625225 6.90411 0.583938 7.05905 0.583984 7.21673V19.8455C0.583938 20.0032 0.625225 20.1582 0.70373 20.2949C0.782235 20.4317 0.895215 20.5455 1.03141 20.6249L10.5184 26.16L11.4267 24.6003Z" fill="#353535"/>
</svg>
