<svg width="80" height="65" viewBox="0 0 80 65" fill="none" xmlns="http://www.w3.org/2000/svg">
<path d="M36.6637 17.9414C32.0196 17.941 27.4797 19.3178 23.6181 21.8977C19.7565 24.4775 16.7467 28.1446 14.9693 32.4351C13.1919 36.7256 12.7268 41.4468 13.6327 46.0017C14.5386 50.5565 16.7749 54.7405 20.0588 58.0243C23.3427 61.3082 27.5266 63.5445 32.0814 64.4504C36.6363 65.3563 41.3575 64.8912 45.648 63.1138C49.9385 61.3364 53.6056 58.3266 56.1854 54.465C58.7653 50.6034 60.1421 46.0635 60.1417 41.4194C60.1417 35.1927 57.6681 29.2209 53.2651 24.818C48.8622 20.415 42.8904 17.9414 36.6637 17.9414ZM36.6637 59.393C33.1088 59.393 29.6338 58.3388 26.6781 56.3639C23.7224 54.3889 21.4187 51.5818 20.0583 48.2976C18.6979 45.0134 18.342 41.3995 19.0355 37.913C19.729 34.4264 21.4408 31.2239 23.9545 28.7102C26.4681 26.1966 29.6707 24.4847 33.1572 23.7912C36.6437 23.0977 40.2576 23.4537 43.5419 24.814C46.8261 26.1744 49.6332 28.4781 51.6081 31.4339C53.5831 34.3896 54.6372 37.8646 54.6372 41.4194C54.6372 43.7797 54.1723 46.117 53.2691 48.2976C52.3658 50.4783 51.0419 52.4596 49.3729 54.1286C47.7039 55.7976 45.7225 57.1216 43.5419 58.0248C41.3612 58.9281 39.024 59.393 36.6637 59.393Z" fill="#F35181"/>
<path d="M46.5672 20.1318C46.8237 21.5314 46.9535 22.9513 46.9553 24.3742C46.9553 25.1283 46.9173 25.8743 46.8473 26.6124C49.1786 28.2163 51.0983 30.3481 52.4501 32.8342C53.8019 35.3203 54.5476 38.0904 54.6264 40.9192C54.7053 43.7479 54.1151 46.5553 52.9039 49.1128C51.6927 51.6704 49.8947 53.9058 47.6563 55.6371C45.4179 57.3684 42.8024 58.5468 40.0225 59.0762C37.2426 59.6056 34.377 59.4712 31.659 58.6838C28.9409 57.8965 26.4471 56.4784 24.3806 54.5451C22.3141 52.6118 20.7334 50.2179 19.7669 47.5582C17.6219 47.218 15.5348 46.5798 13.5664 45.662C14.295 49.6232 16.0303 53.3303 18.6056 56.4269C21.1809 59.5236 24.5095 61.9057 28.2714 63.3442C32.0333 64.7828 36.1021 65.2294 40.0864 64.6411C44.0708 64.0528 47.8369 62.4494 51.0225 59.985C54.2082 57.5207 56.7063 54.2783 58.2767 50.5695C59.8472 46.8607 60.4371 42.8103 59.9899 38.8076C59.5426 34.8049 58.0732 30.9846 55.7228 27.714C53.3725 24.4433 50.2203 21.8322 46.5692 20.1318H46.5672Z" fill="#00B18A"/>
<path d="M18.6895 41.4193C18.6892 38.6513 19.3283 35.9207 20.5571 33.4404C21.7858 30.96 23.5709 28.7971 25.7732 27.1203C27.9755 25.4435 30.5354 24.2981 33.2532 23.7734C35.971 23.2488 38.7733 23.3591 41.4414 24.0958C41.4137 22.097 41.052 20.1169 40.3713 18.2373C37.2038 17.7314 33.9662 17.8797 30.8582 18.6732C27.7502 19.4667 24.8377 20.8884 22.3003 22.8508C19.763 24.8132 17.6545 27.2746 16.105 30.0832C14.5555 32.8919 13.5978 35.9881 13.291 39.1811C14.9377 40.3166 16.7632 41.1678 18.6915 41.6993C18.6955 41.6053 18.6895 41.5133 18.6895 41.4193Z" fill="#00B18A"/>
<path d="M18.6979 41.6969C16.7696 41.1654 14.9442 40.3142 13.2975 39.1787C13.2295 39.9168 13.1895 40.6628 13.1895 41.4169C13.1909 42.8399 13.3214 44.2599 13.5795 45.6593C15.5479 46.5771 17.6349 47.2153 19.78 47.5554C19.0952 45.6766 18.7295 43.6964 18.6979 41.6969Z" fill="url(#paint0_linear_714_265)"/>
<path d="M41.4428 24.0958C41.4428 24.1898 41.4428 24.2818 41.4428 24.3758C41.4406 28.8698 39.7543 33.1998 36.7164 36.5115C33.6785 39.8232 29.5098 41.8761 25.0327 42.2652C20.5555 42.6543 16.0952 41.3513 12.5316 38.6132C8.96795 35.8752 6.55992 31.901 5.78255 27.4748C5.00518 23.0485 5.91493 18.4917 8.33231 14.7032C10.7497 10.9148 14.4991 8.16989 18.8409 7.01012C23.1827 5.85036 27.8015 6.35994 31.786 8.43832C35.7705 10.5167 38.8314 14.013 40.3647 18.2373C42.5098 18.5773 44.5969 19.2156 46.5653 20.1334C45.4905 14.2866 42.2376 9.06514 37.4632 5.52317C32.6887 1.98121 26.7483 0.382511 20.841 1.04979C14.9337 1.71706 9.49958 4.60062 5.63552 9.11837C1.77147 13.6361 -0.234732 19.4516 0.0219039 25.3909C0.27854 31.3302 2.7789 36.951 7.01825 41.1186C11.2576 45.2862 16.9202 47.6902 22.863 47.8455C28.8058 48.0007 34.5862 45.8956 39.0374 41.955C43.4885 38.0144 46.2789 32.5318 46.8453 26.614C45.198 25.4784 43.3718 24.6271 41.4428 24.0958Z" fill="#F35181"/>
<path d="M78.9318 41.0156C78.7575 39.5399 78.3777 38.0959 77.8037 36.7253C77.4754 35.94 77.0862 35.1816 76.6396 34.4571C74.5686 31.1126 71.3433 28.6436 67.5742 27.5175C63.8052 26.3914 59.754 26.6864 56.1878 28.3466C56.8704 29.4079 57.4721 30.5192 57.988 31.6708C60.1481 30.7157 62.5376 30.4025 64.8709 30.7686C67.2043 31.1346 69.383 32.1645 71.147 33.7352C72.9109 35.3059 74.1855 37.3511 74.8186 39.6266C75.4517 41.9021 75.4166 44.3117 74.7174 46.5677C74.0181 48.8238 72.6844 50.8309 70.8754 52.3495C69.0664 53.8681 66.8585 54.834 64.5155 55.1318C62.1724 55.4296 59.7932 55.0468 57.6618 54.0291C55.5304 53.0114 53.7369 51.4017 52.4955 49.3924C49.6952 44.876 50.4173 39.0855 53.5176 35.1371C52.9783 33.8887 52.3534 32.6791 51.6474 31.5168C49.7129 33.4381 48.2988 35.8199 47.5383 38.4381C46.7778 41.0564 46.6958 43.8251 47.3001 46.4838C47.9043 49.1424 49.175 51.6037 50.9924 53.6361C52.8099 55.6684 55.1145 57.205 57.6894 58.1014C60.2643 58.9978 63.0249 59.2244 65.7116 58.76C68.3982 58.2956 70.9226 57.1554 73.0472 55.4467C75.1718 53.738 76.8268 51.5169 77.8566 48.9924C78.8864 46.4679 79.2571 43.7229 78.9338 41.0156H78.9318Z" fill="url(#paint1_linear_714_265)"/>
<g style="mix-blend-mode:screen">
<path d="M78.9318 41.0156C78.7575 39.5399 78.3777 38.0959 77.8037 36.7253C77.4754 35.94 77.0862 35.1816 76.6396 34.4571C74.5686 31.1126 71.3433 28.6436 67.5742 27.5175C63.8052 26.3914 59.754 26.6864 56.1878 28.3466C56.8704 29.4079 57.4721 30.5192 57.988 31.6708C60.1481 30.7157 62.5376 30.4025 64.8709 30.7686C67.2043 31.1346 69.383 32.1645 71.147 33.7352C72.9109 35.3059 74.1855 37.3511 74.8186 39.6266C75.4517 41.9021 75.4166 44.3117 74.7174 46.5677C74.0181 48.8238 72.6844 50.8309 70.8754 52.3495C69.0664 53.8681 66.8585 54.834 64.5155 55.1318C62.1724 55.4296 59.7932 55.0468 57.6618 54.0291C55.5304 53.0114 53.7369 51.4017 52.4955 49.3924C49.6952 44.876 50.4173 39.0855 53.5176 35.1371C52.9783 33.8887 52.3534 32.6791 51.6474 31.5168C49.7129 33.4381 48.2988 35.8199 47.5383 38.4381C46.7778 41.0564 46.6958 43.8251 47.3001 46.4838C47.9043 49.1424 49.175 51.6037 50.9924 53.6361C52.8099 55.6684 55.1145 57.205 57.6894 58.1014C60.2643 58.9978 63.0249 59.2244 65.7116 58.76C68.3982 58.2956 70.9226 57.1554 73.0472 55.4467C75.1718 53.738 76.8268 51.5169 77.8566 48.9924C78.8864 46.4679 79.2571 43.7229 78.9338 41.0156H78.9318Z" fill="url(#paint2_linear_714_265)"/>
</g>
<path d="M78.9318 41.0156C78.7575 39.5399 78.3777 38.0959 77.8037 36.7253C77.4754 35.94 77.0862 35.1816 76.6396 34.4571C74.5686 31.1126 71.3433 28.6436 67.5742 27.5175C63.8052 26.3914 59.754 26.6864 56.1878 28.3466C56.8704 29.4079 57.4721 30.5192 57.988 31.6708C60.1481 30.7157 62.5376 30.4025 64.8709 30.7686C67.2043 31.1346 69.383 32.1645 71.147 33.7352C72.9109 35.3059 74.1855 37.3511 74.8186 39.6266C75.4517 41.9021 75.4166 44.3117 74.7174 46.5677C74.0181 48.8238 72.6844 50.8309 70.8754 52.3495C69.0664 53.8681 66.8585 54.834 64.5155 55.1318C62.1724 55.4296 59.7932 55.0468 57.6618 54.0291C55.5304 53.0114 53.7369 51.4017 52.4955 49.3924C49.6952 44.876 50.4173 39.0855 53.5176 35.1371C52.9783 33.8887 52.3534 32.6791 51.6474 31.5168C49.7129 33.4381 48.2988 35.8199 47.5383 38.4381C46.7778 41.0564 46.6958 43.8251 47.3001 46.4838C47.9043 49.1424 49.175 51.6037 50.9924 53.6361C52.8099 55.6684 55.1145 57.205 57.6894 58.1014C60.2643 58.9978 63.0249 59.2244 65.7116 58.76C68.3982 58.2956 70.9226 57.1554 73.0472 55.4467C75.1718 53.738 76.8268 51.5169 77.8566 48.9924C78.8864 46.4679 79.2571 43.7229 78.9338 41.0156H78.9318Z" fill="#F98E4A"/>
<defs>
<linearGradient id="paint0_linear_714_265" x1="14.7516" y1="46.4513" x2="38.2356" y2="5.77583" gradientUnits="userSpaceOnUse">
<stop stop-color="#3A166C" stop-opacity="0.9"/>
<stop offset="0.09" stop-color="#2E145D" stop-opacity="0.9"/>
<stop offset="0.27" stop-color="#1A1044" stop-opacity="0.9"/>
<stop offset="0.47" stop-color="#0B0D32" stop-opacity="0.9"/>
<stop offset="0.7" stop-color="#030C27" stop-opacity="0.9"/>
<stop offset="1" stop-color="#000B24" stop-opacity="0.9"/>
</linearGradient>
<linearGradient id="paint1_linear_714_265" x1="136.491" y1="42.3166" x2="-115.807" y2="50.8819" gradientUnits="userSpaceOnUse">
<stop stop-color="#3A166C"/>
<stop offset="0.18" stop-color="#3E1B6F"/>
<stop offset="0.39" stop-color="#482A78"/>
<stop offset="0.62" stop-color="#594286"/>
<stop offset="0.85" stop-color="#70639A"/>
<stop offset="1" stop-color="#817BA8"/>
</linearGradient>
<linearGradient id="paint2_linear_714_265" x1="136.491" y1="42.3166" x2="-115.807" y2="50.8819" gradientUnits="userSpaceOnUse">
<stop stop-color="white"/>
<stop offset="0.41" stop-color="#3A166C" stop-opacity="0"/>
</linearGradient>
</defs>
</svg>
