<svg width="236" height="121" viewBox="0 0 236 121" fill="none" xmlns="http://www.w3.org/2000/svg">
<path d="M8.596 27.2094C12.572 27.2094 15.736 25.1374 15.736 21.2174C15.736 16.9894 12.152 16.1214 9.1 15.3654C6.776 14.8054 4.76 14.3294 4.76 12.5094C4.76 10.9134 6.356 10.0174 8.316 10.0174C10.36 10.0174 11.984 11.0814 11.984 13.0414H15.176C15.176 9.34537 12.656 7.02137 8.4 7.02137C4.228 7.02137 1.54 9.12137 1.54 12.6494C1.54 16.6814 4.984 17.5214 7.98 18.2494C10.332 18.8094 12.432 19.2854 12.432 21.2454C12.432 23.0374 10.668 24.1574 8.568 24.1574C6.272 24.1574 4.48 22.9254 4.48 20.7414H1.204C1.204 24.7454 4.2 27.2094 8.596 27.2094ZM25.8578 24.1014C24.0378 24.1014 23.0298 23.0934 23.0298 21.2734V14.4694H27.5098V11.7814H23.0018V8.25337H22.4698L17.2058 13.8534V14.4694H19.9218V21.5254C19.9218 24.8574 21.9658 26.9014 25.2698 26.9014H27.5938V24.1014H25.8578ZM37.8742 11.6974C35.8022 11.6974 34.3182 12.4254 33.2262 13.8534L32.7222 11.7814H30.6222V26.9014H33.7302V18.8654C33.7302 16.1214 34.9902 14.6374 37.5662 14.6374H39.2182V11.6974H37.8742ZM53.8875 11.7814L53.5235 13.6854C52.1515 12.2574 50.2195 11.4174 47.9795 11.4174C43.4715 11.4174 40.1115 14.8054 40.1115 19.3414C40.1115 23.8774 43.4715 27.2934 47.9795 27.2934C50.1915 27.2934 52.0955 26.4534 53.4675 25.0814L53.7755 26.9014H56.2675V11.7814H53.8875ZM48.2315 24.2974C45.3755 24.2974 43.2755 22.1694 43.2755 19.3414C43.2755 16.5134 45.3755 14.3854 48.2315 14.3854C51.0875 14.3854 53.1595 16.4854 53.1595 19.3414C53.1595 22.1974 51.0875 24.2974 48.2315 24.2974ZM67.4476 24.1014C65.6276 24.1014 64.6196 23.0934 64.6196 21.2734V14.4694H69.0996V11.7814H64.5916V8.25337H64.0596L58.7956 13.8534V14.4694H61.5116V21.5254C61.5116 24.8574 63.5556 26.9014 66.8596 26.9014H69.1836V24.1014H67.4476ZM86.4119 19.3974C86.4119 15.0014 83.3319 11.4174 78.6839 11.4174C74.2599 11.4174 70.9279 14.8334 70.9279 19.3414C70.9279 23.8774 74.2599 27.2934 78.6839 27.2934C82.0719 27.2934 84.8439 25.3334 86.0479 22.1414H82.7719C81.9599 23.5414 80.5039 24.3814 78.6839 24.3814C76.2199 24.3814 74.4559 22.8694 74.0639 20.4054H86.3279C86.3839 20.0694 86.4119 19.7334 86.4119 19.3974ZM78.6839 14.2454C81.0079 14.2454 82.7159 15.5894 83.2759 17.8854H74.1479C74.6519 15.6454 76.3599 14.2454 78.6839 14.2454ZM102.06 11.7814L101.584 13.7414C100.212 12.3134 98.28 11.4174 96.068 11.4174C91.84 11.4174 88.592 14.7214 88.592 18.9494C88.592 23.2054 91.84 26.4814 96.068 26.4814C98.028 26.4814 99.764 25.8094 101.08 24.6614V25.3614C101.08 28.2174 99.148 29.9534 96.544 29.9534C94.64 29.9534 92.848 29.0294 92.26 27.3774H89.18C89.936 30.6814 92.68 32.6974 96.572 32.6974C101.248 32.6974 104.104 29.7574 104.104 24.9414V11.7814H102.06ZM96.404 23.5974C93.716 23.5974 91.756 21.6094 91.756 18.9494C91.756 16.3174 93.716 14.3294 96.404 14.3294C99.12 14.3294 101.052 16.2894 101.052 18.9494C101.052 21.6374 99.092 23.5974 96.404 23.5974ZM108.496 9.45737H111.688V6.23737H108.496V9.45737ZM108.552 26.9014H111.66V11.7814H108.552V26.9014ZM122.875 27.2934C126.599 27.2934 129.595 24.9414 130.407 21.4134H127.271C126.459 23.2614 124.863 24.3254 122.875 24.3254C120.187 24.3254 118.115 22.1414 118.115 19.3414C118.115 16.5414 120.159 14.3854 122.875 14.3854C124.835 14.3854 126.515 15.4494 127.299 17.1854H130.379C129.539 13.7134 126.627 11.4174 122.875 11.4174C118.367 11.4174 114.951 14.8334 114.951 19.3414C114.951 23.8494 118.367 27.2934 122.875 27.2934ZM148.048 7.30137H140.824V26.9014H144.016V20.2654H148.048C151.884 20.2654 154.74 17.4934 154.74 13.7974C154.74 10.0734 151.856 7.30137 148.048 7.30137ZM147.908 17.2134H144.016V10.3534H147.908C150.008 10.3534 151.464 11.8094 151.464 13.7974C151.464 15.7574 150.008 17.2134 147.908 17.2134ZM165.023 11.6974C162.951 11.6974 161.467 12.4254 160.375 13.8534L159.871 11.7814H157.771V26.9014H160.879V18.8654C160.879 16.1214 162.139 14.6374 164.715 14.6374H166.367V11.6974H165.023ZM168.734 9.45737H171.926V6.23737H168.734V9.45737ZM168.79 26.9014H171.898V11.7814H168.79V26.9014ZM183.114 27.2934C186.838 27.2934 189.834 24.9414 190.646 21.4134H187.51C186.698 23.2614 185.102 24.3254 183.114 24.3254C180.426 24.3254 178.354 22.1414 178.354 19.3414C178.354 16.5414 180.398 14.3854 183.114 14.3854C185.074 14.3854 186.754 15.4494 187.538 17.1854H190.618C189.778 13.7134 186.866 11.4174 183.114 11.4174C178.606 11.4174 175.19 14.8334 175.19 19.3414C175.19 23.8494 178.606 27.2934 183.114 27.2934ZM193.672 9.45737H196.864V6.23737H193.672V9.45737ZM193.728 26.9014H196.836V11.7814H193.728V26.9014ZM209.227 11.4454C207.015 11.4454 205.139 12.3694 204.019 13.9094L203.403 11.7814H201.247V26.9014H204.355V18.8094C204.355 16.1494 206.035 14.2454 208.415 14.2454C210.683 14.2454 211.887 15.7014 211.887 18.4454V26.9014H214.995V17.8014C214.995 14.0774 212.783 11.4454 209.227 11.4454ZM231.56 11.7814L231.084 13.7414C229.712 12.3134 227.78 11.4174 225.568 11.4174C221.34 11.4174 218.092 14.7214 218.092 18.9494C218.092 23.2054 221.34 26.4814 225.568 26.4814C227.528 26.4814 229.264 25.8094 230.58 24.6614V25.3614C230.58 28.2174 228.648 29.9534 226.044 29.9534C224.14 29.9534 222.348 29.0294 221.76 27.3774H218.68C219.436 30.6814 222.18 32.6974 226.072 32.6974C230.748 32.6974 233.604 29.7574 233.604 24.9414V11.7814H231.56ZM225.904 23.5974C223.216 23.5974 221.256 21.6094 221.256 18.9494C221.256 16.3174 223.216 14.3294 225.904 14.3294C228.62 14.3294 230.552 16.2894 230.552 18.9494C230.552 21.6374 228.592 23.5974 225.904 23.5974Z" fill="#353535"/>
<path d="M114.664 73.9414C110.02 73.941 105.48 75.3178 101.618 77.8977C97.7565 80.4775 94.7467 84.1446 92.9693 88.4351C91.1919 92.7256 90.7268 97.4468 91.6327 102.002C92.5386 106.557 94.7749 110.74 98.0588 114.024C101.343 117.308 105.527 119.544 110.081 120.45C114.636 121.356 119.358 120.891 123.648 119.114C127.939 117.336 131.606 114.327 134.185 110.465C136.765 106.603 138.142 102.064 138.142 97.4194C138.142 91.1927 135.668 85.2209 131.265 80.818C126.862 76.415 120.89 73.9414 114.664 73.9414ZM114.664 115.393C111.109 115.393 107.634 114.339 104.678 112.364C101.722 110.389 99.4187 107.582 98.0583 104.298C96.6979 101.013 96.342 97.3995 97.0355 93.913C97.729 90.4264 99.4408 87.2239 101.954 84.7102C104.468 82.1966 107.671 80.4847 111.157 79.7912C114.644 79.0977 118.258 79.4537 121.542 80.814C124.826 82.1744 127.633 84.4781 129.608 87.4339C131.583 90.3896 132.637 93.8646 132.637 97.4194C132.637 99.7797 132.172 102.117 131.269 104.298C130.366 106.478 129.042 108.46 127.373 110.129C125.704 111.798 123.723 113.122 121.542 114.025C119.361 114.928 117.024 115.393 114.664 115.393Z" fill="#F35181"/>
<path d="M124.567 76.1318C124.824 77.5314 124.954 78.9513 124.955 80.3742C124.955 81.1283 124.917 81.8743 124.847 82.6124C127.179 84.2163 129.098 86.3481 130.45 88.8342C131.802 91.3203 132.548 94.0904 132.626 96.9192C132.705 99.7479 132.115 102.555 130.904 105.113C129.693 107.67 127.895 109.906 125.656 111.637C123.418 113.368 120.802 114.547 118.023 115.076C115.243 115.606 112.377 115.471 109.659 114.684C106.941 113.896 104.447 112.478 102.381 110.545C100.314 108.612 98.7334 106.218 97.7669 103.558C95.6219 103.218 93.5348 102.58 91.5664 101.662C92.295 105.623 94.0303 109.33 96.6056 112.427C99.1809 115.524 102.509 117.906 106.271 119.344C110.033 120.783 114.102 121.229 118.086 120.641C122.071 120.053 125.837 118.449 129.023 115.985C132.208 113.521 134.706 110.278 136.277 106.569C137.847 102.861 138.437 98.8103 137.99 94.8076C137.543 90.8049 136.073 86.9846 133.723 83.714C131.372 80.4433 128.22 77.8322 124.569 76.1318H124.567Z" fill="#00B18A"/>
<path d="M96.6895 97.4193C96.6892 94.6513 97.3283 91.9207 98.5571 89.4404C99.7858 86.96 101.571 84.7971 103.773 83.1203C105.975 81.4435 108.535 80.2981 111.253 79.7734C113.971 79.2488 116.773 79.3591 119.441 80.0958C119.414 78.097 119.052 76.1169 118.371 74.2373C115.204 73.7314 111.966 73.8797 108.858 74.6732C105.75 75.4667 102.838 76.8884 100.3 78.8508C97.763 80.8132 95.6545 83.2746 94.105 86.0832C92.5555 88.8919 91.5978 91.9881 91.291 95.1811C92.9377 96.3166 94.7632 97.1678 96.6915 97.6993C96.6955 97.6053 96.6895 97.5133 96.6895 97.4193Z" fill="#00B18A"/>
<path d="M96.6979 97.6969C94.7696 97.1654 92.9442 96.3142 91.2975 95.1787C91.2295 95.9168 91.1895 96.6628 91.1895 97.4169C91.1909 98.8399 91.3214 100.26 91.5795 101.659C93.5479 102.577 95.6349 103.215 97.78 103.555C97.0952 101.677 96.7295 99.6964 96.6979 97.6969Z" fill="url(#paint0_linear_212_963)"/>
<path d="M119.443 80.0958C119.443 80.1898 119.443 80.2818 119.443 80.3758C119.441 84.8698 117.754 89.1998 114.716 92.5115C111.679 95.8232 107.51 97.8761 103.033 98.2652C98.5555 98.6543 94.0952 97.3513 90.5316 94.6132C86.968 91.8752 84.5599 87.901 83.7825 83.4748C83.0052 79.0485 83.9149 74.4917 86.3323 70.7032C88.7497 66.9148 92.4991 64.1699 96.8409 63.0101C101.183 61.8504 105.801 62.3599 109.786 64.4383C113.77 66.5167 116.831 70.013 118.365 74.2373C120.51 74.5773 122.597 75.2156 124.565 76.1334C123.491 70.2866 120.238 65.0651 115.463 61.5232C110.689 57.9812 104.748 56.3825 98.841 57.0498C92.9337 57.7171 87.4996 60.6006 83.6355 65.1184C79.7715 69.6361 77.7653 75.4516 78.0219 81.3909C78.2785 87.3302 80.7789 92.951 85.0182 97.1186C89.2576 101.286 94.9202 103.69 100.863 103.845C106.806 104.001 112.586 101.896 117.037 97.955C121.489 94.0144 124.279 88.5318 124.845 82.614C123.198 81.4784 121.372 80.6271 119.443 80.0958Z" fill="#F35181"/>
<path d="M156.932 97.0156C156.757 95.5399 156.378 94.0959 155.804 92.7253C155.475 91.94 155.086 91.1816 154.64 90.4571C152.569 87.1126 149.343 84.6436 145.574 83.5175C141.805 82.3914 137.754 82.6864 134.188 84.3466C134.87 85.4079 135.472 86.5192 135.988 87.6708C138.148 86.7157 140.538 86.4025 142.871 86.7686C145.204 87.1346 147.383 88.1645 149.147 89.7352C150.911 91.3059 152.186 93.3511 152.819 95.6266C153.452 97.9021 153.417 100.312 152.717 102.568C152.018 104.824 150.684 106.831 148.875 108.349C147.066 109.868 144.859 110.834 142.515 111.132C140.172 111.43 137.793 111.047 135.662 110.029C133.53 109.011 131.737 107.402 130.495 105.392C127.695 100.876 128.417 95.0855 131.518 91.1371C130.978 89.8887 130.353 88.6791 129.647 87.5168C127.713 89.4381 126.299 91.8199 125.538 94.4381C124.778 97.0564 124.696 99.8251 125.3 102.484C125.904 105.142 127.175 107.604 128.992 109.636C130.81 111.668 133.114 113.205 135.689 114.101C138.264 114.998 141.025 115.224 143.712 114.76C146.398 114.296 148.923 113.155 151.047 111.447C153.172 109.738 154.827 107.517 155.857 104.992C156.886 102.468 157.257 99.7229 156.934 97.0156H156.932Z" fill="url(#paint1_linear_212_963)"/>
<g style="mix-blend-mode:screen">
<path d="M156.932 97.0156C156.757 95.5399 156.378 94.0959 155.804 92.7253C155.475 91.94 155.086 91.1816 154.64 90.4571C152.569 87.1126 149.343 84.6436 145.574 83.5175C141.805 82.3914 137.754 82.6864 134.188 84.3466C134.87 85.4079 135.472 86.5192 135.988 87.6708C138.148 86.7157 140.538 86.4025 142.871 86.7686C145.204 87.1346 147.383 88.1645 149.147 89.7352C150.911 91.3059 152.186 93.3511 152.819 95.6266C153.452 97.9021 153.417 100.312 152.717 102.568C152.018 104.824 150.684 106.831 148.875 108.349C147.066 109.868 144.859 110.834 142.515 111.132C140.172 111.43 137.793 111.047 135.662 110.029C133.53 109.011 131.737 107.402 130.495 105.392C127.695 100.876 128.417 95.0855 131.518 91.1371C130.978 89.8887 130.353 88.6791 129.647 87.5168C127.713 89.4381 126.299 91.8199 125.538 94.4381C124.778 97.0564 124.696 99.8251 125.3 102.484C125.904 105.142 127.175 107.604 128.992 109.636C130.81 111.668 133.114 113.205 135.689 114.101C138.264 114.998 141.025 115.224 143.712 114.76C146.398 114.296 148.923 113.155 151.047 111.447C153.172 109.738 154.827 107.517 155.857 104.992C156.886 102.468 157.257 99.7229 156.934 97.0156H156.932Z" fill="url(#paint2_linear_212_963)"/>
</g>
<path d="M156.932 97.0156C156.757 95.5399 156.378 94.0959 155.804 92.7253C155.475 91.94 155.086 91.1816 154.64 90.4571C152.569 87.1126 149.343 84.6436 145.574 83.5175C141.805 82.3914 137.754 82.6864 134.188 84.3466C134.87 85.4079 135.472 86.5192 135.988 87.6708C138.148 86.7157 140.538 86.4025 142.871 86.7686C145.204 87.1346 147.383 88.1645 149.147 89.7352C150.911 91.3059 152.186 93.3511 152.819 95.6266C153.452 97.9021 153.417 100.312 152.717 102.568C152.018 104.824 150.684 106.831 148.875 108.349C147.066 109.868 144.859 110.834 142.515 111.132C140.172 111.43 137.793 111.047 135.662 110.029C133.53 109.011 131.737 107.402 130.495 105.392C127.695 100.876 128.417 95.0855 131.518 91.1371C130.978 89.8887 130.353 88.6791 129.647 87.5168C127.713 89.4381 126.299 91.8199 125.538 94.4381C124.778 97.0564 124.696 99.8251 125.3 102.484C125.904 105.142 127.175 107.604 128.992 109.636C130.81 111.668 133.114 113.205 135.689 114.101C138.264 114.998 141.025 115.224 143.712 114.76C146.398 114.296 148.923 113.155 151.047 111.447C153.172 109.738 154.827 107.517 155.857 104.992C156.886 102.468 157.257 99.7229 156.934 97.0156H156.932Z" fill="#F98E4A"/>
<defs>
<linearGradient id="paint0_linear_212_963" x1="92.7516" y1="102.451" x2="116.236" y2="61.7758" gradientUnits="userSpaceOnUse">
<stop stop-color="#3A166C" stop-opacity="0.9"/>
<stop offset="0.09" stop-color="#2E145D" stop-opacity="0.9"/>
<stop offset="0.27" stop-color="#1A1044" stop-opacity="0.9"/>
<stop offset="0.47" stop-color="#0B0D32" stop-opacity="0.9"/>
<stop offset="0.7" stop-color="#030C27" stop-opacity="0.9"/>
<stop offset="1" stop-color="#000B24" stop-opacity="0.9"/>
</linearGradient>
<linearGradient id="paint1_linear_212_963" x1="214.491" y1="98.3166" x2="-37.8066" y2="106.882" gradientUnits="userSpaceOnUse">
<stop stop-color="#3A166C"/>
<stop offset="0.18" stop-color="#3E1B6F"/>
<stop offset="0.39" stop-color="#482A78"/>
<stop offset="0.62" stop-color="#594286"/>
<stop offset="0.85" stop-color="#70639A"/>
<stop offset="1" stop-color="#817BA8"/>
</linearGradient>
<linearGradient id="paint2_linear_212_963" x1="214.491" y1="98.3166" x2="-37.8066" y2="106.882" gradientUnits="userSpaceOnUse">
<stop stop-color="white"/>
<stop offset="0.41" stop-color="#3A166C" stop-opacity="0"/>
</linearGradient>
</defs>
</svg>
