<svg width="61" height="65" viewBox="0 0 61 65" fill="none" xmlns="http://www.w3.org/2000/svg">
<path d="M46.1218 16.8018H56.12C56.7247 16.8023 57.3076 17.013 57.7559 17.3931C58.2042 17.7732 58.4858 18.2955 58.5463 18.8589L60.0353 32.8018H55.1241L53.9036 21.3732H46.1218V28.2303C46.1218 28.8365 45.8647 29.4179 45.4069 29.8466C44.9491 30.2752 44.3283 30.516 43.6809 30.516C43.0335 30.516 42.4126 30.2752 41.9549 29.8466C41.4971 29.4179 41.2399 28.8365 41.2399 28.2303V21.3732H21.7123V28.2303C21.7123 28.8365 21.4551 29.4179 20.9974 29.8466C20.5396 30.2752 19.9187 30.516 19.2714 30.516C18.624 30.516 18.0031 30.2752 17.5453 29.8466C17.0876 29.4179 16.8304 28.8365 16.8304 28.2303V21.3732H9.04376L5.13824 57.9446H31.4761V62.516H2.43854C2.09761 62.5157 1.76053 62.4485 1.44902 62.3188C1.1375 62.1891 0.858466 61.9997 0.629886 61.7628C0.401306 61.5259 0.228251 61.2469 0.12187 60.9435C0.0154892 60.6402 -0.0218578 60.3194 0.0122357 60.0018L4.40595 18.8589C4.46642 18.2955 4.74807 17.7732 5.19633 17.3931C5.6446 17.013 6.22755 16.8023 6.83226 16.8018H16.8304V15.2063C16.8304 7.27947 23.3526 0.801758 31.4761 0.801758C39.5996 0.801758 46.1218 7.27947 46.1218 15.2063V16.8063V16.8018ZM41.2399 16.8018V15.2063C41.2399 9.74804 36.8365 5.37319 31.4761 5.37319C26.1158 5.37319 21.7123 9.74804 21.7123 15.2063V16.8063H41.2399V16.8018ZM56.6033 51.3618L51.0037 46.1229V62.516C51.0037 63.1223 50.7466 63.7036 50.2888 64.1323C49.831 64.5609 49.2102 64.8018 48.5628 64.8018C47.9154 64.8018 47.2945 64.5609 46.8368 64.1323C46.379 63.7036 46.1218 63.1223 46.1218 62.516V46.1229L40.5272 51.3618C40.302 51.5801 40.0327 51.7542 39.7349 51.874C39.437 51.9938 39.1167 52.0568 38.7926 52.0595C38.4685 52.0621 38.1471 52.0043 37.8471 51.8894C37.5471 51.7744 37.2746 51.6047 37.0454 51.3901C36.8162 51.1755 36.635 50.9203 36.5122 50.6394C36.3895 50.3585 36.3278 50.0575 36.3306 49.754C36.3334 49.4505 36.4007 49.1506 36.5286 48.8717C36.6566 48.5928 36.8425 48.3406 37.0757 48.1298L46.8395 38.9869C47.2972 38.5584 47.918 38.3177 48.5652 38.3177C49.2125 38.3177 49.8332 38.5584 50.291 38.9869L60.0548 48.1298C60.2879 48.3406 60.4739 48.5928 60.6018 48.8717C60.7298 49.1506 60.7971 49.4505 60.7999 49.754C60.8027 50.0575 60.741 50.3585 60.6182 50.6394C60.4955 50.9203 60.3142 51.1755 60.0851 51.3901C59.8559 51.6047 59.5833 51.7744 59.2833 51.8894C58.9834 52.0043 58.6619 52.0621 58.3378 52.0595C58.0137 52.0568 57.6934 51.9938 57.3956 51.874C57.0978 51.7542 56.8285 51.5801 56.6033 51.3618Z" fill="#00B18A"/>
</svg>
